<?xml version="1.0" encoding="utf-8" standalone="no"?>
<!DOCTYPE svg PUBLIC "-//W3C//DTD SVG 1.1//EN"
  "http://www.w3.org/Graphics/SVG/1.1/DTD/svg11.dtd">
<svg xmlns:xlink="http://www.w3.org/1999/xlink" width="762.4pt" height="625.6pt" viewBox="0 0 762.4 625.6" xmlns="http://www.w3.org/2000/svg" version="1.1">
 <metadata>
  <rdf:RDF xmlns:dc="http://purl.org/dc/elements/1.1/" xmlns:cc="http://creativecommons.org/ns#" xmlns:rdf="http://www.w3.org/1999/02/22-rdf-syntax-ns#">
   <cc:Work>
    <dc:type rdf:resource="http://purl.org/dc/dcmitype/StillImage"/>
    <dc:date>2026-06-20T16:32:12.516659</dc:date>
    <dc:format>image/svg+xml</dc:format>
    <dc:creator>
     <cc:Agent>
      <dc:title>Matplotlib v3.10.8, https://matplotlib.org/</dc:title>
     </cc:Agent>
    </dc:creator>
   </cc:Work>
  </rdf:RDF>
 </metadata>
 <defs>
  <style type="text/css">*{stroke-linejoin: round; stroke-linecap: butt}</style>
 </defs>
 <g id="figure_1">
  <g id="patch_1">
   <path d="M -0 625.6 
L 762.4 625.6 
L 762.4 0 
L -0 0 
z
" style="fill: #ffffff"/>
  </g>
  <g id="axes_1">
   <g id="patch_2">
    <path d="M 188.681537 126.784699 
Q 283.961079 146.24822 379.240622 165.711742 
" clip-path="url(#pad42d1b3c4)" style="fill: none; stroke: #7a7a7a; stroke-linecap: round"/>
   </g>
   <g id="patch_3">
    <path d="M 381.2 128.386889 
Q 381.2 146.247832 381.2 164.108774 
" clip-path="url(#pad42d1b3c4)" style="fill: none; stroke: #7a7a7a; stroke-linecap: round"/>
   </g>
   <g id="patch_4">
    <path d="M 573.718463 126.784699 
Q 478.438921 146.24822 383.159378 165.711742 
" clip-path="url(#pad42d1b3c4)" style="fill: none; stroke: #7a7a7a; stroke-linecap: round"/>
   </g>
   <g id="patch_5">
    <path d="M 379.238691 453.751612 
Q 261.522832 476.295458 143.806972 498.839304 
" clip-path="url(#pad42d1b3c4)" style="fill: none; stroke: #7a7a7a; stroke-linecap: round"/>
   </g>
   <g id="patch_6">
    <path d="M 379.454865 454.348253 
Q 340.061155 476.295357 300.667445 498.24246 
" clip-path="url(#pad42d1b3c4)" style="fill: none; stroke: #7a7a7a; stroke-linecap: round"/>
   </g>
   <g id="patch_7">
    <path d="M 382.945135 454.348253 
Q 422.338845 476.295357 461.732555 498.24246 
" clip-path="url(#pad42d1b3c4)" style="fill: none; stroke: #7a7a7a; stroke-linecap: round"/>
   </g>
   <g id="patch_8">
    <path d="M 383.161309 453.751612 
Q 500.877168 476.295458 618.593028 498.839304 
" clip-path="url(#pad42d1b3c4)" style="fill: none; stroke: #7a7a7a; stroke-linecap: round"/>
   </g>
   <g id="patch_9">
    <path d="M 113.416 126.384 
L 260.024 126.384 
Q 269 126.384 269 119.0496 
L 269 66.4864 
Q 269 59.152 260.024 59.152 
L 113.416 59.152 
Q 104.44 59.152 104.44 66.4864 
L 104.44 119.0496 
Q 104.44 126.384 113.416 126.384 
z
" clip-path="url(#pad42d1b3c4)" style="fill: #cfe3f7; stroke: #4a86c5; stroke-width: 1.6; stroke-linejoin: miter"/>
   </g>
   <g id="patch_10">
    <path d="M 307.896 126.384 
L 454.504 126.384 
Q 463.48 126.384 463.48 119.0496 
L 463.48 66.4864 
Q 463.48 59.152 454.504 59.152 
L 307.896 59.152 
Q 298.92 59.152 298.92 66.4864 
L 298.92 119.0496 
Q 298.92 126.384 307.896 126.384 
z
" clip-path="url(#pad42d1b3c4)" style="fill: #cfe3f7; stroke: #4a86c5; stroke-width: 1.6; stroke-linejoin: miter"/>
   </g>
   <g id="patch_11">
    <path d="M 502.376 126.384 
L 648.984 126.384 
Q 657.96 126.384 657.96 119.0496 
L 657.96 66.4864 
Q 657.96 59.152 648.984 59.152 
L 502.376 59.152 
Q 493.4 59.152 493.4 66.4864 
L 493.4 119.0496 
Q 493.4 126.384 502.376 126.384 
z
" clip-path="url(#pad42d1b3c4)" style="fill: #cfe3f7; stroke: #4a86c5; stroke-width: 1.6; stroke-linejoin: miter"/>
   </g>
   <g id="patch_12">
    <path d="M 218.136 373.92 
L 544.264 373.92 
Q 553.24 373.92 553.24 366.5856 
L 553.24 259.0144 
Q 553.24 251.68 544.264 251.68 
L 218.136 251.68 
Q 209.16 251.68 209.16 259.0144 
L 209.16 366.5856 
Q 209.16 373.92 218.136 373.92 
z
" clip-path="url(#pad42d1b3c4)" style="fill: #f3e0c2; stroke: #c08a3e; stroke-width: 1.6; stroke-linejoin: miter"/>
   </g>
   <g id="patch_13">
    <path d="M 592.136 358.64 
L 723.784 358.64 
Q 732.76 358.64 732.76 351.3056 
L 732.76 274.2944 
Q 732.76 266.96 723.784 266.96 
L 592.136 266.96 
Q 583.16 266.96 583.16 274.2944 
L 583.16 351.3056 
Q 583.16 358.64 592.136 358.64 
z
" clip-path="url(#pad42d1b3c4)" style="fill: #e7d6f0; stroke: #8a5aa8; stroke-width: 1.6; stroke-linejoin: miter"/>
   </g>
   <g id="patch_14">
    <path d="M 38.616 358.64 
L 170.264 358.64 
Q 179.24 358.64 179.24 351.3056 
L 179.24 274.2944 
Q 179.24 266.96 170.264 266.96 
L 38.616 266.96 
Q 29.64 266.96 29.64 274.2944 
L 29.64 351.3056 
Q 29.64 358.64 38.616 358.64 
z
" clip-path="url(#pad42d1b3c4)" style="fill: #e7d6f0; stroke: #8a5aa8; stroke-width: 1.6; stroke-linejoin: miter"/>
   </g>
   <g id="patch_15">
    <path d="M 79.756 566.448 
L 203.924 566.448 
Q 212.9 566.448 212.9 559.1136 
L 212.9 506.5504 
Q 212.9 499.216 203.924 499.216 
L 79.756 499.216 
Q 70.78 499.216 70.78 506.5504 
L 70.78 559.1136 
Q 70.78 566.448 79.756 566.448 
z
" clip-path="url(#pad42d1b3c4)" style="fill: #d7eccd; stroke: #5a9e46; stroke-width: 1.6; stroke-linejoin: miter"/>
   </g>
   <g id="patch_16">
    <path d="M 236.836 566.448 
L 361.004 566.448 
Q 369.98 566.448 369.98 559.1136 
L 369.98 506.5504 
Q 369.98 499.216 361.004 499.216 
L 236.836 499.216 
Q 227.86 499.216 227.86 506.5504 
L 227.86 559.1136 
Q 227.86 566.448 236.836 566.448 
z
" clip-path="url(#pad42d1b3c4)" style="fill: #d7eccd; stroke: #5a9e46; stroke-width: 1.6; stroke-linejoin: miter"/>
   </g>
   <g id="patch_17">
    <path d="M 401.396 566.448 
L 525.564 566.448 
Q 534.54 566.448 534.54 559.1136 
L 534.54 506.5504 
Q 534.54 499.216 525.564 499.216 
L 401.396 499.216 
Q 392.42 499.216 392.42 506.5504 
L 392.42 559.1136 
Q 392.42 566.448 401.396 566.448 
z
" clip-path="url(#pad42d1b3c4)" style="fill: #d7eccd; stroke: #5a9e46; stroke-width: 1.6; stroke-linejoin: miter"/>
   </g>
   <g id="patch_18">
    <path d="M 558.476 566.448 
L 682.644 566.448 
Q 691.62 566.448 691.62 559.1136 
L 691.62 506.5504 
Q 691.62 499.216 682.644 499.216 
L 558.476 499.216 
Q 549.5 499.216 549.5 506.5504 
L 549.5 559.1136 
Q 549.5 566.448 558.476 566.448 
z
" clip-path="url(#pad42d1b3c4)" style="fill: #d7eccd; stroke: #5a9e46; stroke-width: 1.6; stroke-linejoin: miter"/>
   </g>
   <g id="text_1">
    <!-- GPU node -->
    <g style="fill: #1c1c1c" transform="translate(160.562344 84.632286) scale(0.095 -0.095)">
     <defs>
      <path id="DejaVuSans-Bold-47" d="M 4781 347 
Q 4331 128 3847 18 
Q 3363 -91 2847 -91 
Q 1681 -91 1000 561 
Q 319 1213 319 2328 
Q 319 3456 1012 4103 
Q 1706 4750 2913 4750 
Q 3378 4750 3804 4662 
Q 4231 4575 4609 4403 
L 4609 3438 
Q 4219 3659 3833 3768 
Q 3447 3878 3059 3878 
Q 2341 3878 1952 3476 
Q 1563 3075 1563 2328 
Q 1563 1588 1938 1184 
Q 2313 781 3003 781 
Q 3191 781 3352 804 
Q 3513 828 3641 878 
L 3641 1784 
L 2906 1784 
L 2906 2591 
L 4781 2591 
L 4781 347 
z
" transform="scale(0.015625)"/>
      <path id="DejaVuSans-Bold-50" d="M 588 4666 
L 2584 4666 
Q 3475 4666 3951 4270 
Q 4428 3875 4428 3144 
Q 4428 2409 3951 2014 
Q 3475 1619 2584 1619 
L 1791 1619 
L 1791 0 
L 588 0 
L 588 4666 
z
M 1791 3794 
L 1791 2491 
L 2456 2491 
Q 2806 2491 2997 2661 
Q 3188 2831 3188 3144 
Q 3188 3456 2997 3625 
Q 2806 3794 2456 3794 
L 1791 3794 
z
" transform="scale(0.015625)"/>
      <path id="DejaVuSans-Bold-55" d="M 588 4666 
L 1791 4666 
L 1791 1869 
Q 1791 1291 1980 1042 
Q 2169 794 2597 794 
Q 3028 794 3217 1042 
Q 3406 1291 3406 1869 
L 3406 4666 
L 4609 4666 
L 4609 1869 
Q 4609 878 4112 393 
Q 3616 -91 2597 -91 
Q 1581 -91 1084 393 
Q 588 878 588 1869 
L 588 4666 
z
" transform="scale(0.015625)"/>
      <path id="DejaVuSans-Bold-20" transform="scale(0.015625)"/>
      <path id="DejaVuSans-Bold-6e" d="M 4056 2131 
L 4056 0 
L 2931 0 
L 2931 347 
L 2931 1631 
Q 2931 2084 2911 2256 
Q 2891 2428 2841 2509 
Q 2775 2619 2662 2680 
Q 2550 2741 2406 2741 
Q 2056 2741 1856 2470 
Q 1656 2200 1656 1722 
L 1656 0 
L 538 0 
L 538 3500 
L 1656 3500 
L 1656 2988 
Q 1909 3294 2193 3439 
Q 2478 3584 2822 3584 
Q 3428 3584 3742 3212 
Q 4056 2841 4056 2131 
z
" transform="scale(0.015625)"/>
      <path id="DejaVuSans-Bold-6f" d="M 2203 2784 
Q 1831 2784 1636 2517 
Q 1441 2250 1441 1747 
Q 1441 1244 1636 976 
Q 1831 709 2203 709 
Q 2569 709 2762 976 
Q 2956 1244 2956 1747 
Q 2956 2250 2762 2517 
Q 2569 2784 2203 2784 
z
M 2203 3584 
Q 3106 3584 3614 3096 
Q 4122 2609 4122 1747 
Q 4122 884 3614 396 
Q 3106 -91 2203 -91 
Q 1297 -91 786 396 
Q 275 884 275 1747 
Q 275 2609 786 3096 
Q 1297 3584 2203 3584 
z
" transform="scale(0.015625)"/>
      <path id="DejaVuSans-Bold-64" d="M 2919 2988 
L 2919 4863 
L 4044 4863 
L 4044 0 
L 2919 0 
L 2919 506 
Q 2688 197 2409 53 
Q 2131 -91 1766 -91 
Q 1119 -91 703 423 
Q 288 938 288 1747 
Q 288 2556 703 3070 
Q 1119 3584 1766 3584 
Q 2128 3584 2408 3439 
Q 2688 3294 2919 2988 
z
M 2181 722 
Q 2541 722 2730 984 
Q 2919 1247 2919 1747 
Q 2919 2247 2730 2509 
Q 2541 2772 2181 2772 
Q 1825 2772 1636 2509 
Q 1447 2247 1447 1747 
Q 1447 1247 1636 984 
Q 1825 722 2181 722 
z
" transform="scale(0.015625)"/>
      <path id="DejaVuSans-Bold-65" d="M 4031 1759 
L 4031 1441 
L 1416 1441 
Q 1456 1047 1700 850 
Q 1944 653 2381 653 
Q 2734 653 3104 758 
Q 3475 863 3866 1075 
L 3866 213 
Q 3469 63 3072 -14 
Q 2675 -91 2278 -91 
Q 1328 -91 801 392 
Q 275 875 275 1747 
Q 275 2603 792 3093 
Q 1309 3584 2216 3584 
Q 3041 3584 3536 3087 
Q 4031 2591 4031 1759 
z
M 2881 2131 
Q 2881 2450 2695 2645 
Q 2509 2841 2209 2841 
Q 1884 2841 1681 2658 
Q 1478 2475 1428 2131 
L 2881 2131 
z
" transform="scale(0.015625)"/>
     </defs>
     <use xlink:href="#DejaVuSans-Bold-47"/>
     <use xlink:href="#DejaVuSans-Bold-50" transform="translate(82.080078 0)"/>
     <use xlink:href="#DejaVuSans-Bold-55" transform="translate(155.371094 0)"/>
     <use xlink:href="#DejaVuSans-Bold-20" transform="translate(236.572266 0)"/>
     <use xlink:href="#DejaVuSans-Bold-6e" transform="translate(271.386719 0)"/>
     <use xlink:href="#DejaVuSans-Bold-6f" transform="translate(342.578125 0)"/>
     <use xlink:href="#DejaVuSans-Bold-64" transform="translate(411.279297 0)"/>
     <use xlink:href="#DejaVuSans-Bold-65" transform="translate(482.861328 0)"/>
    </g>
   </g>
   <g id="text_2">
    <!-- LLM planner -->
    <g style="fill: #1c1c1c" transform="translate(163.485375 105.400996) scale(0.076 -0.076)">
     <defs>
      <path id="DejaVuSans-4c" d="M 628 4666 
L 1259 4666 
L 1259 531 
L 3531 531 
L 3531 0 
L 628 0 
L 628 4666 
z
" transform="scale(0.015625)"/>
      <path id="DejaVuSans-4d" d="M 628 4666 
L 1569 4666 
L 2759 1491 
L 3956 4666 
L 4897 4666 
L 4897 0 
L 4281 0 
L 4281 4097 
L 3078 897 
L 2444 897 
L 1241 4097 
L 1241 0 
L 628 0 
L 628 4666 
z
" transform="scale(0.015625)"/>
      <path id="DejaVuSans-20" transform="scale(0.015625)"/>
      <path id="DejaVuSans-70" d="M 1159 525 
L 1159 -1331 
L 581 -1331 
L 581 3500 
L 1159 3500 
L 1159 2969 
Q 1341 3281 1617 3432 
Q 1894 3584 2278 3584 
Q 2916 3584 3314 3078 
Q 3713 2572 3713 1747 
Q 3713 922 3314 415 
Q 2916 -91 2278 -91 
Q 1894 -91 1617 61 
Q 1341 213 1159 525 
z
M 3116 1747 
Q 3116 2381 2855 2742 
Q 2594 3103 2138 3103 
Q 1681 3103 1420 2742 
Q 1159 2381 1159 1747 
Q 1159 1113 1420 752 
Q 1681 391 2138 391 
Q 2594 391 2855 752 
Q 3116 1113 3116 1747 
z
" transform="scale(0.015625)"/>
      <path id="DejaVuSans-6c" d="M 603 4863 
L 1178 4863 
L 1178 0 
L 603 0 
L 603 4863 
z
" transform="scale(0.015625)"/>
      <path id="DejaVuSans-61" d="M 2194 1759 
Q 1497 1759 1228 1600 
Q 959 1441 959 1056 
Q 959 750 1161 570 
Q 1363 391 1709 391 
Q 2188 391 2477 730 
Q 2766 1069 2766 1631 
L 2766 1759 
L 2194 1759 
z
M 3341 1997 
L 3341 0 
L 2766 0 
L 2766 531 
Q 2569 213 2275 61 
Q 1981 -91 1556 -91 
Q 1019 -91 701 211 
Q 384 513 384 1019 
Q 384 1609 779 1909 
Q 1175 2209 1959 2209 
L 2766 2209 
L 2766 2266 
Q 2766 2663 2505 2880 
Q 2244 3097 1772 3097 
Q 1472 3097 1187 3025 
Q 903 2953 641 2809 
L 641 3341 
Q 956 3463 1253 3523 
Q 1550 3584 1831 3584 
Q 2591 3584 2966 3190 
Q 3341 2797 3341 1997 
z
" transform="scale(0.015625)"/>
      <path id="DejaVuSans-6e" d="M 3513 2113 
L 3513 0 
L 2938 0 
L 2938 2094 
Q 2938 2591 2744 2837 
Q 2550 3084 2163 3084 
Q 1697 3084 1428 2787 
Q 1159 2491 1159 1978 
L 1159 0 
L 581 0 
L 581 3500 
L 1159 3500 
L 1159 2956 
Q 1366 3272 1645 3428 
Q 1925 3584 2291 3584 
Q 2894 3584 3203 3211 
Q 3513 2838 3513 2113 
z
" transform="scale(0.015625)"/>
      <path id="DejaVuSans-65" d="M 3597 1894 
L 3597 1613 
L 953 1613 
Q 991 1019 1311 708 
Q 1631 397 2203 397 
Q 2534 397 2845 478 
Q 3156 559 3463 722 
L 3463 178 
Q 3153 47 2828 -22 
Q 2503 -91 2169 -91 
Q 1331 -91 842 396 
Q 353 884 353 1716 
Q 353 2575 817 3079 
Q 1281 3584 2069 3584 
Q 2775 3584 3186 3129 
Q 3597 2675 3597 1894 
z
M 3022 2063 
Q 3016 2534 2758 2815 
Q 2500 3097 2075 3097 
Q 1594 3097 1305 2825 
Q 1016 2553 972 2059 
L 3022 2063 
z
" transform="scale(0.015625)"/>
      <path id="DejaVuSans-72" d="M 2631 2963 
Q 2534 3019 2420 3045 
Q 2306 3072 2169 3072 
Q 1681 3072 1420 2755 
Q 1159 2438 1159 1844 
L 1159 0 
L 581 0 
L 581 3500 
L 1159 3500 
L 1159 2956 
Q 1341 3275 1631 3429 
Q 1922 3584 2338 3584 
Q 2397 3584 2469 3576 
Q 2541 3569 2628 3553 
L 2631 2963 
z
" transform="scale(0.015625)"/>
     </defs>
     <use xlink:href="#DejaVuSans-4c"/>
     <use xlink:href="#DejaVuSans-4c" transform="translate(55.712891 0)"/>
     <use xlink:href="#DejaVuSans-4d" transform="translate(111.425781 0)"/>
     <use xlink:href="#DejaVuSans-20" transform="translate(197.705078 0)"/>
     <use xlink:href="#DejaVuSans-70" transform="translate(229.492188 0)"/>
     <use xlink:href="#DejaVuSans-6c" transform="translate(292.96875 0)"/>
     <use xlink:href="#DejaVuSans-61" transform="translate(320.751953 0)"/>
     <use xlink:href="#DejaVuSans-6e" transform="translate(382.03125 0)"/>
     <use xlink:href="#DejaVuSans-6e" transform="translate(445.410156 0)"/>
     <use xlink:href="#DejaVuSans-65" transform="translate(508.789062 0)"/>
     <use xlink:href="#DejaVuSans-72" transform="translate(570.3125 0)"/>
    </g>
    <!-- (+ optional worker, toggleable) -->
    <g style="fill: #1c1c1c" transform="translate(127.212594 113.911334) scale(0.076 -0.076)">
     <defs>
      <path id="DejaVuSans-28" d="M 1984 4856 
Q 1566 4138 1362 3434 
Q 1159 2731 1159 2009 
Q 1159 1288 1364 580 
Q 1569 -128 1984 -844 
L 1484 -844 
Q 1016 -109 783 600 
Q 550 1309 550 2009 
Q 550 2706 781 3412 
Q 1013 4119 1484 4856 
L 1984 4856 
z
" transform="scale(0.015625)"/>
      <path id="DejaVuSans-2b" d="M 2944 4013 
L 2944 2272 
L 4684 2272 
L 4684 1741 
L 2944 1741 
L 2944 0 
L 2419 0 
L 2419 1741 
L 678 1741 
L 678 2272 
L 2419 2272 
L 2419 4013 
L 2944 4013 
z
" transform="scale(0.015625)"/>
      <path id="DejaVuSans-6f" d="M 1959 3097 
Q 1497 3097 1228 2736 
Q 959 2375 959 1747 
Q 959 1119 1226 758 
Q 1494 397 1959 397 
Q 2419 397 2687 759 
Q 2956 1122 2956 1747 
Q 2956 2369 2687 2733 
Q 2419 3097 1959 3097 
z
M 1959 3584 
Q 2709 3584 3137 3096 
Q 3566 2609 3566 1747 
Q 3566 888 3137 398 
Q 2709 -91 1959 -91 
Q 1206 -91 779 398 
Q 353 888 353 1747 
Q 353 2609 779 3096 
Q 1206 3584 1959 3584 
z
" transform="scale(0.015625)"/>
      <path id="DejaVuSans-74" d="M 1172 4494 
L 1172 3500 
L 2356 3500 
L 2356 3053 
L 1172 3053 
L 1172 1153 
Q 1172 725 1289 603 
Q 1406 481 1766 481 
L 2356 481 
L 2356 0 
L 1766 0 
Q 1100 0 847 248 
Q 594 497 594 1153 
L 594 3053 
L 172 3053 
L 172 3500 
L 594 3500 
L 594 4494 
L 1172 4494 
z
" transform="scale(0.015625)"/>
      <path id="DejaVuSans-69" d="M 603 3500 
L 1178 3500 
L 1178 0 
L 603 0 
L 603 3500 
z
M 603 4863 
L 1178 4863 
L 1178 4134 
L 603 4134 
L 603 4863 
z
" transform="scale(0.015625)"/>
      <path id="DejaVuSans-77" d="M 269 3500 
L 844 3500 
L 1563 769 
L 2278 3500 
L 2956 3500 
L 3675 769 
L 4391 3500 
L 4966 3500 
L 4050 0 
L 3372 0 
L 2619 2869 
L 1863 0 
L 1184 0 
L 269 3500 
z
" transform="scale(0.015625)"/>
      <path id="DejaVuSans-6b" d="M 581 4863 
L 1159 4863 
L 1159 1991 
L 2875 3500 
L 3609 3500 
L 1753 1863 
L 3688 0 
L 2938 0 
L 1159 1709 
L 1159 0 
L 581 0 
L 581 4863 
z
" transform="scale(0.015625)"/>
      <path id="DejaVuSans-2c" d="M 750 794 
L 1409 794 
L 1409 256 
L 897 -744 
L 494 -744 
L 750 256 
L 750 794 
z
" transform="scale(0.015625)"/>
      <path id="DejaVuSans-67" d="M 2906 1791 
Q 2906 2416 2648 2759 
Q 2391 3103 1925 3103 
Q 1463 3103 1205 2759 
Q 947 2416 947 1791 
Q 947 1169 1205 825 
Q 1463 481 1925 481 
Q 2391 481 2648 825 
Q 2906 1169 2906 1791 
z
M 3481 434 
Q 3481 -459 3084 -895 
Q 2688 -1331 1869 -1331 
Q 1566 -1331 1297 -1286 
Q 1028 -1241 775 -1147 
L 775 -588 
Q 1028 -725 1275 -790 
Q 1522 -856 1778 -856 
Q 2344 -856 2625 -561 
Q 2906 -266 2906 331 
L 2906 616 
Q 2728 306 2450 153 
Q 2172 0 1784 0 
Q 1141 0 747 490 
Q 353 981 353 1791 
Q 353 2603 747 3093 
Q 1141 3584 1784 3584 
Q 2172 3584 2450 3431 
Q 2728 3278 2906 2969 
L 2906 3500 
L 3481 3500 
L 3481 434 
z
" transform="scale(0.015625)"/>
      <path id="DejaVuSans-62" d="M 3116 1747 
Q 3116 2381 2855 2742 
Q 2594 3103 2138 3103 
Q 1681 3103 1420 2742 
Q 1159 2381 1159 1747 
Q 1159 1113 1420 752 
Q 1681 391 2138 391 
Q 2594 391 2855 752 
Q 3116 1113 3116 1747 
z
M 1159 2969 
Q 1341 3281 1617 3432 
Q 1894 3584 2278 3584 
Q 2916 3584 3314 3078 
Q 3713 2572 3713 1747 
Q 3713 922 3314 415 
Q 2916 -91 2278 -91 
Q 1894 -91 1617 61 
Q 1341 213 1159 525 
L 1159 0 
L 581 0 
L 581 4863 
L 1159 4863 
L 1159 2969 
z
" transform="scale(0.015625)"/>
      <path id="DejaVuSans-29" d="M 513 4856 
L 1013 4856 
Q 1481 4119 1714 3412 
Q 1947 2706 1947 2009 
Q 1947 1309 1714 600 
Q 1481 -109 1013 -844 
L 513 -844 
Q 928 -128 1133 580 
Q 1338 1288 1338 2009 
Q 1338 2731 1133 3434 
Q 928 4138 513 4856 
z
" transform="scale(0.015625)"/>
     </defs>
     <use xlink:href="#DejaVuSans-28"/>
     <use xlink:href="#DejaVuSans-2b" transform="translate(39.013672 0)"/>
     <use xlink:href="#DejaVuSans-20" transform="translate(122.802734 0)"/>
     <use xlink:href="#DejaVuSans-6f" transform="translate(154.589844 0)"/>
     <use xlink:href="#DejaVuSans-70" transform="translate(215.771484 0)"/>
     <use xlink:href="#DejaVuSans-74" transform="translate(279.248047 0)"/>
     <use xlink:href="#DejaVuSans-69" transform="translate(318.457031 0)"/>
     <use xlink:href="#DejaVuSans-6f" transform="translate(346.240234 0)"/>
     <use xlink:href="#DejaVuSans-6e" transform="translate(407.421875 0)"/>
     <use xlink:href="#DejaVuSans-61" transform="translate(470.800781 0)"/>
     <use xlink:href="#DejaVuSans-6c" transform="translate(532.080078 0)"/>
     <use xlink:href="#DejaVuSans-20" transform="translate(559.863281 0)"/>
     <use xlink:href="#DejaVuSans-77" transform="translate(591.650391 0)"/>
     <use xlink:href="#DejaVuSans-6f" transform="translate(673.4375 0)"/>
     <use xlink:href="#DejaVuSans-72" transform="translate(734.619141 0)"/>
     <use xlink:href="#DejaVuSans-6b" transform="translate(775.732422 0)"/>
     <use xlink:href="#DejaVuSans-65" transform="translate(830.017578 0)"/>
     <use xlink:href="#DejaVuSans-72" transform="translate(891.541016 0)"/>
     <use xlink:href="#DejaVuSans-2c" transform="translate(932.654297 0)"/>
     <use xlink:href="#DejaVuSans-20" transform="translate(964.441406 0)"/>
     <use xlink:href="#DejaVuSans-74" transform="translate(996.228516 0)"/>
     <use xlink:href="#DejaVuSans-6f" transform="translate(1035.4375 0)"/>
     <use xlink:href="#DejaVuSans-67" transform="translate(1096.619141 0)"/>
     <use xlink:href="#DejaVuSans-67" transform="translate(1160.095703 0)"/>
     <use xlink:href="#DejaVuSans-6c" transform="translate(1223.572266 0)"/>
     <use xlink:href="#DejaVuSans-65" transform="translate(1251.355469 0)"/>
     <use xlink:href="#DejaVuSans-61" transform="translate(1312.878906 0)"/>
     <use xlink:href="#DejaVuSans-62" transform="translate(1374.158203 0)"/>
     <use xlink:href="#DejaVuSans-6c" transform="translate(1437.634766 0)"/>
     <use xlink:href="#DejaVuSans-65" transform="translate(1465.417969 0)"/>
     <use xlink:href="#DejaVuSans-29" transform="translate(1526.941406 0)"/>
    </g>
   </g>
   <g id="text_3">
    <!-- GPU node -->
    <g style="fill: #1c1c1c" transform="translate(355.042344 84.632286) scale(0.095 -0.095)">
     <use xlink:href="#DejaVuSans-Bold-47"/>
     <use xlink:href="#DejaVuSans-Bold-50" transform="translate(82.080078 0)"/>
     <use xlink:href="#DejaVuSans-Bold-55" transform="translate(155.371094 0)"/>
     <use xlink:href="#DejaVuSans-Bold-20" transform="translate(236.572266 0)"/>
     <use xlink:href="#DejaVuSans-Bold-6e" transform="translate(271.386719 0)"/>
     <use xlink:href="#DejaVuSans-Bold-6f" transform="translate(342.578125 0)"/>
     <use xlink:href="#DejaVuSans-Bold-64" transform="translate(411.279297 0)"/>
     <use xlink:href="#DejaVuSans-Bold-65" transform="translate(482.861328 0)"/>
    </g>
   </g>
   <g id="text_4">
    <!-- LLM planner -->
    <g style="fill: #1c1c1c" transform="translate(357.965375 105.400996) scale(0.076 -0.076)">
     <use xlink:href="#DejaVuSans-4c"/>
     <use xlink:href="#DejaVuSans-4c" transform="translate(55.712891 0)"/>
     <use xlink:href="#DejaVuSans-4d" transform="translate(111.425781 0)"/>
     <use xlink:href="#DejaVuSans-20" transform="translate(197.705078 0)"/>
     <use xlink:href="#DejaVuSans-70" transform="translate(229.492188 0)"/>
     <use xlink:href="#DejaVuSans-6c" transform="translate(292.96875 0)"/>
     <use xlink:href="#DejaVuSans-61" transform="translate(320.751953 0)"/>
     <use xlink:href="#DejaVuSans-6e" transform="translate(382.03125 0)"/>
     <use xlink:href="#DejaVuSans-6e" transform="translate(445.410156 0)"/>
     <use xlink:href="#DejaVuSans-65" transform="translate(508.789062 0)"/>
     <use xlink:href="#DejaVuSans-72" transform="translate(570.3125 0)"/>
    </g>
    <!-- (+ optional worker, toggleable) -->
    <g style="fill: #1c1c1c" transform="translate(321.692594 113.911334) scale(0.076 -0.076)">
     <use xlink:href="#DejaVuSans-28"/>
     <use xlink:href="#DejaVuSans-2b" transform="translate(39.013672 0)"/>
     <use xlink:href="#DejaVuSans-20" transform="translate(122.802734 0)"/>
     <use xlink:href="#DejaVuSans-6f" transform="translate(154.589844 0)"/>
     <use xlink:href="#DejaVuSans-70" transform="translate(215.771484 0)"/>
     <use xlink:href="#DejaVuSans-74" transform="translate(279.248047 0)"/>
     <use xlink:href="#DejaVuSans-69" transform="translate(318.457031 0)"/>
     <use xlink:href="#DejaVuSans-6f" transform="translate(346.240234 0)"/>
     <use xlink:href="#DejaVuSans-6e" transform="translate(407.421875 0)"/>
     <use xlink:href="#DejaVuSans-61" transform="translate(470.800781 0)"/>
     <use xlink:href="#DejaVuSans-6c" transform="translate(532.080078 0)"/>
     <use xlink:href="#DejaVuSans-20" transform="translate(559.863281 0)"/>
     <use xlink:href="#DejaVuSans-77" transform="translate(591.650391 0)"/>
     <use xlink:href="#DejaVuSans-6f" transform="translate(673.4375 0)"/>
     <use xlink:href="#DejaVuSans-72" transform="translate(734.619141 0)"/>
     <use xlink:href="#DejaVuSans-6b" transform="translate(775.732422 0)"/>
     <use xlink:href="#DejaVuSans-65" transform="translate(830.017578 0)"/>
     <use xlink:href="#DejaVuSans-72" transform="translate(891.541016 0)"/>
     <use xlink:href="#DejaVuSans-2c" transform="translate(932.654297 0)"/>
     <use xlink:href="#DejaVuSans-20" transform="translate(964.441406 0)"/>
     <use xlink:href="#DejaVuSans-74" transform="translate(996.228516 0)"/>
     <use xlink:href="#DejaVuSans-6f" transform="translate(1035.4375 0)"/>
     <use xlink:href="#DejaVuSans-67" transform="translate(1096.619141 0)"/>
     <use xlink:href="#DejaVuSans-67" transform="translate(1160.095703 0)"/>
     <use xlink:href="#DejaVuSans-6c" transform="translate(1223.572266 0)"/>
     <use xlink:href="#DejaVuSans-65" transform="translate(1251.355469 0)"/>
     <use xlink:href="#DejaVuSans-61" transform="translate(1312.878906 0)"/>
     <use xlink:href="#DejaVuSans-62" transform="translate(1374.158203 0)"/>
     <use xlink:href="#DejaVuSans-6c" transform="translate(1437.634766 0)"/>
     <use xlink:href="#DejaVuSans-65" transform="translate(1465.417969 0)"/>
     <use xlink:href="#DejaVuSans-29" transform="translate(1526.941406 0)"/>
    </g>
   </g>
   <g id="text_5">
    <!-- GPU node -->
    <g style="fill: #1c1c1c" transform="translate(549.522344 84.632286) scale(0.095 -0.095)">
     <use xlink:href="#DejaVuSans-Bold-47"/>
     <use xlink:href="#DejaVuSans-Bold-50" transform="translate(82.080078 0)"/>
     <use xlink:href="#DejaVuSans-Bold-55" transform="translate(155.371094 0)"/>
     <use xlink:href="#DejaVuSans-Bold-20" transform="translate(236.572266 0)"/>
     <use xlink:href="#DejaVuSans-Bold-6e" transform="translate(271.386719 0)"/>
     <use xlink:href="#DejaVuSans-Bold-6f" transform="translate(342.578125 0)"/>
     <use xlink:href="#DejaVuSans-Bold-64" transform="translate(411.279297 0)"/>
     <use xlink:href="#DejaVuSans-Bold-65" transform="translate(482.861328 0)"/>
    </g>
   </g>
   <g id="text_6">
    <!-- LLM planner -->
    <g style="fill: #1c1c1c" transform="translate(552.445375 105.400996) scale(0.076 -0.076)">
     <use xlink:href="#DejaVuSans-4c"/>
     <use xlink:href="#DejaVuSans-4c" transform="translate(55.712891 0)"/>
     <use xlink:href="#DejaVuSans-4d" transform="translate(111.425781 0)"/>
     <use xlink:href="#DejaVuSans-20" transform="translate(197.705078 0)"/>
     <use xlink:href="#DejaVuSans-70" transform="translate(229.492188 0)"/>
     <use xlink:href="#DejaVuSans-6c" transform="translate(292.96875 0)"/>
     <use xlink:href="#DejaVuSans-61" transform="translate(320.751953 0)"/>
     <use xlink:href="#DejaVuSans-6e" transform="translate(382.03125 0)"/>
     <use xlink:href="#DejaVuSans-6e" transform="translate(445.410156 0)"/>
     <use xlink:href="#DejaVuSans-65" transform="translate(508.789062 0)"/>
     <use xlink:href="#DejaVuSans-72" transform="translate(570.3125 0)"/>
    </g>
    <!-- (+ optional worker, toggleable) -->
    <g style="fill: #1c1c1c" transform="translate(516.172594 113.911334) scale(0.076 -0.076)">
     <use xlink:href="#DejaVuSans-28"/>
     <use xlink:href="#DejaVuSans-2b" transform="translate(39.013672 0)"/>
     <use xlink:href="#DejaVuSans-20" transform="translate(122.802734 0)"/>
     <use xlink:href="#DejaVuSans-6f" transform="translate(154.589844 0)"/>
     <use xlink:href="#DejaVuSans-70" transform="translate(215.771484 0)"/>
     <use xlink:href="#DejaVuSans-74" transform="translate(279.248047 0)"/>
     <use xlink:href="#DejaVuSans-69" transform="translate(318.457031 0)"/>
     <use xlink:href="#DejaVuSans-6f" transform="translate(346.240234 0)"/>
     <use xlink:href="#DejaVuSans-6e" transform="translate(407.421875 0)"/>
     <use xlink:href="#DejaVuSans-61" transform="translate(470.800781 0)"/>
     <use xlink:href="#DejaVuSans-6c" transform="translate(532.080078 0)"/>
     <use xlink:href="#DejaVuSans-20" transform="translate(559.863281 0)"/>
     <use xlink:href="#DejaVuSans-77" transform="translate(591.650391 0)"/>
     <use xlink:href="#DejaVuSans-6f" transform="translate(673.4375 0)"/>
     <use xlink:href="#DejaVuSans-72" transform="translate(734.619141 0)"/>
     <use xlink:href="#DejaVuSans-6b" transform="translate(775.732422 0)"/>
     <use xlink:href="#DejaVuSans-65" transform="translate(830.017578 0)"/>
     <use xlink:href="#DejaVuSans-72" transform="translate(891.541016 0)"/>
     <use xlink:href="#DejaVuSans-2c" transform="translate(932.654297 0)"/>
     <use xlink:href="#DejaVuSans-20" transform="translate(964.441406 0)"/>
     <use xlink:href="#DejaVuSans-74" transform="translate(996.228516 0)"/>
     <use xlink:href="#DejaVuSans-6f" transform="translate(1035.4375 0)"/>
     <use xlink:href="#DejaVuSans-67" transform="translate(1096.619141 0)"/>
     <use xlink:href="#DejaVuSans-67" transform="translate(1160.095703 0)"/>
     <use xlink:href="#DejaVuSans-6c" transform="translate(1223.572266 0)"/>
     <use xlink:href="#DejaVuSans-65" transform="translate(1251.355469 0)"/>
     <use xlink:href="#DejaVuSans-61" transform="translate(1312.878906 0)"/>
     <use xlink:href="#DejaVuSans-62" transform="translate(1374.158203 0)"/>
     <use xlink:href="#DejaVuSans-6c" transform="translate(1437.634766 0)"/>
     <use xlink:href="#DejaVuSans-65" transform="translate(1465.417969 0)"/>
     <use xlink:href="#DejaVuSans-29" transform="translate(1526.941406 0)"/>
    </g>
   </g>
   <g id="text_7">
    <!-- GPU mesh — planners -->
    <g style="fill: #4a86c5" transform="translate(316.303437 37.601344) scale(0.105 -0.105)">
     <defs>
      <path id="DejaVuSans-Bold-6d" d="M 3781 2919 
Q 3994 3244 4286 3414 
Q 4578 3584 4928 3584 
Q 5531 3584 5847 3212 
Q 6163 2841 6163 2131 
L 6163 0 
L 5038 0 
L 5038 1825 
Q 5041 1866 5042 1909 
Q 5044 1953 5044 2034 
Q 5044 2406 4934 2573 
Q 4825 2741 4581 2741 
Q 4263 2741 4089 2478 
Q 3916 2216 3909 1719 
L 3909 0 
L 2784 0 
L 2784 1825 
Q 2784 2406 2684 2573 
Q 2584 2741 2328 2741 
Q 2006 2741 1831 2477 
Q 1656 2213 1656 1722 
L 1656 0 
L 531 0 
L 531 3500 
L 1656 3500 
L 1656 2988 
Q 1863 3284 2130 3434 
Q 2397 3584 2719 3584 
Q 3081 3584 3359 3409 
Q 3638 3234 3781 2919 
z
" transform="scale(0.015625)"/>
      <path id="DejaVuSans-Bold-73" d="M 3272 3391 
L 3272 2541 
Q 2913 2691 2578 2766 
Q 2244 2841 1947 2841 
Q 1628 2841 1473 2761 
Q 1319 2681 1319 2516 
Q 1319 2381 1436 2309 
Q 1553 2238 1856 2203 
L 2053 2175 
Q 2913 2066 3209 1816 
Q 3506 1566 3506 1031 
Q 3506 472 3093 190 
Q 2681 -91 1863 -91 
Q 1516 -91 1145 -36 
Q 775 19 384 128 
L 384 978 
Q 719 816 1070 734 
Q 1422 653 1784 653 
Q 2113 653 2278 743 
Q 2444 834 2444 1013 
Q 2444 1163 2330 1236 
Q 2216 1309 1875 1350 
L 1678 1375 
Q 931 1469 631 1722 
Q 331 1975 331 2491 
Q 331 3047 712 3315 
Q 1094 3584 1881 3584 
Q 2191 3584 2531 3537 
Q 2872 3491 3272 3391 
z
" transform="scale(0.015625)"/>
      <path id="DejaVuSans-Bold-68" d="M 4056 2131 
L 4056 0 
L 2931 0 
L 2931 347 
L 2931 1625 
Q 2931 2084 2911 2256 
Q 2891 2428 2841 2509 
Q 2775 2619 2662 2680 
Q 2550 2741 2406 2741 
Q 2056 2741 1856 2470 
Q 1656 2200 1656 1722 
L 1656 0 
L 538 0 
L 538 4863 
L 1656 4863 
L 1656 2988 
Q 1909 3294 2193 3439 
Q 2478 3584 2822 3584 
Q 3428 3584 3742 3212 
Q 4056 2841 4056 2131 
z
" transform="scale(0.015625)"/>
      <path id="DejaVuSans-Bold-2014" d="M 344 2156 
L 6056 2156 
L 6056 1350 
L 344 1350 
L 344 2156 
z
" transform="scale(0.015625)"/>
      <path id="DejaVuSans-Bold-70" d="M 1656 506 
L 1656 -1331 
L 538 -1331 
L 538 3500 
L 1656 3500 
L 1656 2988 
Q 1888 3294 2169 3439 
Q 2450 3584 2816 3584 
Q 3463 3584 3878 3070 
Q 4294 2556 4294 1747 
Q 4294 938 3878 423 
Q 3463 -91 2816 -91 
Q 2450 -91 2169 54 
Q 1888 200 1656 506 
z
M 2400 2772 
Q 2041 2772 1848 2508 
Q 1656 2244 1656 1747 
Q 1656 1250 1848 986 
Q 2041 722 2400 722 
Q 2759 722 2948 984 
Q 3138 1247 3138 1747 
Q 3138 2247 2948 2509 
Q 2759 2772 2400 2772 
z
" transform="scale(0.015625)"/>
      <path id="DejaVuSans-Bold-6c" d="M 538 4863 
L 1656 4863 
L 1656 0 
L 538 0 
L 538 4863 
z
" transform="scale(0.015625)"/>
      <path id="DejaVuSans-Bold-61" d="M 2106 1575 
Q 1756 1575 1579 1456 
Q 1403 1338 1403 1106 
Q 1403 894 1545 773 
Q 1688 653 1941 653 
Q 2256 653 2472 879 
Q 2688 1106 2688 1447 
L 2688 1575 
L 2106 1575 
z
M 3816 1997 
L 3816 0 
L 2688 0 
L 2688 519 
Q 2463 200 2181 54 
Q 1900 -91 1497 -91 
Q 953 -91 614 226 
Q 275 544 275 1050 
Q 275 1666 698 1953 
Q 1122 2241 2028 2241 
L 2688 2241 
L 2688 2328 
Q 2688 2594 2478 2717 
Q 2269 2841 1825 2841 
Q 1466 2841 1156 2769 
Q 847 2697 581 2553 
L 581 3406 
Q 941 3494 1303 3539 
Q 1666 3584 2028 3584 
Q 2975 3584 3395 3211 
Q 3816 2838 3816 1997 
z
" transform="scale(0.015625)"/>
      <path id="DejaVuSans-Bold-72" d="M 3138 2547 
Q 2991 2616 2845 2648 
Q 2700 2681 2553 2681 
Q 2122 2681 1889 2404 
Q 1656 2128 1656 1613 
L 1656 0 
L 538 0 
L 538 3500 
L 1656 3500 
L 1656 2925 
Q 1872 3269 2151 3426 
Q 2431 3584 2822 3584 
Q 2878 3584 2943 3579 
Q 3009 3575 3134 3559 
L 3138 2547 
z
" transform="scale(0.015625)"/>
     </defs>
     <use xlink:href="#DejaVuSans-Bold-47"/>
     <use xlink:href="#DejaVuSans-Bold-50" transform="translate(82.080078 0)"/>
     <use xlink:href="#DejaVuSans-Bold-55" transform="translate(155.371094 0)"/>
     <use xlink:href="#DejaVuSans-Bold-20" transform="translate(236.572266 0)"/>
     <use xlink:href="#DejaVuSans-Bold-6d" transform="translate(271.386719 0)"/>
     <use xlink:href="#DejaVuSans-Bold-65" transform="translate(375.585938 0)"/>
     <use xlink:href="#DejaVuSans-Bold-73" transform="translate(443.408203 0)"/>
     <use xlink:href="#DejaVuSans-Bold-68" transform="translate(502.929688 0)"/>
     <use xlink:href="#DejaVuSans-Bold-20" transform="translate(574.121094 0)"/>
     <use xlink:href="#DejaVuSans-Bold-2014" transform="translate(608.935547 0)"/>
     <use xlink:href="#DejaVuSans-Bold-20" transform="translate(708.935547 0)"/>
     <use xlink:href="#DejaVuSans-Bold-70" transform="translate(743.75 0)"/>
     <use xlink:href="#DejaVuSans-Bold-6c" transform="translate(815.332031 0)"/>
     <use xlink:href="#DejaVuSans-Bold-61" transform="translate(849.609375 0)"/>
     <use xlink:href="#DejaVuSans-Bold-6e" transform="translate(917.089844 0)"/>
     <use xlink:href="#DejaVuSans-Bold-6e" transform="translate(988.28125 0)"/>
     <use xlink:href="#DejaVuSans-Bold-65" transform="translate(1059.472656 0)"/>
     <use xlink:href="#DejaVuSans-Bold-72" transform="translate(1127.294922 0)"/>
     <use xlink:href="#DejaVuSans-Bold-73" transform="translate(1176.611328 0)"/>
    </g>
   </g>
   <g id="text_8">
    <!-- Coordinator -->
    <g style="fill: #1c1c1c" transform="translate(342.648945 270.744481) scale(0.115 -0.115)">
     <defs>
      <path id="DejaVuSans-Bold-43" d="M 4288 256 
Q 3956 84 3597 -3 
Q 3238 -91 2847 -91 
Q 1681 -91 1000 561 
Q 319 1213 319 2328 
Q 319 3447 1000 4098 
Q 1681 4750 2847 4750 
Q 3238 4750 3597 4662 
Q 3956 4575 4288 4403 
L 4288 3438 
Q 3953 3666 3628 3772 
Q 3303 3878 2944 3878 
Q 2300 3878 1931 3465 
Q 1563 3053 1563 2328 
Q 1563 1606 1931 1193 
Q 2300 781 2944 781 
Q 3303 781 3628 887 
Q 3953 994 4288 1222 
L 4288 256 
z
" transform="scale(0.015625)"/>
      <path id="DejaVuSans-Bold-69" d="M 538 3500 
L 1656 3500 
L 1656 0 
L 538 0 
L 538 3500 
z
M 538 4863 
L 1656 4863 
L 1656 3950 
L 538 3950 
L 538 4863 
z
" transform="scale(0.015625)"/>
      <path id="DejaVuSans-Bold-74" d="M 1759 4494 
L 1759 3500 
L 2913 3500 
L 2913 2700 
L 1759 2700 
L 1759 1216 
Q 1759 972 1856 886 
Q 1953 800 2241 800 
L 2816 800 
L 2816 0 
L 1856 0 
Q 1194 0 917 276 
Q 641 553 641 1216 
L 641 2700 
L 84 2700 
L 84 3500 
L 641 3500 
L 641 4494 
L 1759 4494 
z
" transform="scale(0.015625)"/>
     </defs>
     <use xlink:href="#DejaVuSans-Bold-43"/>
     <use xlink:href="#DejaVuSans-Bold-6f" transform="translate(73.388672 0)"/>
     <use xlink:href="#DejaVuSans-Bold-6f" transform="translate(142.089844 0)"/>
     <use xlink:href="#DejaVuSans-Bold-72" transform="translate(210.791016 0)"/>
     <use xlink:href="#DejaVuSans-Bold-64" transform="translate(260.107422 0)"/>
     <use xlink:href="#DejaVuSans-Bold-69" transform="translate(331.689453 0)"/>
     <use xlink:href="#DejaVuSans-Bold-6e" transform="translate(365.966797 0)"/>
     <use xlink:href="#DejaVuSans-Bold-61" transform="translate(437.158203 0)"/>
     <use xlink:href="#DejaVuSans-Bold-74" transform="translate(504.638672 0)"/>
     <use xlink:href="#DejaVuSans-Bold-6f" transform="translate(552.441406 0)"/>
     <use xlink:href="#DejaVuSans-Bold-72" transform="translate(621.142578 0)"/>
    </g>
   </g>
   <g id="text_9">
    <!-- registration + join token   ·   work dispatch -->
    <g style="fill: #1c1c1c" transform="translate(295.69375 317.05085) scale(0.08 -0.08)">
     <defs>
      <path id="DejaVuSans-73" d="M 2834 3397 
L 2834 2853 
Q 2591 2978 2328 3040 
Q 2066 3103 1784 3103 
Q 1356 3103 1142 2972 
Q 928 2841 928 2578 
Q 928 2378 1081 2264 
Q 1234 2150 1697 2047 
L 1894 2003 
Q 2506 1872 2764 1633 
Q 3022 1394 3022 966 
Q 3022 478 2636 193 
Q 2250 -91 1575 -91 
Q 1294 -91 989 -36 
Q 684 19 347 128 
L 347 722 
Q 666 556 975 473 
Q 1284 391 1588 391 
Q 1994 391 2212 530 
Q 2431 669 2431 922 
Q 2431 1156 2273 1281 
Q 2116 1406 1581 1522 
L 1381 1569 
Q 847 1681 609 1914 
Q 372 2147 372 2553 
Q 372 3047 722 3315 
Q 1072 3584 1716 3584 
Q 2034 3584 2315 3537 
Q 2597 3491 2834 3397 
z
" transform="scale(0.015625)"/>
      <path id="DejaVuSans-6a" d="M 603 3500 
L 1178 3500 
L 1178 -63 
Q 1178 -731 923 -1031 
Q 669 -1331 103 -1331 
L -116 -1331 
L -116 -844 
L 38 -844 
Q 366 -844 484 -692 
Q 603 -541 603 -63 
L 603 3500 
z
M 603 4863 
L 1178 4863 
L 1178 4134 
L 603 4134 
L 603 4863 
z
" transform="scale(0.015625)"/>
      <path id="DejaVuSans-b7" d="M 684 2619 
L 1344 2619 
L 1344 1825 
L 684 1825 
L 684 2619 
z
" transform="scale(0.015625)"/>
      <path id="DejaVuSans-64" d="M 2906 2969 
L 2906 4863 
L 3481 4863 
L 3481 0 
L 2906 0 
L 2906 525 
Q 2725 213 2448 61 
Q 2172 -91 1784 -91 
Q 1150 -91 751 415 
Q 353 922 353 1747 
Q 353 2572 751 3078 
Q 1150 3584 1784 3584 
Q 2172 3584 2448 3432 
Q 2725 3281 2906 2969 
z
M 947 1747 
Q 947 1113 1208 752 
Q 1469 391 1925 391 
Q 2381 391 2643 752 
Q 2906 1113 2906 1747 
Q 2906 2381 2643 2742 
Q 2381 3103 1925 3103 
Q 1469 3103 1208 2742 
Q 947 2381 947 1747 
z
" transform="scale(0.015625)"/>
      <path id="DejaVuSans-63" d="M 3122 3366 
L 3122 2828 
Q 2878 2963 2633 3030 
Q 2388 3097 2138 3097 
Q 1578 3097 1268 2742 
Q 959 2388 959 1747 
Q 959 1106 1268 751 
Q 1578 397 2138 397 
Q 2388 397 2633 464 
Q 2878 531 3122 666 
L 3122 134 
Q 2881 22 2623 -34 
Q 2366 -91 2075 -91 
Q 1284 -91 818 406 
Q 353 903 353 1747 
Q 353 2603 823 3093 
Q 1294 3584 2113 3584 
Q 2378 3584 2631 3529 
Q 2884 3475 3122 3366 
z
" transform="scale(0.015625)"/>
      <path id="DejaVuSans-68" d="M 3513 2113 
L 3513 0 
L 2938 0 
L 2938 2094 
Q 2938 2591 2744 2837 
Q 2550 3084 2163 3084 
Q 1697 3084 1428 2787 
Q 1159 2491 1159 1978 
L 1159 0 
L 581 0 
L 581 4863 
L 1159 4863 
L 1159 2956 
Q 1366 3272 1645 3428 
Q 1925 3584 2291 3584 
Q 2894 3584 3203 3211 
Q 3513 2838 3513 2113 
z
" transform="scale(0.015625)"/>
     </defs>
     <use xlink:href="#DejaVuSans-72"/>
     <use xlink:href="#DejaVuSans-65" transform="translate(38.863281 0)"/>
     <use xlink:href="#DejaVuSans-67" transform="translate(100.386719 0)"/>
     <use xlink:href="#DejaVuSans-69" transform="translate(163.863281 0)"/>
     <use xlink:href="#DejaVuSans-73" transform="translate(191.646484 0)"/>
     <use xlink:href="#DejaVuSans-74" transform="translate(243.746094 0)"/>
     <use xlink:href="#DejaVuSans-72" transform="translate(282.955078 0)"/>
     <use xlink:href="#DejaVuSans-61" transform="translate(324.068359 0)"/>
     <use xlink:href="#DejaVuSans-74" transform="translate(385.347656 0)"/>
     <use xlink:href="#DejaVuSans-69" transform="translate(424.556641 0)"/>
     <use xlink:href="#DejaVuSans-6f" transform="translate(452.339844 0)"/>
     <use xlink:href="#DejaVuSans-6e" transform="translate(513.521484 0)"/>
     <use xlink:href="#DejaVuSans-20" transform="translate(576.900391 0)"/>
     <use xlink:href="#DejaVuSans-2b" transform="translate(608.6875 0)"/>
     <use xlink:href="#DejaVuSans-20" transform="translate(692.476562 0)"/>
     <use xlink:href="#DejaVuSans-6a" transform="translate(724.263672 0)"/>
     <use xlink:href="#DejaVuSans-6f" transform="translate(752.046875 0)"/>
     <use xlink:href="#DejaVuSans-69" transform="translate(813.228516 0)"/>
     <use xlink:href="#DejaVuSans-6e" transform="translate(841.011719 0)"/>
     <use xlink:href="#DejaVuSans-20" transform="translate(904.390625 0)"/>
     <use xlink:href="#DejaVuSans-74" transform="translate(936.177734 0)"/>
     <use xlink:href="#DejaVuSans-6f" transform="translate(975.386719 0)"/>
     <use xlink:href="#DejaVuSans-6b" transform="translate(1036.568359 0)"/>
     <use xlink:href="#DejaVuSans-65" transform="translate(1090.853516 0)"/>
     <use xlink:href="#DejaVuSans-6e" transform="translate(1152.376953 0)"/>
     <use xlink:href="#DejaVuSans-20" transform="translate(1215.755859 0)"/>
     <use xlink:href="#DejaVuSans-20" transform="translate(1247.542969 0)"/>
     <use xlink:href="#DejaVuSans-20" transform="translate(1279.330078 0)"/>
     <use xlink:href="#DejaVuSans-b7" transform="translate(1311.117188 0)"/>
     <use xlink:href="#DejaVuSans-20" transform="translate(1342.904297 0)"/>
     <use xlink:href="#DejaVuSans-20" transform="translate(1374.691406 0)"/>
     <use xlink:href="#DejaVuSans-20" transform="translate(1406.478516 0)"/>
     <use xlink:href="#DejaVuSans-77" transform="translate(1438.265625 0)"/>
     <use xlink:href="#DejaVuSans-6f" transform="translate(1520.052734 0)"/>
     <use xlink:href="#DejaVuSans-72" transform="translate(1581.234375 0)"/>
     <use xlink:href="#DejaVuSans-6b" transform="translate(1622.347656 0)"/>
     <use xlink:href="#DejaVuSans-20" transform="translate(1680.257812 0)"/>
     <use xlink:href="#DejaVuSans-64" transform="translate(1712.044922 0)"/>
     <use xlink:href="#DejaVuSans-69" transform="translate(1775.521484 0)"/>
     <use xlink:href="#DejaVuSans-73" transform="translate(1803.304688 0)"/>
     <use xlink:href="#DejaVuSans-70" transform="translate(1855.404297 0)"/>
     <use xlink:href="#DejaVuSans-61" transform="translate(1918.880859 0)"/>
     <use xlink:href="#DejaVuSans-74" transform="translate(1980.160156 0)"/>
     <use xlink:href="#DejaVuSans-63" transform="translate(2019.369141 0)"/>
     <use xlink:href="#DejaVuSans-68" transform="translate(2074.349609 0)"/>
    </g>
    <!-- divergence dedup   ·   plateau detection + rotation -->
    <g style="fill: #1c1c1c" transform="translate(279.308125 326.0091) scale(0.08 -0.08)">
     <defs>
      <path id="DejaVuSans-76" d="M 191 3500 
L 800 3500 
L 1894 563 
L 2988 3500 
L 3597 3500 
L 2284 0 
L 1503 0 
L 191 3500 
z
" transform="scale(0.015625)"/>
      <path id="DejaVuSans-75" d="M 544 1381 
L 544 3500 
L 1119 3500 
L 1119 1403 
Q 1119 906 1312 657 
Q 1506 409 1894 409 
Q 2359 409 2629 706 
Q 2900 1003 2900 1516 
L 2900 3500 
L 3475 3500 
L 3475 0 
L 2900 0 
L 2900 538 
Q 2691 219 2414 64 
Q 2138 -91 1772 -91 
Q 1169 -91 856 284 
Q 544 659 544 1381 
z
M 1991 3584 
L 1991 3584 
z
" transform="scale(0.015625)"/>
     </defs>
     <use xlink:href="#DejaVuSans-64"/>
     <use xlink:href="#DejaVuSans-69" transform="translate(63.476562 0)"/>
     <use xlink:href="#DejaVuSans-76" transform="translate(91.259766 0)"/>
     <use xlink:href="#DejaVuSans-65" transform="translate(150.439453 0)"/>
     <use xlink:href="#DejaVuSans-72" transform="translate(211.962891 0)"/>
     <use xlink:href="#DejaVuSans-67" transform="translate(251.326172 0)"/>
     <use xlink:href="#DejaVuSans-65" transform="translate(314.802734 0)"/>
     <use xlink:href="#DejaVuSans-6e" transform="translate(376.326172 0)"/>
     <use xlink:href="#DejaVuSans-63" transform="translate(439.705078 0)"/>
     <use xlink:href="#DejaVuSans-65" transform="translate(494.685547 0)"/>
     <use xlink:href="#DejaVuSans-20" transform="translate(556.208984 0)"/>
     <use xlink:href="#DejaVuSans-64" transform="translate(587.996094 0)"/>
     <use xlink:href="#DejaVuSans-65" transform="translate(651.472656 0)"/>
     <use xlink:href="#DejaVuSans-64" transform="translate(712.996094 0)"/>
     <use xlink:href="#DejaVuSans-75" transform="translate(776.472656 0)"/>
     <use xlink:href="#DejaVuSans-70" transform="translate(839.851562 0)"/>
     <use xlink:href="#DejaVuSans-20" transform="translate(903.328125 0)"/>
     <use xlink:href="#DejaVuSans-20" transform="translate(935.115234 0)"/>
     <use xlink:href="#DejaVuSans-20" transform="translate(966.902344 0)"/>
     <use xlink:href="#DejaVuSans-b7" transform="translate(998.689453 0)"/>
     <use xlink:href="#DejaVuSans-20" transform="translate(1030.476562 0)"/>
     <use xlink:href="#DejaVuSans-20" transform="translate(1062.263672 0)"/>
     <use xlink:href="#DejaVuSans-20" transform="translate(1094.050781 0)"/>
     <use xlink:href="#DejaVuSans-70" transform="translate(1125.837891 0)"/>
     <use xlink:href="#DejaVuSans-6c" transform="translate(1189.314453 0)"/>
     <use xlink:href="#DejaVuSans-61" transform="translate(1217.097656 0)"/>
     <use xlink:href="#DejaVuSans-74" transform="translate(1278.376953 0)"/>
     <use xlink:href="#DejaVuSans-65" transform="translate(1317.585938 0)"/>
     <use xlink:href="#DejaVuSans-61" transform="translate(1379.109375 0)"/>
     <use xlink:href="#DejaVuSans-75" transform="translate(1440.388672 0)"/>
     <use xlink:href="#DejaVuSans-20" transform="translate(1503.767578 0)"/>
     <use xlink:href="#DejaVuSans-64" transform="translate(1535.554688 0)"/>
     <use xlink:href="#DejaVuSans-65" transform="translate(1599.03125 0)"/>
     <use xlink:href="#DejaVuSans-74" transform="translate(1660.554688 0)"/>
     <use xlink:href="#DejaVuSans-65" transform="translate(1699.763672 0)"/>
     <use xlink:href="#DejaVuSans-63" transform="translate(1761.287109 0)"/>
     <use xlink:href="#DejaVuSans-74" transform="translate(1816.267578 0)"/>
     <use xlink:href="#DejaVuSans-69" transform="translate(1855.476562 0)"/>
     <use xlink:href="#DejaVuSans-6f" transform="translate(1883.259766 0)"/>
     <use xlink:href="#DejaVuSans-6e" transform="translate(1944.441406 0)"/>
     <use xlink:href="#DejaVuSans-20" transform="translate(2007.820312 0)"/>
     <use xlink:href="#DejaVuSans-2b" transform="translate(2039.607422 0)"/>
     <use xlink:href="#DejaVuSans-20" transform="translate(2123.396484 0)"/>
     <use xlink:href="#DejaVuSans-72" transform="translate(2155.183594 0)"/>
     <use xlink:href="#DejaVuSans-6f" transform="translate(2194.046875 0)"/>
     <use xlink:href="#DejaVuSans-74" transform="translate(2255.228516 0)"/>
     <use xlink:href="#DejaVuSans-61" transform="translate(2294.4375 0)"/>
     <use xlink:href="#DejaVuSans-74" transform="translate(2355.716797 0)"/>
     <use xlink:href="#DejaVuSans-69" transform="translate(2394.925781 0)"/>
     <use xlink:href="#DejaVuSans-6f" transform="translate(2422.708984 0)"/>
     <use xlink:href="#DejaVuSans-6e" transform="translate(2483.890625 0)"/>
    </g>
    <!-- owns the corpus   ·   serves the dashboard -->
    <g style="fill: #1c1c1c" transform="translate(296.0375 334.96735) scale(0.08 -0.08)">
     <use xlink:href="#DejaVuSans-6f"/>
     <use xlink:href="#DejaVuSans-77" transform="translate(61.181641 0)"/>
     <use xlink:href="#DejaVuSans-6e" transform="translate(142.96875 0)"/>
     <use xlink:href="#DejaVuSans-73" transform="translate(206.347656 0)"/>
     <use xlink:href="#DejaVuSans-20" transform="translate(258.447266 0)"/>
     <use xlink:href="#DejaVuSans-74" transform="translate(290.234375 0)"/>
     <use xlink:href="#DejaVuSans-68" transform="translate(329.443359 0)"/>
     <use xlink:href="#DejaVuSans-65" transform="translate(392.822266 0)"/>
     <use xlink:href="#DejaVuSans-20" transform="translate(454.345703 0)"/>
     <use xlink:href="#DejaVuSans-63" transform="translate(486.132812 0)"/>
     <use xlink:href="#DejaVuSans-6f" transform="translate(541.113281 0)"/>
     <use xlink:href="#DejaVuSans-72" transform="translate(602.294922 0)"/>
     <use xlink:href="#DejaVuSans-70" transform="translate(643.408203 0)"/>
     <use xlink:href="#DejaVuSans-75" transform="translate(706.884766 0)"/>
     <use xlink:href="#DejaVuSans-73" transform="translate(770.263672 0)"/>
     <use xlink:href="#DejaVuSans-20" transform="translate(822.363281 0)"/>
     <use xlink:href="#DejaVuSans-20" transform="translate(854.150391 0)"/>
     <use xlink:href="#DejaVuSans-20" transform="translate(885.9375 0)"/>
     <use xlink:href="#DejaVuSans-b7" transform="translate(917.724609 0)"/>
     <use xlink:href="#DejaVuSans-20" transform="translate(949.511719 0)"/>
     <use xlink:href="#DejaVuSans-20" transform="translate(981.298828 0)"/>
     <use xlink:href="#DejaVuSans-20" transform="translate(1013.085938 0)"/>
     <use xlink:href="#DejaVuSans-73" transform="translate(1044.873047 0)"/>
     <use xlink:href="#DejaVuSans-65" transform="translate(1096.972656 0)"/>
     <use xlink:href="#DejaVuSans-72" transform="translate(1158.496094 0)"/>
     <use xlink:href="#DejaVuSans-76" transform="translate(1199.609375 0)"/>
     <use xlink:href="#DejaVuSans-65" transform="translate(1258.789062 0)"/>
     <use xlink:href="#DejaVuSans-73" transform="translate(1320.3125 0)"/>
     <use xlink:href="#DejaVuSans-20" transform="translate(1372.412109 0)"/>
     <use xlink:href="#DejaVuSans-74" transform="translate(1404.199219 0)"/>
     <use xlink:href="#DejaVuSans-68" transform="translate(1443.408203 0)"/>
     <use xlink:href="#DejaVuSans-65" transform="translate(1506.787109 0)"/>
     <use xlink:href="#DejaVuSans-20" transform="translate(1568.310547 0)"/>
     <use xlink:href="#DejaVuSans-64" transform="translate(1600.097656 0)"/>
     <use xlink:href="#DejaVuSans-61" transform="translate(1663.574219 0)"/>
     <use xlink:href="#DejaVuSans-73" transform="translate(1724.853516 0)"/>
     <use xlink:href="#DejaVuSans-68" transform="translate(1776.953125 0)"/>
     <use xlink:href="#DejaVuSans-62" transform="translate(1840.332031 0)"/>
     <use xlink:href="#DejaVuSans-6f" transform="translate(1903.808594 0)"/>
     <use xlink:href="#DejaVuSans-61" transform="translate(1964.990234 0)"/>
     <use xlink:href="#DejaVuSans-72" transform="translate(2026.269531 0)"/>
     <use xlink:href="#DejaVuSans-64" transform="translate(2065.632812 0)"/>
    </g>
   </g>
   <g id="text_10">
    <!-- Corpus -->
    <g style="fill: #1c1c1c" transform="translate(639.259844 300.752606) scale(0.095 -0.095)">
     <defs>
      <path id="DejaVuSans-Bold-75" d="M 500 1363 
L 500 3500 
L 1625 3500 
L 1625 3150 
Q 1625 2866 1622 2436 
Q 1619 2006 1619 1863 
Q 1619 1441 1641 1255 
Q 1663 1069 1716 984 
Q 1784 875 1895 815 
Q 2006 756 2150 756 
Q 2500 756 2700 1025 
Q 2900 1294 2900 1772 
L 2900 3500 
L 4019 3500 
L 4019 0 
L 2900 0 
L 2900 506 
Q 2647 200 2364 54 
Q 2081 -91 1741 -91 
Q 1134 -91 817 281 
Q 500 653 500 1363 
z
" transform="scale(0.015625)"/>
     </defs>
     <use xlink:href="#DejaVuSans-Bold-43"/>
     <use xlink:href="#DejaVuSans-Bold-6f" transform="translate(73.388672 0)"/>
     <use xlink:href="#DejaVuSans-Bold-72" transform="translate(142.089844 0)"/>
     <use xlink:href="#DejaVuSans-Bold-70" transform="translate(191.40625 0)"/>
     <use xlink:href="#DejaVuSans-Bold-75" transform="translate(262.988281 0)"/>
     <use xlink:href="#DejaVuSans-Bold-73" transform="translate(334.179688 0)"/>
    </g>
   </g>
   <g id="text_11">
    <!-- RAG memory + findings -->
    <g style="fill: #1c1c1c" transform="translate(612.239469 330.811556) scale(0.076 -0.076)">
     <defs>
      <path id="DejaVuSans-52" d="M 2841 2188 
Q 3044 2119 3236 1894 
Q 3428 1669 3622 1275 
L 4263 0 
L 3584 0 
L 2988 1197 
Q 2756 1666 2539 1819 
Q 2322 1972 1947 1972 
L 1259 1972 
L 1259 0 
L 628 0 
L 628 4666 
L 2053 4666 
Q 2853 4666 3247 4331 
Q 3641 3997 3641 3322 
Q 3641 2881 3436 2590 
Q 3231 2300 2841 2188 
z
M 1259 4147 
L 1259 2491 
L 2053 2491 
Q 2509 2491 2742 2702 
Q 2975 2913 2975 3322 
Q 2975 3731 2742 3939 
Q 2509 4147 2053 4147 
L 1259 4147 
z
" transform="scale(0.015625)"/>
      <path id="DejaVuSans-41" d="M 2188 4044 
L 1331 1722 
L 3047 1722 
L 2188 4044 
z
M 1831 4666 
L 2547 4666 
L 4325 0 
L 3669 0 
L 3244 1197 
L 1141 1197 
L 716 0 
L 50 0 
L 1831 4666 
z
" transform="scale(0.015625)"/>
      <path id="DejaVuSans-47" d="M 3809 666 
L 3809 1919 
L 2778 1919 
L 2778 2438 
L 4434 2438 
L 4434 434 
Q 4069 175 3628 42 
Q 3188 -91 2688 -91 
Q 1594 -91 976 548 
Q 359 1188 359 2328 
Q 359 3472 976 4111 
Q 1594 4750 2688 4750 
Q 3144 4750 3555 4637 
Q 3966 4525 4313 4306 
L 4313 3634 
Q 3963 3931 3569 4081 
Q 3175 4231 2741 4231 
Q 1884 4231 1454 3753 
Q 1025 3275 1025 2328 
Q 1025 1384 1454 906 
Q 1884 428 2741 428 
Q 3075 428 3337 486 
Q 3600 544 3809 666 
z
" transform="scale(0.015625)"/>
      <path id="DejaVuSans-6d" d="M 3328 2828 
Q 3544 3216 3844 3400 
Q 4144 3584 4550 3584 
Q 5097 3584 5394 3201 
Q 5691 2819 5691 2113 
L 5691 0 
L 5113 0 
L 5113 2094 
Q 5113 2597 4934 2840 
Q 4756 3084 4391 3084 
Q 3944 3084 3684 2787 
Q 3425 2491 3425 1978 
L 3425 0 
L 2847 0 
L 2847 2094 
Q 2847 2600 2669 2842 
Q 2491 3084 2119 3084 
Q 1678 3084 1418 2786 
Q 1159 2488 1159 1978 
L 1159 0 
L 581 0 
L 581 3500 
L 1159 3500 
L 1159 2956 
Q 1356 3278 1631 3431 
Q 1906 3584 2284 3584 
Q 2666 3584 2933 3390 
Q 3200 3197 3328 2828 
z
" transform="scale(0.015625)"/>
      <path id="DejaVuSans-79" d="M 2059 -325 
Q 1816 -950 1584 -1140 
Q 1353 -1331 966 -1331 
L 506 -1331 
L 506 -850 
L 844 -850 
Q 1081 -850 1212 -737 
Q 1344 -625 1503 -206 
L 1606 56 
L 191 3500 
L 800 3500 
L 1894 763 
L 2988 3500 
L 3597 3500 
L 2059 -325 
z
" transform="scale(0.015625)"/>
      <path id="DejaVuSans-66" d="M 2375 4863 
L 2375 4384 
L 1825 4384 
Q 1516 4384 1395 4259 
Q 1275 4134 1275 3809 
L 1275 3500 
L 2222 3500 
L 2222 3053 
L 1275 3053 
L 1275 0 
L 697 0 
L 697 3053 
L 147 3053 
L 147 3500 
L 697 3500 
L 697 3744 
Q 697 4328 969 4595 
Q 1241 4863 1831 4863 
L 2375 4863 
z
" transform="scale(0.015625)"/>
     </defs>
     <use xlink:href="#DejaVuSans-52"/>
     <use xlink:href="#DejaVuSans-41" transform="translate(65.482422 0)"/>
     <use xlink:href="#DejaVuSans-47" transform="translate(132.140625 0)"/>
     <use xlink:href="#DejaVuSans-20" transform="translate(209.630859 0)"/>
     <use xlink:href="#DejaVuSans-6d" transform="translate(241.417969 0)"/>
     <use xlink:href="#DejaVuSans-65" transform="translate(338.830078 0)"/>
     <use xlink:href="#DejaVuSans-6d" transform="translate(400.353516 0)"/>
     <use xlink:href="#DejaVuSans-6f" transform="translate(497.765625 0)"/>
     <use xlink:href="#DejaVuSans-72" transform="translate(558.947266 0)"/>
     <use xlink:href="#DejaVuSans-79" transform="translate(600.060547 0)"/>
     <use xlink:href="#DejaVuSans-20" transform="translate(659.240234 0)"/>
     <use xlink:href="#DejaVuSans-2b" transform="translate(691.027344 0)"/>
     <use xlink:href="#DejaVuSans-20" transform="translate(774.816406 0)"/>
     <use xlink:href="#DejaVuSans-66" transform="translate(806.603516 0)"/>
     <use xlink:href="#DejaVuSans-69" transform="translate(841.808594 0)"/>
     <use xlink:href="#DejaVuSans-6e" transform="translate(869.591797 0)"/>
     <use xlink:href="#DejaVuSans-64" transform="translate(932.970703 0)"/>
     <use xlink:href="#DejaVuSans-69" transform="translate(996.447266 0)"/>
     <use xlink:href="#DejaVuSans-6e" transform="translate(1024.230469 0)"/>
     <use xlink:href="#DejaVuSans-67" transform="translate(1087.609375 0)"/>
     <use xlink:href="#DejaVuSans-73" transform="translate(1151.085938 0)"/>
    </g>
    <!-- (4 TB disk) -->
    <g style="fill: #1c1c1c" transform="translate(637.585469 339.321894) scale(0.076 -0.076)">
     <defs>
      <path id="DejaVuSans-34" d="M 2419 4116 
L 825 1625 
L 2419 1625 
L 2419 4116 
z
M 2253 4666 
L 3047 4666 
L 3047 1625 
L 3713 1625 
L 3713 1100 
L 3047 1100 
L 3047 0 
L 2419 0 
L 2419 1100 
L 313 1100 
L 313 1709 
L 2253 4666 
z
" transform="scale(0.015625)"/>
      <path id="DejaVuSans-54" d="M -19 4666 
L 3928 4666 
L 3928 4134 
L 2272 4134 
L 2272 0 
L 1638 0 
L 1638 4134 
L -19 4134 
L -19 4666 
z
" transform="scale(0.015625)"/>
      <path id="DejaVuSans-42" d="M 1259 2228 
L 1259 519 
L 2272 519 
Q 2781 519 3026 730 
Q 3272 941 3272 1375 
Q 3272 1813 3026 2020 
Q 2781 2228 2272 2228 
L 1259 2228 
z
M 1259 4147 
L 1259 2741 
L 2194 2741 
Q 2656 2741 2882 2914 
Q 3109 3088 3109 3444 
Q 3109 3797 2882 3972 
Q 2656 4147 2194 4147 
L 1259 4147 
z
M 628 4666 
L 2241 4666 
Q 2963 4666 3353 4366 
Q 3744 4066 3744 3513 
Q 3744 3084 3544 2831 
Q 3344 2578 2956 2516 
Q 3422 2416 3680 2098 
Q 3938 1781 3938 1306 
Q 3938 681 3513 340 
Q 3088 0 2303 0 
L 628 0 
L 628 4666 
z
" transform="scale(0.015625)"/>
     </defs>
     <use xlink:href="#DejaVuSans-28"/>
     <use xlink:href="#DejaVuSans-34" transform="translate(39.013672 0)"/>
     <use xlink:href="#DejaVuSans-20" transform="translate(102.636719 0)"/>
     <use xlink:href="#DejaVuSans-54" transform="translate(134.423828 0)"/>
     <use xlink:href="#DejaVuSans-42" transform="translate(195.507812 0)"/>
     <use xlink:href="#DejaVuSans-20" transform="translate(264.111328 0)"/>
     <use xlink:href="#DejaVuSans-64" transform="translate(295.898438 0)"/>
     <use xlink:href="#DejaVuSans-69" transform="translate(359.375 0)"/>
     <use xlink:href="#DejaVuSans-73" transform="translate(387.158203 0)"/>
     <use xlink:href="#DejaVuSans-6b" transform="translate(439.257812 0)"/>
     <use xlink:href="#DejaVuSans-29" transform="translate(497.167969 0)"/>
    </g>
   </g>
   <g id="text_12">
    <!-- Dashboard -->
    <g style="fill: #1c1c1c" transform="translate(75.47168 300.752606) scale(0.095 -0.095)">
     <defs>
      <path id="DejaVuSans-Bold-44" d="M 1791 3756 
L 1791 909 
L 2222 909 
Q 2959 909 3348 1275 
Q 3738 1641 3738 2338 
Q 3738 3031 3350 3393 
Q 2963 3756 2222 3756 
L 1791 3756 
z
M 588 4666 
L 1856 4666 
Q 2919 4666 3439 4514 
Q 3959 4363 4331 4000 
Q 4659 3684 4818 3271 
Q 4978 2859 4978 2338 
Q 4978 1809 4818 1395 
Q 4659 981 4331 666 
Q 3956 303 3431 151 
Q 2906 0 1856 0 
L 588 0 
L 588 4666 
z
" transform="scale(0.015625)"/>
      <path id="DejaVuSans-Bold-62" d="M 2400 722 
Q 2759 722 2948 984 
Q 3138 1247 3138 1747 
Q 3138 2247 2948 2509 
Q 2759 2772 2400 2772 
Q 2041 2772 1848 2508 
Q 1656 2244 1656 1747 
Q 1656 1250 1848 986 
Q 2041 722 2400 722 
z
M 1656 2988 
Q 1888 3294 2169 3439 
Q 2450 3584 2816 3584 
Q 3463 3584 3878 3070 
Q 4294 2556 4294 1747 
Q 4294 938 3878 423 
Q 3463 -91 2816 -91 
Q 2450 -91 2169 54 
Q 1888 200 1656 506 
L 1656 0 
L 538 0 
L 538 4863 
L 1656 4863 
L 1656 2988 
z
" transform="scale(0.015625)"/>
     </defs>
     <use xlink:href="#DejaVuSans-Bold-44"/>
     <use xlink:href="#DejaVuSans-Bold-61" transform="translate(83.007812 0)"/>
     <use xlink:href="#DejaVuSans-Bold-73" transform="translate(150.488281 0)"/>
     <use xlink:href="#DejaVuSans-Bold-68" transform="translate(210.009766 0)"/>
     <use xlink:href="#DejaVuSans-Bold-62" transform="translate(281.201172 0)"/>
     <use xlink:href="#DejaVuSans-Bold-6f" transform="translate(352.783203 0)"/>
     <use xlink:href="#DejaVuSans-Bold-61" transform="translate(421.484375 0)"/>
     <use xlink:href="#DejaVuSans-Bold-72" transform="translate(488.964844 0)"/>
     <use xlink:href="#DejaVuSans-Bold-64" transform="translate(538.28125 0)"/>
    </g>
   </g>
   <g id="text_13">
    <!-- node loads · progress -->
    <g style="fill: #1c1c1c" transform="translate(63.62325 330.811556) scale(0.076 -0.076)">
     <use xlink:href="#DejaVuSans-6e"/>
     <use xlink:href="#DejaVuSans-6f" transform="translate(63.378906 0)"/>
     <use xlink:href="#DejaVuSans-64" transform="translate(124.560547 0)"/>
     <use xlink:href="#DejaVuSans-65" transform="translate(188.037109 0)"/>
     <use xlink:href="#DejaVuSans-20" transform="translate(249.560547 0)"/>
     <use xlink:href="#DejaVuSans-6c" transform="translate(281.347656 0)"/>
     <use xlink:href="#DejaVuSans-6f" transform="translate(309.130859 0)"/>
     <use xlink:href="#DejaVuSans-61" transform="translate(370.3125 0)"/>
     <use xlink:href="#DejaVuSans-64" transform="translate(431.591797 0)"/>
     <use xlink:href="#DejaVuSans-73" transform="translate(495.068359 0)"/>
     <use xlink:href="#DejaVuSans-20" transform="translate(547.167969 0)"/>
     <use xlink:href="#DejaVuSans-b7" transform="translate(578.955078 0)"/>
     <use xlink:href="#DejaVuSans-20" transform="translate(610.742188 0)"/>
     <use xlink:href="#DejaVuSans-70" transform="translate(642.529297 0)"/>
     <use xlink:href="#DejaVuSans-72" transform="translate(706.005859 0)"/>
     <use xlink:href="#DejaVuSans-6f" transform="translate(744.869141 0)"/>
     <use xlink:href="#DejaVuSans-67" transform="translate(806.050781 0)"/>
     <use xlink:href="#DejaVuSans-72" transform="translate(869.527344 0)"/>
     <use xlink:href="#DejaVuSans-65" transform="translate(908.390625 0)"/>
     <use xlink:href="#DejaVuSans-73" transform="translate(969.914062 0)"/>
     <use xlink:href="#DejaVuSans-73" transform="translate(1022.013672 0)"/>
    </g>
    <!-- findings · fleet stats -->
    <g style="fill: #1c1c1c" transform="translate(66.712531 339.321894) scale(0.076 -0.076)">
     <use xlink:href="#DejaVuSans-66"/>
     <use xlink:href="#DejaVuSans-69" transform="translate(35.205078 0)"/>
     <use xlink:href="#DejaVuSans-6e" transform="translate(62.988281 0)"/>
     <use xlink:href="#DejaVuSans-64" transform="translate(126.367188 0)"/>
     <use xlink:href="#DejaVuSans-69" transform="translate(189.84375 0)"/>
     <use xlink:href="#DejaVuSans-6e" transform="translate(217.626953 0)"/>
     <use xlink:href="#DejaVuSans-67" transform="translate(281.005859 0)"/>
     <use xlink:href="#DejaVuSans-73" transform="translate(344.482422 0)"/>
     <use xlink:href="#DejaVuSans-20" transform="translate(396.582031 0)"/>
     <use xlink:href="#DejaVuSans-b7" transform="translate(428.369141 0)"/>
     <use xlink:href="#DejaVuSans-20" transform="translate(460.15625 0)"/>
     <use xlink:href="#DejaVuSans-66" transform="translate(491.943359 0)"/>
     <use xlink:href="#DejaVuSans-6c" transform="translate(527.148438 0)"/>
     <use xlink:href="#DejaVuSans-65" transform="translate(554.931641 0)"/>
     <use xlink:href="#DejaVuSans-65" transform="translate(616.455078 0)"/>
     <use xlink:href="#DejaVuSans-74" transform="translate(677.978516 0)"/>
     <use xlink:href="#DejaVuSans-20" transform="translate(717.1875 0)"/>
     <use xlink:href="#DejaVuSans-73" transform="translate(748.974609 0)"/>
     <use xlink:href="#DejaVuSans-74" transform="translate(801.074219 0)"/>
     <use xlink:href="#DejaVuSans-61" transform="translate(840.283203 0)"/>
     <use xlink:href="#DejaVuSans-74" transform="translate(901.5625 0)"/>
     <use xlink:href="#DejaVuSans-73" transform="translate(940.771484 0)"/>
    </g>
   </g>
   <g id="text_14">
    <!-- CPU worker -->
    <g style="fill: #1c1c1c" transform="translate(110.769063 524.696286) scale(0.095 -0.095)">
     <defs>
      <path id="DejaVuSans-Bold-77" d="M 225 3500 
L 1313 3500 
L 1900 1088 
L 2491 3500 
L 3425 3500 
L 4013 1113 
L 4603 3500 
L 5691 3500 
L 4769 0 
L 3547 0 
L 2956 2406 
L 2369 0 
L 1147 0 
L 225 3500 
z
" transform="scale(0.015625)"/>
      <path id="DejaVuSans-Bold-6b" d="M 538 4863 
L 1656 4863 
L 1656 2216 
L 2944 3500 
L 4244 3500 
L 2534 1894 
L 4378 0 
L 3022 0 
L 1656 1459 
L 1656 0 
L 538 0 
L 538 4863 
z
" transform="scale(0.015625)"/>
     </defs>
     <use xlink:href="#DejaVuSans-Bold-43"/>
     <use xlink:href="#DejaVuSans-Bold-50" transform="translate(73.388672 0)"/>
     <use xlink:href="#DejaVuSans-Bold-55" transform="translate(146.679688 0)"/>
     <use xlink:href="#DejaVuSans-Bold-20" transform="translate(227.880859 0)"/>
     <use xlink:href="#DejaVuSans-Bold-77" transform="translate(262.695312 0)"/>
     <use xlink:href="#DejaVuSans-Bold-6f" transform="translate(355.078125 0)"/>
     <use xlink:href="#DejaVuSans-Bold-72" transform="translate(423.779297 0)"/>
     <use xlink:href="#DejaVuSans-Bold-6b" transform="translate(473.095703 0)"/>
     <use xlink:href="#DejaVuSans-Bold-65" transform="translate(536.974609 0)"/>
     <use xlink:href="#DejaVuSans-Bold-72" transform="translate(604.796875 0)"/>
    </g>
   </g>
   <g id="text_15">
    <!-- FuzzyVM generate -->
    <g style="fill: #1c1c1c" transform="translate(106.915625 545.464996) scale(0.076 -0.076)">
     <defs>
      <path id="DejaVuSans-46" d="M 628 4666 
L 3309 4666 
L 3309 4134 
L 1259 4134 
L 1259 2759 
L 3109 2759 
L 3109 2228 
L 1259 2228 
L 1259 0 
L 628 0 
L 628 4666 
z
" transform="scale(0.015625)"/>
      <path id="DejaVuSans-7a" d="M 353 3500 
L 3084 3500 
L 3084 2975 
L 922 459 
L 3084 459 
L 3084 0 
L 275 0 
L 275 525 
L 2438 3041 
L 353 3041 
L 353 3500 
z
" transform="scale(0.015625)"/>
      <path id="DejaVuSans-56" d="M 1831 0 
L 50 4666 
L 709 4666 
L 2188 738 
L 3669 4666 
L 4325 4666 
L 2547 0 
L 1831 0 
z
" transform="scale(0.015625)"/>
     </defs>
     <use xlink:href="#DejaVuSans-46"/>
     <use xlink:href="#DejaVuSans-75" transform="translate(52.019531 0)"/>
     <use xlink:href="#DejaVuSans-7a" transform="translate(115.398438 0)"/>
     <use xlink:href="#DejaVuSans-7a" transform="translate(167.888672 0)"/>
     <use xlink:href="#DejaVuSans-79" transform="translate(220.378906 0)"/>
     <use xlink:href="#DejaVuSans-56" transform="translate(279.558594 0)"/>
     <use xlink:href="#DejaVuSans-4d" transform="translate(347.966797 0)"/>
     <use xlink:href="#DejaVuSans-20" transform="translate(434.246094 0)"/>
     <use xlink:href="#DejaVuSans-67" transform="translate(466.033203 0)"/>
     <use xlink:href="#DejaVuSans-65" transform="translate(529.509766 0)"/>
     <use xlink:href="#DejaVuSans-6e" transform="translate(591.033203 0)"/>
     <use xlink:href="#DejaVuSans-65" transform="translate(654.412109 0)"/>
     <use xlink:href="#DejaVuSans-72" transform="translate(715.935547 0)"/>
     <use xlink:href="#DejaVuSans-61" transform="translate(757.048828 0)"/>
     <use xlink:href="#DejaVuSans-74" transform="translate(818.328125 0)"/>
     <use xlink:href="#DejaVuSans-65" transform="translate(857.537109 0)"/>
    </g>
    <!-- + goevmlab diff -->
    <g style="fill: #1c1c1c" transform="translate(111.27375 553.975334) scale(0.076 -0.076)">
     <use xlink:href="#DejaVuSans-2b"/>
     <use xlink:href="#DejaVuSans-20" transform="translate(83.789062 0)"/>
     <use xlink:href="#DejaVuSans-67" transform="translate(115.576172 0)"/>
     <use xlink:href="#DejaVuSans-6f" transform="translate(179.052734 0)"/>
     <use xlink:href="#DejaVuSans-65" transform="translate(240.234375 0)"/>
     <use xlink:href="#DejaVuSans-76" transform="translate(301.757812 0)"/>
     <use xlink:href="#DejaVuSans-6d" transform="translate(360.9375 0)"/>
     <use xlink:href="#DejaVuSans-6c" transform="translate(458.349609 0)"/>
     <use xlink:href="#DejaVuSans-61" transform="translate(486.132812 0)"/>
     <use xlink:href="#DejaVuSans-62" transform="translate(547.412109 0)"/>
     <use xlink:href="#DejaVuSans-20" transform="translate(610.888672 0)"/>
     <use xlink:href="#DejaVuSans-64" transform="translate(642.675781 0)"/>
     <use xlink:href="#DejaVuSans-69" transform="translate(706.152344 0)"/>
     <use xlink:href="#DejaVuSans-66" transform="translate(733.935547 0)"/>
     <use xlink:href="#DejaVuSans-66" transform="translate(769.140625 0)"/>
    </g>
   </g>
   <g id="text_16">
    <!-- CPU worker -->
    <g style="fill: #1c1c1c" transform="translate(267.849063 524.696286) scale(0.095 -0.095)">
     <use xlink:href="#DejaVuSans-Bold-43"/>
     <use xlink:href="#DejaVuSans-Bold-50" transform="translate(73.388672 0)"/>
     <use xlink:href="#DejaVuSans-Bold-55" transform="translate(146.679688 0)"/>
     <use xlink:href="#DejaVuSans-Bold-20" transform="translate(227.880859 0)"/>
     <use xlink:href="#DejaVuSans-Bold-77" transform="translate(262.695312 0)"/>
     <use xlink:href="#DejaVuSans-Bold-6f" transform="translate(355.078125 0)"/>
     <use xlink:href="#DejaVuSans-Bold-72" transform="translate(423.779297 0)"/>
     <use xlink:href="#DejaVuSans-Bold-6b" transform="translate(473.095703 0)"/>
     <use xlink:href="#DejaVuSans-Bold-65" transform="translate(536.974609 0)"/>
     <use xlink:href="#DejaVuSans-Bold-72" transform="translate(604.796875 0)"/>
    </g>
   </g>
   <g id="text_17">
    <!-- FuzzyVM generate -->
    <g style="fill: #1c1c1c" transform="translate(263.995625 545.464996) scale(0.076 -0.076)">
     <use xlink:href="#DejaVuSans-46"/>
     <use xlink:href="#DejaVuSans-75" transform="translate(52.019531 0)"/>
     <use xlink:href="#DejaVuSans-7a" transform="translate(115.398438 0)"/>
     <use xlink:href="#DejaVuSans-7a" transform="translate(167.888672 0)"/>
     <use xlink:href="#DejaVuSans-79" transform="translate(220.378906 0)"/>
     <use xlink:href="#DejaVuSans-56" transform="translate(279.558594 0)"/>
     <use xlink:href="#DejaVuSans-4d" transform="translate(347.966797 0)"/>
     <use xlink:href="#DejaVuSans-20" transform="translate(434.246094 0)"/>
     <use xlink:href="#DejaVuSans-67" transform="translate(466.033203 0)"/>
     <use xlink:href="#DejaVuSans-65" transform="translate(529.509766 0)"/>
     <use xlink:href="#DejaVuSans-6e" transform="translate(591.033203 0)"/>
     <use xlink:href="#DejaVuSans-65" transform="translate(654.412109 0)"/>
     <use xlink:href="#DejaVuSans-72" transform="translate(715.935547 0)"/>
     <use xlink:href="#DejaVuSans-61" transform="translate(757.048828 0)"/>
     <use xlink:href="#DejaVuSans-74" transform="translate(818.328125 0)"/>
     <use xlink:href="#DejaVuSans-65" transform="translate(857.537109 0)"/>
    </g>
    <!-- + goevmlab diff -->
    <g style="fill: #1c1c1c" transform="translate(268.35375 553.975334) scale(0.076 -0.076)">
     <use xlink:href="#DejaVuSans-2b"/>
     <use xlink:href="#DejaVuSans-20" transform="translate(83.789062 0)"/>
     <use xlink:href="#DejaVuSans-67" transform="translate(115.576172 0)"/>
     <use xlink:href="#DejaVuSans-6f" transform="translate(179.052734 0)"/>
     <use xlink:href="#DejaVuSans-65" transform="translate(240.234375 0)"/>
     <use xlink:href="#DejaVuSans-76" transform="translate(301.757812 0)"/>
     <use xlink:href="#DejaVuSans-6d" transform="translate(360.9375 0)"/>
     <use xlink:href="#DejaVuSans-6c" transform="translate(458.349609 0)"/>
     <use xlink:href="#DejaVuSans-61" transform="translate(486.132812 0)"/>
     <use xlink:href="#DejaVuSans-62" transform="translate(547.412109 0)"/>
     <use xlink:href="#DejaVuSans-20" transform="translate(610.888672 0)"/>
     <use xlink:href="#DejaVuSans-64" transform="translate(642.675781 0)"/>
     <use xlink:href="#DejaVuSans-69" transform="translate(706.152344 0)"/>
     <use xlink:href="#DejaVuSans-66" transform="translate(733.935547 0)"/>
     <use xlink:href="#DejaVuSans-66" transform="translate(769.140625 0)"/>
    </g>
   </g>
   <g id="text_18">
    <!-- CPU worker -->
    <g style="fill: #1c1c1c" transform="translate(432.409063 524.696286) scale(0.095 -0.095)">
     <use xlink:href="#DejaVuSans-Bold-43"/>
     <use xlink:href="#DejaVuSans-Bold-50" transform="translate(73.388672 0)"/>
     <use xlink:href="#DejaVuSans-Bold-55" transform="translate(146.679688 0)"/>
     <use xlink:href="#DejaVuSans-Bold-20" transform="translate(227.880859 0)"/>
     <use xlink:href="#DejaVuSans-Bold-77" transform="translate(262.695312 0)"/>
     <use xlink:href="#DejaVuSans-Bold-6f" transform="translate(355.078125 0)"/>
     <use xlink:href="#DejaVuSans-Bold-72" transform="translate(423.779297 0)"/>
     <use xlink:href="#DejaVuSans-Bold-6b" transform="translate(473.095703 0)"/>
     <use xlink:href="#DejaVuSans-Bold-65" transform="translate(536.974609 0)"/>
     <use xlink:href="#DejaVuSans-Bold-72" transform="translate(604.796875 0)"/>
    </g>
   </g>
   <g id="text_19">
    <!-- FuzzyVM generate -->
    <g style="fill: #1c1c1c" transform="translate(428.555625 545.464996) scale(0.076 -0.076)">
     <use xlink:href="#DejaVuSans-46"/>
     <use xlink:href="#DejaVuSans-75" transform="translate(52.019531 0)"/>
     <use xlink:href="#DejaVuSans-7a" transform="translate(115.398438 0)"/>
     <use xlink:href="#DejaVuSans-7a" transform="translate(167.888672 0)"/>
     <use xlink:href="#DejaVuSans-79" transform="translate(220.378906 0)"/>
     <use xlink:href="#DejaVuSans-56" transform="translate(279.558594 0)"/>
     <use xlink:href="#DejaVuSans-4d" transform="translate(347.966797 0)"/>
     <use xlink:href="#DejaVuSans-20" transform="translate(434.246094 0)"/>
     <use xlink:href="#DejaVuSans-67" transform="translate(466.033203 0)"/>
     <use xlink:href="#DejaVuSans-65" transform="translate(529.509766 0)"/>
     <use xlink:href="#DejaVuSans-6e" transform="translate(591.033203 0)"/>
     <use xlink:href="#DejaVuSans-65" transform="translate(654.412109 0)"/>
     <use xlink:href="#DejaVuSans-72" transform="translate(715.935547 0)"/>
     <use xlink:href="#DejaVuSans-61" transform="translate(757.048828 0)"/>
     <use xlink:href="#DejaVuSans-74" transform="translate(818.328125 0)"/>
     <use xlink:href="#DejaVuSans-65" transform="translate(857.537109 0)"/>
    </g>
    <!-- + goevmlab diff -->
    <g style="fill: #1c1c1c" transform="translate(432.91375 553.975334) scale(0.076 -0.076)">
     <use xlink:href="#DejaVuSans-2b"/>
     <use xlink:href="#DejaVuSans-20" transform="translate(83.789062 0)"/>
     <use xlink:href="#DejaVuSans-67" transform="translate(115.576172 0)"/>
     <use xlink:href="#DejaVuSans-6f" transform="translate(179.052734 0)"/>
     <use xlink:href="#DejaVuSans-65" transform="translate(240.234375 0)"/>
     <use xlink:href="#DejaVuSans-76" transform="translate(301.757812 0)"/>
     <use xlink:href="#DejaVuSans-6d" transform="translate(360.9375 0)"/>
     <use xlink:href="#DejaVuSans-6c" transform="translate(458.349609 0)"/>
     <use xlink:href="#DejaVuSans-61" transform="translate(486.132812 0)"/>
     <use xlink:href="#DejaVuSans-62" transform="translate(547.412109 0)"/>
     <use xlink:href="#DejaVuSans-20" transform="translate(610.888672 0)"/>
     <use xlink:href="#DejaVuSans-64" transform="translate(642.675781 0)"/>
     <use xlink:href="#DejaVuSans-69" transform="translate(706.152344 0)"/>
     <use xlink:href="#DejaVuSans-66" transform="translate(733.935547 0)"/>
     <use xlink:href="#DejaVuSans-66" transform="translate(769.140625 0)"/>
    </g>
   </g>
   <g id="text_20">
    <!-- CPU worker -->
    <g style="fill: #1c1c1c" transform="translate(589.489063 524.696286) scale(0.095 -0.095)">
     <use xlink:href="#DejaVuSans-Bold-43"/>
     <use xlink:href="#DejaVuSans-Bold-50" transform="translate(73.388672 0)"/>
     <use xlink:href="#DejaVuSans-Bold-55" transform="translate(146.679688 0)"/>
     <use xlink:href="#DejaVuSans-Bold-20" transform="translate(227.880859 0)"/>
     <use xlink:href="#DejaVuSans-Bold-77" transform="translate(262.695312 0)"/>
     <use xlink:href="#DejaVuSans-Bold-6f" transform="translate(355.078125 0)"/>
     <use xlink:href="#DejaVuSans-Bold-72" transform="translate(423.779297 0)"/>
     <use xlink:href="#DejaVuSans-Bold-6b" transform="translate(473.095703 0)"/>
     <use xlink:href="#DejaVuSans-Bold-65" transform="translate(536.974609 0)"/>
     <use xlink:href="#DejaVuSans-Bold-72" transform="translate(604.796875 0)"/>
    </g>
   </g>
   <g id="text_21">
    <!-- FuzzyVM generate -->
    <g style="fill: #1c1c1c" transform="translate(585.635625 545.464996) scale(0.076 -0.076)">
     <use xlink:href="#DejaVuSans-46"/>
     <use xlink:href="#DejaVuSans-75" transform="translate(52.019531 0)"/>
     <use xlink:href="#DejaVuSans-7a" transform="translate(115.398438 0)"/>
     <use xlink:href="#DejaVuSans-7a" transform="translate(167.888672 0)"/>
     <use xlink:href="#DejaVuSans-79" transform="translate(220.378906 0)"/>
     <use xlink:href="#DejaVuSans-56" transform="translate(279.558594 0)"/>
     <use xlink:href="#DejaVuSans-4d" transform="translate(347.966797 0)"/>
     <use xlink:href="#DejaVuSans-20" transform="translate(434.246094 0)"/>
     <use xlink:href="#DejaVuSans-67" transform="translate(466.033203 0)"/>
     <use xlink:href="#DejaVuSans-65" transform="translate(529.509766 0)"/>
     <use xlink:href="#DejaVuSans-6e" transform="translate(591.033203 0)"/>
     <use xlink:href="#DejaVuSans-65" transform="translate(654.412109 0)"/>
     <use xlink:href="#DejaVuSans-72" transform="translate(715.935547 0)"/>
     <use xlink:href="#DejaVuSans-61" transform="translate(757.048828 0)"/>
     <use xlink:href="#DejaVuSans-74" transform="translate(818.328125 0)"/>
     <use xlink:href="#DejaVuSans-65" transform="translate(857.537109 0)"/>
    </g>
    <!-- + goevmlab diff -->
    <g style="fill: #1c1c1c" transform="translate(589.99375 553.975334) scale(0.076 -0.076)">
     <use xlink:href="#DejaVuSans-2b"/>
     <use xlink:href="#DejaVuSans-20" transform="translate(83.789062 0)"/>
     <use xlink:href="#DejaVuSans-67" transform="translate(115.576172 0)"/>
     <use xlink:href="#DejaVuSans-6f" transform="translate(179.052734 0)"/>
     <use xlink:href="#DejaVuSans-65" transform="translate(240.234375 0)"/>
     <use xlink:href="#DejaVuSans-76" transform="translate(301.757812 0)"/>
     <use xlink:href="#DejaVuSans-6d" transform="translate(360.9375 0)"/>
     <use xlink:href="#DejaVuSans-6c" transform="translate(458.349609 0)"/>
     <use xlink:href="#DejaVuSans-61" transform="translate(486.132812 0)"/>
     <use xlink:href="#DejaVuSans-62" transform="translate(547.412109 0)"/>
     <use xlink:href="#DejaVuSans-20" transform="translate(610.888672 0)"/>
     <use xlink:href="#DejaVuSans-64" transform="translate(642.675781 0)"/>
     <use xlink:href="#DejaVuSans-69" transform="translate(706.152344 0)"/>
     <use xlink:href="#DejaVuSans-66" transform="translate(733.935547 0)"/>
     <use xlink:href="#DejaVuSans-66" transform="translate(769.140625 0)"/>
    </g>
   </g>
   <g id="text_22">
    <!-- CPU mesh — generate + differential -->
    <g style="fill: #5a9e46" transform="translate(274.510156 599.864328) scale(0.105 -0.105)">
     <defs>
      <path id="DejaVuSans-Bold-67" d="M 2919 594 
Q 2688 288 2409 144 
Q 2131 0 1766 0 
Q 1125 0 706 504 
Q 288 1009 288 1791 
Q 288 2575 706 3076 
Q 1125 3578 1766 3578 
Q 2131 3578 2409 3434 
Q 2688 3291 2919 2981 
L 2919 3500 
L 4044 3500 
L 4044 353 
Q 4044 -491 3511 -936 
Q 2978 -1381 1966 -1381 
Q 1638 -1381 1331 -1331 
Q 1025 -1281 716 -1178 
L 716 -306 
Q 1009 -475 1290 -558 
Q 1572 -641 1856 -641 
Q 2406 -641 2662 -400 
Q 2919 -159 2919 353 
L 2919 594 
z
M 2181 2772 
Q 1834 2772 1640 2515 
Q 1447 2259 1447 1791 
Q 1447 1309 1634 1061 
Q 1822 813 2181 813 
Q 2531 813 2725 1069 
Q 2919 1325 2919 1791 
Q 2919 2259 2725 2515 
Q 2531 2772 2181 2772 
z
" transform="scale(0.015625)"/>
      <path id="DejaVuSans-Bold-2b" d="M 3053 4013 
L 3053 2375 
L 4684 2375 
L 4684 1638 
L 3053 1638 
L 3053 0 
L 2309 0 
L 2309 1638 
L 678 1638 
L 678 2375 
L 2309 2375 
L 2309 4013 
L 3053 4013 
z
" transform="scale(0.015625)"/>
      <path id="DejaVuSans-Bold-66" d="M 2841 4863 
L 2841 4128 
L 2222 4128 
Q 1984 4128 1890 4042 
Q 1797 3956 1797 3744 
L 1797 3500 
L 2753 3500 
L 2753 2700 
L 1797 2700 
L 1797 0 
L 678 0 
L 678 2700 
L 122 2700 
L 122 3500 
L 678 3500 
L 678 3744 
Q 678 4316 997 4589 
Q 1316 4863 1984 4863 
L 2841 4863 
z
" transform="scale(0.015625)"/>
     </defs>
     <use xlink:href="#DejaVuSans-Bold-43"/>
     <use xlink:href="#DejaVuSans-Bold-50" transform="translate(73.388672 0)"/>
     <use xlink:href="#DejaVuSans-Bold-55" transform="translate(146.679688 0)"/>
     <use xlink:href="#DejaVuSans-Bold-20" transform="translate(227.880859 0)"/>
     <use xlink:href="#DejaVuSans-Bold-6d" transform="translate(262.695312 0)"/>
     <use xlink:href="#DejaVuSans-Bold-65" transform="translate(366.894531 0)"/>
     <use xlink:href="#DejaVuSans-Bold-73" transform="translate(434.716797 0)"/>
     <use xlink:href="#DejaVuSans-Bold-68" transform="translate(494.238281 0)"/>
     <use xlink:href="#DejaVuSans-Bold-20" transform="translate(565.429688 0)"/>
     <use xlink:href="#DejaVuSans-Bold-2014" transform="translate(600.244141 0)"/>
     <use xlink:href="#DejaVuSans-Bold-20" transform="translate(700.244141 0)"/>
     <use xlink:href="#DejaVuSans-Bold-67" transform="translate(735.058594 0)"/>
     <use xlink:href="#DejaVuSans-Bold-65" transform="translate(806.640625 0)"/>
     <use xlink:href="#DejaVuSans-Bold-6e" transform="translate(874.462891 0)"/>
     <use xlink:href="#DejaVuSans-Bold-65" transform="translate(945.654297 0)"/>
     <use xlink:href="#DejaVuSans-Bold-72" transform="translate(1013.476562 0)"/>
     <use xlink:href="#DejaVuSans-Bold-61" transform="translate(1062.792969 0)"/>
     <use xlink:href="#DejaVuSans-Bold-74" transform="translate(1130.273438 0)"/>
     <use xlink:href="#DejaVuSans-Bold-65" transform="translate(1178.076172 0)"/>
     <use xlink:href="#DejaVuSans-Bold-20" transform="translate(1245.898438 0)"/>
     <use xlink:href="#DejaVuSans-Bold-2b" transform="translate(1280.712891 0)"/>
     <use xlink:href="#DejaVuSans-Bold-20" transform="translate(1364.501953 0)"/>
     <use xlink:href="#DejaVuSans-Bold-64" transform="translate(1399.316406 0)"/>
     <use xlink:href="#DejaVuSans-Bold-69" transform="translate(1470.898438 0)"/>
     <use xlink:href="#DejaVuSans-Bold-66" transform="translate(1505.175781 0)"/>
     <use xlink:href="#DejaVuSans-Bold-66" transform="translate(1548.681641 0)"/>
     <use xlink:href="#DejaVuSans-Bold-65" transform="translate(1592.1875 0)"/>
     <use xlink:href="#DejaVuSans-Bold-72" transform="translate(1660.009766 0)"/>
     <use xlink:href="#DejaVuSans-Bold-65" transform="translate(1709.326172 0)"/>
     <use xlink:href="#DejaVuSans-Bold-6e" transform="translate(1777.148438 0)"/>
     <use xlink:href="#DejaVuSans-Bold-74" transform="translate(1848.339844 0)"/>
     <use xlink:href="#DejaVuSans-Bold-69" transform="translate(1896.142578 0)"/>
     <use xlink:href="#DejaVuSans-Bold-61" transform="translate(1930.419922 0)"/>
     <use xlink:href="#DejaVuSans-Bold-6c" transform="translate(1997.900391 0)"/>
    </g>
   </g>
   <g id="patch_19">
    <path d="M 381.2 168.124461 
Q 381.2 208.896 381.2 249.667539 
" clip-path="url(#pad42d1b3c4)" style="fill: none; stroke: #1c1c1c; stroke-width: 1.8; stroke-linecap: round"/>
    <path d="M 378.8 172.924461 
L 381.2 168.124461 
L 383.6 172.924461 
z
" clip-path="url(#pad42d1b3c4)" style="fill: #1c1c1c; stroke: #1c1c1c; stroke-width: 1.8; stroke-linecap: round"/>
    <path d="M 383.6 244.867539 
L 381.2 249.667539 
L 378.8 244.867539 
z
" clip-path="url(#pad42d1b3c4)" style="fill: #1c1c1c; stroke: #1c1c1c; stroke-width: 1.8; stroke-linecap: round"/>
   </g>
   <g id="patch_20">
    <path d="M 555.252461 312.8 
Q 568.2 312.8 581.147539 312.8 
" clip-path="url(#pad42d1b3c4)" style="fill: none; stroke: #1c1c1c; stroke-width: 1.8; stroke-linecap: round"/>
    <path d="M 560.052461 315.2 
L 555.252461 312.8 
L 560.052461 310.4 
z
" clip-path="url(#pad42d1b3c4)" style="fill: #1c1c1c; stroke: #1c1c1c; stroke-width: 1.8; stroke-linecap: round"/>
    <path d="M 576.347539 310.4 
L 581.147539 312.8 
L 576.347539 315.2 
z
" clip-path="url(#pad42d1b3c4)" style="fill: #1c1c1c; stroke: #1c1c1c; stroke-width: 1.8; stroke-linecap: round"/>
   </g>
   <g id="patch_21">
    <path d="M 209.16 312.8 
Q 194.2 312.8 181.252461 312.8 
" clip-path="url(#pad42d1b3c4)" style="fill: none; stroke: #1c1c1c; stroke-width: 1.8; stroke-linecap: round"/>
    <path d="M 186.052461 315.2 
L 181.252461 312.8 
L 186.052461 310.4 
z
" clip-path="url(#pad42d1b3c4)" style="fill: #1c1c1c; stroke: #1c1c1c; stroke-width: 1.8; stroke-linecap: round"/>
   </g>
   <g id="patch_22">
    <path d="M 358.76 373.92 
Q 358.76 412.12 358.76 448.307539 
" clip-path="url(#pad42d1b3c4)" style="fill: none; stroke: #1c1c1c; stroke-width: 1.8; stroke-linecap: round"/>
    <path d="M 361.16 443.507539 
L 358.76 448.307539 
L 356.36 443.507539 
z
" clip-path="url(#pad42d1b3c4)" style="fill: #1c1c1c; stroke: #1c1c1c; stroke-width: 1.8; stroke-linecap: round"/>
   </g>
   <g id="patch_23">
    <path d="M 403.64 450.32 
Q 403.64 412.12 403.64 375.932461 
" clip-path="url(#pad42d1b3c4)" style="fill: none; stroke: #1c1c1c; stroke-width: 1.8; stroke-linecap: round"/>
    <path d="M 401.24 380.732461 
L 403.64 375.932461 
L 406.04 380.732461 
z
" clip-path="url(#pad42d1b3c4)" style="fill: #1c1c1c; stroke: #1c1c1c; stroke-width: 1.8; stroke-linecap: round"/>
   </g>
   <g id="text_23">
    <g id="patch_24">
     <path d="M 482.18 218.846375 
L 551.02125 218.846375 
Q 552.62125 218.846375 552.62125 217.246375 
L 552.62125 200.545625 
Q 552.62125 198.945625 551.02125 198.945625 
L 482.18 198.945625 
Q 480.58 198.945625 480.58 200.545625 
L 480.58 217.246375 
Q 480.58 218.846375 482.18 218.846375 
z
" style="fill: #ffffff; stroke: #7a7a7a; stroke-width: 0.6; stroke-linejoin: miter"/>
    </g>
    <!-- plans ↑ -->
    <g style="fill: #1c1c1c" transform="translate(482.18 206.624375) scale(0.08 -0.08)">
     <defs>
      <path id="DejaVuSans-2191" d="M 2541 4688 
L 2822 4688 
L 4047 3456 
L 3672 3081 
L 2947 3813 
L 2947 0 
L 2416 0 
L 2416 3813 
L 1684 3081 
L 1309 3456 
L 2541 4688 
z
" transform="scale(0.015625)"/>
     </defs>
     <use xlink:href="#DejaVuSans-70"/>
     <use xlink:href="#DejaVuSans-6c" transform="translate(63.476562 0)"/>
     <use xlink:href="#DejaVuSans-61" transform="translate(91.259766 0)"/>
     <use xlink:href="#DejaVuSans-6e" transform="translate(152.539062 0)"/>
     <use xlink:href="#DejaVuSans-73" transform="translate(215.917969 0)"/>
     <use xlink:href="#DejaVuSans-20" transform="translate(268.017578 0)"/>
     <use xlink:href="#DejaVuSans-2191" transform="translate(299.804688 0)"/>
    </g>
    <!-- corpus context ↓ -->
    <g style="fill: #1c1c1c" transform="translate(482.18 215.582625) scale(0.08 -0.08)">
     <defs>
      <path id="DejaVuSans-78" d="M 3513 3500 
L 2247 1797 
L 3578 0 
L 2900 0 
L 1881 1375 
L 863 0 
L 184 0 
L 1544 1831 
L 300 3500 
L 978 3500 
L 1906 2253 
L 2834 3500 
L 3513 3500 
z
" transform="scale(0.015625)"/>
      <path id="DejaVuSans-2193" d="M 2822 -22 
L 2541 -22 
L 1309 1209 
L 1684 1584 
L 2416 853 
L 2416 4666 
L 2947 4666 
L 2947 853 
L 3672 1584 
L 4047 1209 
L 2822 -22 
z
" transform="scale(0.015625)"/>
     </defs>
     <use xlink:href="#DejaVuSans-63"/>
     <use xlink:href="#DejaVuSans-6f" transform="translate(54.980469 0)"/>
     <use xlink:href="#DejaVuSans-72" transform="translate(116.162109 0)"/>
     <use xlink:href="#DejaVuSans-70" transform="translate(157.275391 0)"/>
     <use xlink:href="#DejaVuSans-75" transform="translate(220.751953 0)"/>
     <use xlink:href="#DejaVuSans-73" transform="translate(284.130859 0)"/>
     <use xlink:href="#DejaVuSans-20" transform="translate(336.230469 0)"/>
     <use xlink:href="#DejaVuSans-63" transform="translate(368.017578 0)"/>
     <use xlink:href="#DejaVuSans-6f" transform="translate(422.998047 0)"/>
     <use xlink:href="#DejaVuSans-6e" transform="translate(484.179688 0)"/>
     <use xlink:href="#DejaVuSans-74" transform="translate(547.558594 0)"/>
     <use xlink:href="#DejaVuSans-65" transform="translate(586.767578 0)"/>
     <use xlink:href="#DejaVuSans-78" transform="translate(646.541016 0)"/>
     <use xlink:href="#DejaVuSans-74" transform="translate(705.720703 0)"/>
     <use xlink:href="#DejaVuSans-20" transform="translate(744.929688 0)"/>
     <use xlink:href="#DejaVuSans-2193" transform="translate(776.716797 0)"/>
    </g>
   </g>
   <g id="text_24">
    <g id="patch_25">
     <path d="M 330.73 417.43125 
L 379.31 417.43125 
Q 380.75 417.43125 380.75 415.99125 
L 380.75 408.24875 
Q 380.75 406.80875 379.31 406.80875 
L 330.73 406.80875 
Q 329.29 406.80875 329.29 408.24875 
L 329.29 415.99125 
Q 329.29 417.43125 330.73 417.43125 
z
" style="fill: #ffffff"/>
    </g>
    <!-- work / plans -->
    <g style="fill: #1c1c1c" transform="translate(330.73 414.3275) scale(0.08 -0.08)">
     <defs>
      <path id="DejaVuSans-2f" d="M 1625 4666 
L 2156 4666 
L 531 -594 
L 0 -594 
L 1625 4666 
z
" transform="scale(0.015625)"/>
     </defs>
     <use xlink:href="#DejaVuSans-77"/>
     <use xlink:href="#DejaVuSans-6f" transform="translate(81.787109 0)"/>
     <use xlink:href="#DejaVuSans-72" transform="translate(142.96875 0)"/>
     <use xlink:href="#DejaVuSans-6b" transform="translate(184.082031 0)"/>
     <use xlink:href="#DejaVuSans-20" transform="translate(241.992188 0)"/>
     <use xlink:href="#DejaVuSans-2f" transform="translate(273.779297 0)"/>
     <use xlink:href="#DejaVuSans-20" transform="translate(307.470703 0)"/>
     <use xlink:href="#DejaVuSans-70" transform="translate(339.257812 0)"/>
     <use xlink:href="#DejaVuSans-6c" transform="translate(402.734375 0)"/>
     <use xlink:href="#DejaVuSans-61" transform="translate(430.517578 0)"/>
     <use xlink:href="#DejaVuSans-6e" transform="translate(491.796875 0)"/>
     <use xlink:href="#DejaVuSans-73" transform="translate(555.175781 0)"/>
    </g>
   </g>
   <g id="text_25">
    <g id="patch_26">
     <path d="M 391.516875 417.43125 
L 423.243125 417.43125 
Q 424.683125 417.43125 424.683125 415.99125 
L 424.683125 408.24875 
Q 424.683125 406.80875 423.243125 406.80875 
L 391.516875 406.80875 
Q 390.076875 406.80875 390.076875 408.24875 
L 390.076875 415.99125 
Q 390.076875 417.43125 391.516875 417.43125 
z
" style="fill: #ffffff"/>
    </g>
    <!-- findings -->
    <g style="fill: #1c1c1c" transform="translate(391.516875 414.3275) scale(0.08 -0.08)">
     <use xlink:href="#DejaVuSans-66"/>
     <use xlink:href="#DejaVuSans-69" transform="translate(35.205078 0)"/>
     <use xlink:href="#DejaVuSans-6e" transform="translate(62.988281 0)"/>
     <use xlink:href="#DejaVuSans-64" transform="translate(126.367188 0)"/>
     <use xlink:href="#DejaVuSans-69" transform="translate(189.84375 0)"/>
     <use xlink:href="#DejaVuSans-6e" transform="translate(217.626953 0)"/>
     <use xlink:href="#DejaVuSans-67" transform="translate(281.005859 0)"/>
     <use xlink:href="#DejaVuSans-73" transform="translate(344.482422 0)"/>
    </g>
   </g>
  </g>
 </g>
 <defs>
  <clipPath id="pad42d1b3c4">
   <rect x="7.2" y="7.2" width="748" height="611.2"/>
  </clipPath>
 </defs>
</svg>
