<?xml version="1.0" encoding="utf-8" standalone="no"?>
<!DOCTYPE svg PUBLIC "-//W3C//DTD SVG 1.1//EN"
  "http://www.w3.org/Graphics/SVG/1.1/DTD/svg11.dtd">
<svg xmlns:xlink="http://www.w3.org/1999/xlink" width="834.4pt" height="596.8pt" viewBox="0 0 834.4 596.8" xmlns="http://www.w3.org/2000/svg" version="1.1">
 <metadata>
  <rdf:RDF xmlns:dc="http://purl.org/dc/elements/1.1/" xmlns:cc="http://creativecommons.org/ns#" xmlns:rdf="http://www.w3.org/1999/02/22-rdf-syntax-ns#">
   <cc:Work>
    <dc:type rdf:resource="http://purl.org/dc/dcmitype/StillImage"/>
    <dc:date>2026-06-20T16:52:53.198635</dc:date>
    <dc:format>image/svg+xml</dc:format>
    <dc:creator>
     <cc:Agent>
      <dc:title>Matplotlib v3.10.8, https://matplotlib.org/</dc:title>
     </cc:Agent>
    </dc:creator>
   </cc:Work>
  </rdf:RDF>
 </metadata>
 <defs>
  <style type="text/css">*{stroke-linejoin: round; stroke-linecap: butt}</style>
 </defs>
 <g id="figure_1">
  <g id="patch_1">
   <path d="M 0 596.8 
L 834.4 596.8 
L 834.4 -0 
L 0 -0 
z
" style="fill: #ffffff"/>
  </g>
  <g id="axes_1">
   <g id="patch_2">
    <path d="M 51.48 449.824 
L 241.72 449.824 
Q 253.2 449.824 253.2 441.6704 
L 253.2 213.3696 
Q 253.2 205.216 241.72 205.216 
L 51.48 205.216 
Q 40 205.216 40 213.3696 
L 40 441.6704 
Q 40 449.824 51.48 449.824 
z
" clip-path="url(#p3450364e24)" style="fill: #f1f1f1; stroke: #8a8a8a; stroke-width: 1.6; stroke-linejoin: miter"/>
   </g>
   <g id="patch_3">
    <path d="M 297.48 473.12 
L 569.72 473.12 
Q 581.2 473.12 581.2 464.9664 
L 581.2 190.0736 
Q 581.2 181.92 569.72 181.92 
L 297.48 181.92 
Q 286 181.92 286 190.0736 
L 286 464.9664 
Q 286 473.12 297.48 473.12 
z
" clip-path="url(#p3450364e24)" style="fill: #f1f1f1; stroke: #8a8a8a; stroke-width: 1.6; stroke-linejoin: miter"/>
   </g>
   <g id="patch_4">
    <path d="M 609.08 449.824 
L 799.32 449.824 
Q 810.8 449.824 810.8 441.6704 
L 810.8 213.3696 
Q 810.8 205.216 799.32 205.216 
L 609.08 205.216 
Q 597.6 205.216 597.6 213.3696 
L 597.6 441.6704 
Q 597.6 449.824 609.08 449.824 
z
" clip-path="url(#p3450364e24)" style="fill: #f1f1f1; stroke: #8a8a8a; stroke-width: 1.6; stroke-linejoin: miter"/>
   </g>
   <g id="line2d_1">
    <path d="M 89.2 519.712 
L 794.4 519.712 
" clip-path="url(#p3450364e24)" style="fill: none; stroke: #7a7a7a; stroke-width: 1.4; stroke-linecap: square"/>
   </g>
   <g id="line2d_2">
    <path d="M 146.6 519.712 
L 146.6 449.824 
" clip-path="url(#p3450364e24)" style="fill: none; stroke: #7a7a7a; stroke-linecap: square"/>
   </g>
   <g id="line2d_3">
    <path d="M 433.6 519.712 
L 433.6 473.12 
" clip-path="url(#p3450364e24)" style="fill: none; stroke: #7a7a7a; stroke-linecap: square"/>
   </g>
   <g id="line2d_4">
    <path d="M 704.2 519.712 
L 704.2 449.824 
" clip-path="url(#p3450364e24)" style="fill: none; stroke: #7a7a7a; stroke-linecap: square"/>
   </g>
   <g id="patch_5">
    <path d="M 82.64 78.544 
L 751.76 78.544 
Q 761.6 78.544 761.6 71.5552 
L 761.6 36.0288 
Q 761.6 29.04 751.76 29.04 
L 82.64 29.04 
Q 72.8 29.04 72.8 36.0288 
L 72.8 71.5552 
Q 72.8 78.544 82.64 78.544 
z
" clip-path="url(#p3450364e24)" style="fill: #f3e0c2; stroke: #c08a3e; stroke-width: 1.6; stroke-linejoin: miter"/>
   </g>
   <g id="patch_6">
    <path d="M 72.8 295.488 
L 220.4 295.488 
Q 228.6 295.488 228.6 289.664 
L 228.6 248.896 
Q 228.6 243.072 220.4 243.072 
L 72.8 243.072 
Q 64.6 243.072 64.6 248.896 
L 64.6 289.664 
Q 64.6 295.488 72.8 295.488 
z
" clip-path="url(#p3450364e24)" style="fill: #cfe3f7; stroke: #4a86c5; stroke-width: 1.5; stroke-linejoin: miter"/>
   </g>
   <g id="patch_7">
    <path d="M 146.6 423.616 
C 163.997323 423.616 180.68444 422.578926 192.986205 420.733181 
C 205.28797 418.887436 212.2 416.383717 212.2 413.77344 
C 212.2 411.163163 205.28797 408.659444 192.986205 406.813699 
C 180.68444 404.967954 163.997323 403.93088 146.6 403.93088 
C 129.202677 403.93088 112.51556 404.967954 100.213795 406.813699 
C 87.91203 408.659444 81 411.163163 81 413.77344 
C 81 416.383717 87.91203 418.887436 100.213795 420.733181 
C 112.51556 422.578926 129.202677 423.616 146.6 423.616 
z
" clip-path="url(#p3450364e24)" style="fill: #e7d6f0; stroke: #8a5aa8; stroke-width: 1.4; stroke-linejoin: miter"/>
   </g>
   <g id="patch_8">
    <path d="M 81 413.77344 
L 212.2 413.77344 
L 212.2 357.74656 
L 81 357.74656 
z
" clip-path="url(#p3450364e24)" style="fill: #e7d6f0"/>
   </g>
   <g id="line2d_5">
    <path d="M 81 413.77344 
L 81 357.74656 
" clip-path="url(#p3450364e24)" style="fill: none; stroke: #8a5aa8; stroke-width: 1.4; stroke-linecap: square"/>
   </g>
   <g id="line2d_6">
    <path d="M 212.2 413.77344 
L 212.2 357.74656 
" clip-path="url(#p3450364e24)" style="fill: none; stroke: #8a5aa8; stroke-width: 1.4; stroke-linecap: square"/>
   </g>
   <g id="patch_9">
    <path d="M 318.8 260.544 
L 548.4 260.544 
Q 556.6 260.544 556.6 254.72 
L 556.6 213.952 
Q 556.6 208.128 548.4 208.128 
L 318.8 208.128 
Q 310.6 208.128 310.6 213.952 
L 310.6 254.72 
Q 310.6 260.544 318.8 260.544 
z
" clip-path="url(#p3450364e24)" style="fill: #cfe3f7; stroke: #4a86c5; stroke-width: 1.5; stroke-linejoin: miter"/>
   </g>
   <g id="patch_10">
    <path d="M 318.8 330.432 
L 548.4 330.432 
Q 556.6 330.432 556.6 324.608 
L 556.6 283.84 
Q 556.6 278.016 548.4 278.016 
L 318.8 278.016 
Q 310.6 278.016 310.6 283.84 
L 310.6 324.608 
Q 310.6 330.432 318.8 330.432 
z
" clip-path="url(#p3450364e24)" style="fill: #cfe3f7; stroke: #4a86c5; stroke-width: 1.5; stroke-linejoin: miter"/>
   </g>
   <g id="patch_11">
    <path d="M 359.8 444 
C 375.022658 444 389.623885 443.042701 400.387929 441.338936 
C 411.151974 439.635172 417.2 437.324047 417.2 434.91456 
C 417.2 432.505073 411.151974 430.193948 400.387929 428.490184 
C 389.623885 426.786419 375.022658 425.82912 359.8 425.82912 
C 344.577342 425.82912 329.976115 426.786419 319.212071 428.490184 
C 308.448026 430.193948 302.4 432.505073 302.4 434.91456 
C 302.4 437.324047 308.448026 439.635172 319.212071 441.338936 
C 329.976115 443.042701 344.577342 444 359.8 444 
z
" clip-path="url(#p3450364e24)" style="fill: #e7d6f0; stroke: #8a5aa8; stroke-width: 1.4; stroke-linejoin: miter"/>
   </g>
   <g id="patch_12">
    <path d="M 302.4 434.91456 
L 417.2 434.91456 
L 417.2 383.19744 
L 302.4 383.19744 
z
" clip-path="url(#p3450364e24)" style="fill: #e7d6f0"/>
   </g>
   <g id="line2d_7">
    <path d="M 302.4 434.91456 
L 302.4 383.19744 
" clip-path="url(#p3450364e24)" style="fill: none; stroke: #8a5aa8; stroke-width: 1.4; stroke-linecap: square"/>
   </g>
   <g id="line2d_8">
    <path d="M 417.2 434.91456 
L 417.2 383.19744 
" clip-path="url(#p3450364e24)" style="fill: none; stroke: #8a5aa8; stroke-width: 1.4; stroke-linecap: square"/>
   </g>
   <g id="patch_13">
    <path d="M 507.4 444 
C 522.622658 444 537.223885 443.042701 547.987929 441.338936 
C 558.751974 439.635172 564.8 437.324047 564.8 434.91456 
C 564.8 432.505073 558.751974 430.193948 547.987929 428.490184 
C 537.223885 426.786419 522.622658 425.82912 507.4 425.82912 
C 492.177342 425.82912 477.576115 426.786419 466.812071 428.490184 
C 456.048026 430.193948 450 432.505073 450 434.91456 
C 450 437.324047 456.048026 439.635172 466.812071 441.338936 
C 477.576115 443.042701 492.177342 444 507.4 444 
z
" clip-path="url(#p3450364e24)" style="fill: #e7d6f0; stroke: #8a5aa8; stroke-width: 1.4; stroke-linejoin: miter"/>
   </g>
   <g id="patch_14">
    <path d="M 450 434.91456 
L 564.8 434.91456 
L 564.8 383.19744 
L 450 383.19744 
z
" clip-path="url(#p3450364e24)" style="fill: #e7d6f0"/>
   </g>
   <g id="line2d_9">
    <path d="M 450 434.91456 
L 450 383.19744 
" clip-path="url(#p3450364e24)" style="fill: none; stroke: #8a5aa8; stroke-width: 1.4; stroke-linecap: square"/>
   </g>
   <g id="line2d_10">
    <path d="M 564.8 434.91456 
L 564.8 383.19744 
" clip-path="url(#p3450364e24)" style="fill: none; stroke: #8a5aa8; stroke-width: 1.4; stroke-linecap: square"/>
   </g>
   <g id="patch_15">
    <path d="M 630.4 295.488 
L 778 295.488 
Q 786.2 295.488 786.2 289.664 
L 786.2 248.896 
Q 786.2 243.072 778 243.072 
L 630.4 243.072 
Q 622.2 243.072 622.2 248.896 
L 622.2 289.664 
Q 622.2 295.488 630.4 295.488 
z
" clip-path="url(#p3450364e24)" style="fill: #cfe3f7; stroke: #4a86c5; stroke-width: 1.5; stroke-linejoin: miter"/>
   </g>
   <g id="patch_16">
    <path d="M 704.2 420.704 
C 721.597323 420.704 738.28444 419.746701 750.586205 418.042936 
C 762.88797 416.339172 769.8 414.028047 769.8 411.61856 
C 769.8 409.209073 762.88797 406.897948 750.586205 405.194184 
C 738.28444 403.490419 721.597323 402.53312 704.2 402.53312 
C 686.802677 402.53312 670.11556 403.490419 657.813795 405.194184 
C 645.51203 406.897948 638.6 409.209073 638.6 411.61856 
C 638.6 414.028047 645.51203 416.339172 657.813795 418.042936 
C 670.11556 419.746701 686.802677 420.704 704.2 420.704 
z
" clip-path="url(#p3450364e24)" style="fill: #e7d6f0; stroke: #8a5aa8; stroke-width: 1.4; stroke-linejoin: miter"/>
   </g>
   <g id="patch_17">
    <path d="M 638.6 411.61856 
L 769.8 411.61856 
L 769.8 359.90144 
L 638.6 359.90144 
z
" clip-path="url(#p3450364e24)" style="fill: #e7d6f0"/>
   </g>
   <g id="line2d_11">
    <path d="M 638.6 411.61856 
L 638.6 359.90144 
" clip-path="url(#p3450364e24)" style="fill: none; stroke: #8a5aa8; stroke-width: 1.4; stroke-linecap: square"/>
   </g>
   <g id="line2d_12">
    <path d="M 769.8 411.61856 
L 769.8 359.90144 
" clip-path="url(#p3450364e24)" style="fill: none; stroke: #8a5aa8; stroke-width: 1.4; stroke-linecap: square"/>
   </g>
   <g id="patch_18">
    <path d="M 286 569.7984 
C 290.349331 569.7984 294.52111 569.463345 297.596551 568.867028 
C 300.671993 568.27071 302.4 567.461816 302.4 566.618496 
C 302.4 565.775176 300.671993 564.966282 297.596551 564.369964 
C 294.52111 563.773647 290.349331 563.438592 286 563.438592 
C 281.650669 563.438592 277.47889 563.773647 274.403449 564.369964 
C 271.328007 564.966282 269.6 565.775176 269.6 566.618496 
C 269.6 567.461816 271.328007 568.27071 274.403449 568.867028 
C 277.47889 569.463345 281.650669 569.7984 286 569.7984 
z
" clip-path="url(#p3450364e24)" style="fill: #e7d6f0; stroke: #8a5aa8; stroke-width: 1.4; stroke-linejoin: miter"/>
   </g>
   <g id="patch_19">
    <path d="M 269.6 566.618496 
L 302.4 566.618496 
L 302.4 548.517504 
L 269.6 548.517504 
z
" clip-path="url(#p3450364e24)" style="fill: #e7d6f0"/>
   </g>
   <g id="line2d_13">
    <path d="M 269.6 566.618496 
L 269.6 548.517504 
" clip-path="url(#p3450364e24)" style="fill: none; stroke: #8a5aa8; stroke-width: 1.4; stroke-linecap: square"/>
   </g>
   <g id="line2d_14">
    <path d="M 302.4 566.618496 
L 302.4 548.517504 
" clip-path="url(#p3450364e24)" style="fill: none; stroke: #8a5aa8; stroke-width: 1.4; stroke-linecap: square"/>
   </g>
   <g id="text_1">
    <!-- Container registry -->
    <g style="fill: #1c1c1c" transform="translate(368.237148 48.222697) scale(0.095 -0.095)">
     <defs>
      <path id="DejaVuSans-Bold-43" d="M 4288 256 
Q 3956 84 3597 -3 
Q 3238 -91 2847 -91 
Q 1681 -91 1000 561 
Q 319 1213 319 2328 
Q 319 3447 1000 4098 
Q 1681 4750 2847 4750 
Q 3238 4750 3597 4662 
Q 3956 4575 4288 4403 
L 4288 3438 
Q 3953 3666 3628 3772 
Q 3303 3878 2944 3878 
Q 2300 3878 1931 3465 
Q 1563 3053 1563 2328 
Q 1563 1606 1931 1193 
Q 2300 781 2944 781 
Q 3303 781 3628 887 
Q 3953 994 4288 1222 
L 4288 256 
z
" transform="scale(0.015625)"/>
      <path id="DejaVuSans-Bold-6f" d="M 2203 2784 
Q 1831 2784 1636 2517 
Q 1441 2250 1441 1747 
Q 1441 1244 1636 976 
Q 1831 709 2203 709 
Q 2569 709 2762 976 
Q 2956 1244 2956 1747 
Q 2956 2250 2762 2517 
Q 2569 2784 2203 2784 
z
M 2203 3584 
Q 3106 3584 3614 3096 
Q 4122 2609 4122 1747 
Q 4122 884 3614 396 
Q 3106 -91 2203 -91 
Q 1297 -91 786 396 
Q 275 884 275 1747 
Q 275 2609 786 3096 
Q 1297 3584 2203 3584 
z
" transform="scale(0.015625)"/>
      <path id="DejaVuSans-Bold-6e" d="M 4056 2131 
L 4056 0 
L 2931 0 
L 2931 347 
L 2931 1631 
Q 2931 2084 2911 2256 
Q 2891 2428 2841 2509 
Q 2775 2619 2662 2680 
Q 2550 2741 2406 2741 
Q 2056 2741 1856 2470 
Q 1656 2200 1656 1722 
L 1656 0 
L 538 0 
L 538 3500 
L 1656 3500 
L 1656 2988 
Q 1909 3294 2193 3439 
Q 2478 3584 2822 3584 
Q 3428 3584 3742 3212 
Q 4056 2841 4056 2131 
z
" transform="scale(0.015625)"/>
      <path id="DejaVuSans-Bold-74" d="M 1759 4494 
L 1759 3500 
L 2913 3500 
L 2913 2700 
L 1759 2700 
L 1759 1216 
Q 1759 972 1856 886 
Q 1953 800 2241 800 
L 2816 800 
L 2816 0 
L 1856 0 
Q 1194 0 917 276 
Q 641 553 641 1216 
L 641 2700 
L 84 2700 
L 84 3500 
L 641 3500 
L 641 4494 
L 1759 4494 
z
" transform="scale(0.015625)"/>
      <path id="DejaVuSans-Bold-61" d="M 2106 1575 
Q 1756 1575 1579 1456 
Q 1403 1338 1403 1106 
Q 1403 894 1545 773 
Q 1688 653 1941 653 
Q 2256 653 2472 879 
Q 2688 1106 2688 1447 
L 2688 1575 
L 2106 1575 
z
M 3816 1997 
L 3816 0 
L 2688 0 
L 2688 519 
Q 2463 200 2181 54 
Q 1900 -91 1497 -91 
Q 953 -91 614 226 
Q 275 544 275 1050 
Q 275 1666 698 1953 
Q 1122 2241 2028 2241 
L 2688 2241 
L 2688 2328 
Q 2688 2594 2478 2717 
Q 2269 2841 1825 2841 
Q 1466 2841 1156 2769 
Q 847 2697 581 2553 
L 581 3406 
Q 941 3494 1303 3539 
Q 1666 3584 2028 3584 
Q 2975 3584 3395 3211 
Q 3816 2838 3816 1997 
z
" transform="scale(0.015625)"/>
      <path id="DejaVuSans-Bold-69" d="M 538 3500 
L 1656 3500 
L 1656 0 
L 538 0 
L 538 3500 
z
M 538 4863 
L 1656 4863 
L 1656 3950 
L 538 3950 
L 538 4863 
z
" transform="scale(0.015625)"/>
      <path id="DejaVuSans-Bold-65" d="M 4031 1759 
L 4031 1441 
L 1416 1441 
Q 1456 1047 1700 850 
Q 1944 653 2381 653 
Q 2734 653 3104 758 
Q 3475 863 3866 1075 
L 3866 213 
Q 3469 63 3072 -14 
Q 2675 -91 2278 -91 
Q 1328 -91 801 392 
Q 275 875 275 1747 
Q 275 2603 792 3093 
Q 1309 3584 2216 3584 
Q 3041 3584 3536 3087 
Q 4031 2591 4031 1759 
z
M 2881 2131 
Q 2881 2450 2695 2645 
Q 2509 2841 2209 2841 
Q 1884 2841 1681 2658 
Q 1478 2475 1428 2131 
L 2881 2131 
z
" transform="scale(0.015625)"/>
      <path id="DejaVuSans-Bold-72" d="M 3138 2547 
Q 2991 2616 2845 2648 
Q 2700 2681 2553 2681 
Q 2122 2681 1889 2404 
Q 1656 2128 1656 1613 
L 1656 0 
L 538 0 
L 538 3500 
L 1656 3500 
L 1656 2925 
Q 1872 3269 2151 3426 
Q 2431 3584 2822 3584 
Q 2878 3584 2943 3579 
Q 3009 3575 3134 3559 
L 3138 2547 
z
" transform="scale(0.015625)"/>
      <path id="DejaVuSans-Bold-20" transform="scale(0.015625)"/>
      <path id="DejaVuSans-Bold-67" d="M 2919 594 
Q 2688 288 2409 144 
Q 2131 0 1766 0 
Q 1125 0 706 504 
Q 288 1009 288 1791 
Q 288 2575 706 3076 
Q 1125 3578 1766 3578 
Q 2131 3578 2409 3434 
Q 2688 3291 2919 2981 
L 2919 3500 
L 4044 3500 
L 4044 353 
Q 4044 -491 3511 -936 
Q 2978 -1381 1966 -1381 
Q 1638 -1381 1331 -1331 
Q 1025 -1281 716 -1178 
L 716 -306 
Q 1009 -475 1290 -558 
Q 1572 -641 1856 -641 
Q 2406 -641 2662 -400 
Q 2919 -159 2919 353 
L 2919 594 
z
M 2181 2772 
Q 1834 2772 1640 2515 
Q 1447 2259 1447 1791 
Q 1447 1309 1634 1061 
Q 1822 813 2181 813 
Q 2531 813 2725 1069 
Q 2919 1325 2919 1791 
Q 2919 2259 2725 2515 
Q 2531 2772 2181 2772 
z
" transform="scale(0.015625)"/>
      <path id="DejaVuSans-Bold-73" d="M 3272 3391 
L 3272 2541 
Q 2913 2691 2578 2766 
Q 2244 2841 1947 2841 
Q 1628 2841 1473 2761 
Q 1319 2681 1319 2516 
Q 1319 2381 1436 2309 
Q 1553 2238 1856 2203 
L 2053 2175 
Q 2913 2066 3209 1816 
Q 3506 1566 3506 1031 
Q 3506 472 3093 190 
Q 2681 -91 1863 -91 
Q 1516 -91 1145 -36 
Q 775 19 384 128 
L 384 978 
Q 719 816 1070 734 
Q 1422 653 1784 653 
Q 2113 653 2278 743 
Q 2444 834 2444 1013 
Q 2444 1163 2330 1236 
Q 2216 1309 1875 1350 
L 1678 1375 
Q 931 1469 631 1722 
Q 331 1975 331 2491 
Q 331 3047 712 3315 
Q 1094 3584 1881 3584 
Q 2191 3584 2531 3537 
Q 2872 3491 3272 3391 
z
" transform="scale(0.015625)"/>
      <path id="DejaVuSans-Bold-79" d="M 78 3500 
L 1197 3500 
L 2138 1125 
L 2938 3500 
L 4056 3500 
L 2584 -331 
Q 2363 -916 2067 -1148 
Q 1772 -1381 1288 -1381 
L 641 -1381 
L 641 -647 
L 991 -647 
Q 1275 -647 1404 -556 
Q 1534 -466 1606 -231 
L 1638 -134 
L 78 3500 
z
" transform="scale(0.015625)"/>
     </defs>
     <use xlink:href="#DejaVuSans-Bold-43"/>
     <use xlink:href="#DejaVuSans-Bold-6f" transform="translate(73.388672 0)"/>
     <use xlink:href="#DejaVuSans-Bold-6e" transform="translate(142.089844 0)"/>
     <use xlink:href="#DejaVuSans-Bold-74" transform="translate(213.28125 0)"/>
     <use xlink:href="#DejaVuSans-Bold-61" transform="translate(261.083984 0)"/>
     <use xlink:href="#DejaVuSans-Bold-69" transform="translate(328.564453 0)"/>
     <use xlink:href="#DejaVuSans-Bold-6e" transform="translate(362.841797 0)"/>
     <use xlink:href="#DejaVuSans-Bold-65" transform="translate(434.033203 0)"/>
     <use xlink:href="#DejaVuSans-Bold-72" transform="translate(501.855469 0)"/>
     <use xlink:href="#DejaVuSans-Bold-20" transform="translate(551.171875 0)"/>
     <use xlink:href="#DejaVuSans-Bold-72" transform="translate(585.986328 0)"/>
     <use xlink:href="#DejaVuSans-Bold-65" transform="translate(635.302734 0)"/>
     <use xlink:href="#DejaVuSans-Bold-67" transform="translate(703.125 0)"/>
     <use xlink:href="#DejaVuSans-Bold-69" transform="translate(774.707031 0)"/>
     <use xlink:href="#DejaVuSans-Bold-73" transform="translate(808.984375 0)"/>
     <use xlink:href="#DejaVuSans-Bold-74" transform="translate(868.505859 0)"/>
     <use xlink:href="#DejaVuSans-Bold-72" transform="translate(916.308594 0)"/>
     <use xlink:href="#DejaVuSans-Bold-79" transform="translate(965.625 0)"/>
    </g>
   </g>
   <g id="text_2">
    <!-- evml-base  →  evml-worker:&lt;tag&gt;   ·   evml-planner:&lt;tag&gt;      (client versions pinned by tag) -->
    <g style="fill: #1c1c1c" transform="translate(234.438078 66.427512) scale(0.078 -0.078)">
     <defs>
      <path id="DejaVuSans-65" d="M 3597 1894 
L 3597 1613 
L 953 1613 
Q 991 1019 1311 708 
Q 1631 397 2203 397 
Q 2534 397 2845 478 
Q 3156 559 3463 722 
L 3463 178 
Q 3153 47 2828 -22 
Q 2503 -91 2169 -91 
Q 1331 -91 842 396 
Q 353 884 353 1716 
Q 353 2575 817 3079 
Q 1281 3584 2069 3584 
Q 2775 3584 3186 3129 
Q 3597 2675 3597 1894 
z
M 3022 2063 
Q 3016 2534 2758 2815 
Q 2500 3097 2075 3097 
Q 1594 3097 1305 2825 
Q 1016 2553 972 2059 
L 3022 2063 
z
" transform="scale(0.015625)"/>
      <path id="DejaVuSans-76" d="M 191 3500 
L 800 3500 
L 1894 563 
L 2988 3500 
L 3597 3500 
L 2284 0 
L 1503 0 
L 191 3500 
z
" transform="scale(0.015625)"/>
      <path id="DejaVuSans-6d" d="M 3328 2828 
Q 3544 3216 3844 3400 
Q 4144 3584 4550 3584 
Q 5097 3584 5394 3201 
Q 5691 2819 5691 2113 
L 5691 0 
L 5113 0 
L 5113 2094 
Q 5113 2597 4934 2840 
Q 4756 3084 4391 3084 
Q 3944 3084 3684 2787 
Q 3425 2491 3425 1978 
L 3425 0 
L 2847 0 
L 2847 2094 
Q 2847 2600 2669 2842 
Q 2491 3084 2119 3084 
Q 1678 3084 1418 2786 
Q 1159 2488 1159 1978 
L 1159 0 
L 581 0 
L 581 3500 
L 1159 3500 
L 1159 2956 
Q 1356 3278 1631 3431 
Q 1906 3584 2284 3584 
Q 2666 3584 2933 3390 
Q 3200 3197 3328 2828 
z
" transform="scale(0.015625)"/>
      <path id="DejaVuSans-6c" d="M 603 4863 
L 1178 4863 
L 1178 0 
L 603 0 
L 603 4863 
z
" transform="scale(0.015625)"/>
      <path id="DejaVuSans-2d" d="M 313 2009 
L 1997 2009 
L 1997 1497 
L 313 1497 
L 313 2009 
z
" transform="scale(0.015625)"/>
      <path id="DejaVuSans-62" d="M 3116 1747 
Q 3116 2381 2855 2742 
Q 2594 3103 2138 3103 
Q 1681 3103 1420 2742 
Q 1159 2381 1159 1747 
Q 1159 1113 1420 752 
Q 1681 391 2138 391 
Q 2594 391 2855 752 
Q 3116 1113 3116 1747 
z
M 1159 2969 
Q 1341 3281 1617 3432 
Q 1894 3584 2278 3584 
Q 2916 3584 3314 3078 
Q 3713 2572 3713 1747 
Q 3713 922 3314 415 
Q 2916 -91 2278 -91 
Q 1894 -91 1617 61 
Q 1341 213 1159 525 
L 1159 0 
L 581 0 
L 581 4863 
L 1159 4863 
L 1159 2969 
z
" transform="scale(0.015625)"/>
      <path id="DejaVuSans-61" d="M 2194 1759 
Q 1497 1759 1228 1600 
Q 959 1441 959 1056 
Q 959 750 1161 570 
Q 1363 391 1709 391 
Q 2188 391 2477 730 
Q 2766 1069 2766 1631 
L 2766 1759 
L 2194 1759 
z
M 3341 1997 
L 3341 0 
L 2766 0 
L 2766 531 
Q 2569 213 2275 61 
Q 1981 -91 1556 -91 
Q 1019 -91 701 211 
Q 384 513 384 1019 
Q 384 1609 779 1909 
Q 1175 2209 1959 2209 
L 2766 2209 
L 2766 2266 
Q 2766 2663 2505 2880 
Q 2244 3097 1772 3097 
Q 1472 3097 1187 3025 
Q 903 2953 641 2809 
L 641 3341 
Q 956 3463 1253 3523 
Q 1550 3584 1831 3584 
Q 2591 3584 2966 3190 
Q 3341 2797 3341 1997 
z
" transform="scale(0.015625)"/>
      <path id="DejaVuSans-73" d="M 2834 3397 
L 2834 2853 
Q 2591 2978 2328 3040 
Q 2066 3103 1784 3103 
Q 1356 3103 1142 2972 
Q 928 2841 928 2578 
Q 928 2378 1081 2264 
Q 1234 2150 1697 2047 
L 1894 2003 
Q 2506 1872 2764 1633 
Q 3022 1394 3022 966 
Q 3022 478 2636 193 
Q 2250 -91 1575 -91 
Q 1294 -91 989 -36 
Q 684 19 347 128 
L 347 722 
Q 666 556 975 473 
Q 1284 391 1588 391 
Q 1994 391 2212 530 
Q 2431 669 2431 922 
Q 2431 1156 2273 1281 
Q 2116 1406 1581 1522 
L 1381 1569 
Q 847 1681 609 1914 
Q 372 2147 372 2553 
Q 372 3047 722 3315 
Q 1072 3584 1716 3584 
Q 2034 3584 2315 3537 
Q 2597 3491 2834 3397 
z
" transform="scale(0.015625)"/>
      <path id="DejaVuSans-20" transform="scale(0.015625)"/>
      <path id="DejaVuSans-2192" d="M 5050 2147 
L 5050 1866 
L 3822 638 
L 3447 1013 
L 4175 1741 
L 366 1741 
L 366 2272 
L 4175 2272 
L 3447 3000 
L 3822 3375 
L 5050 2147 
z
" transform="scale(0.015625)"/>
      <path id="DejaVuSans-77" d="M 269 3500 
L 844 3500 
L 1563 769 
L 2278 3500 
L 2956 3500 
L 3675 769 
L 4391 3500 
L 4966 3500 
L 4050 0 
L 3372 0 
L 2619 2869 
L 1863 0 
L 1184 0 
L 269 3500 
z
" transform="scale(0.015625)"/>
      <path id="DejaVuSans-6f" d="M 1959 3097 
Q 1497 3097 1228 2736 
Q 959 2375 959 1747 
Q 959 1119 1226 758 
Q 1494 397 1959 397 
Q 2419 397 2687 759 
Q 2956 1122 2956 1747 
Q 2956 2369 2687 2733 
Q 2419 3097 1959 3097 
z
M 1959 3584 
Q 2709 3584 3137 3096 
Q 3566 2609 3566 1747 
Q 3566 888 3137 398 
Q 2709 -91 1959 -91 
Q 1206 -91 779 398 
Q 353 888 353 1747 
Q 353 2609 779 3096 
Q 1206 3584 1959 3584 
z
" transform="scale(0.015625)"/>
      <path id="DejaVuSans-72" d="M 2631 2963 
Q 2534 3019 2420 3045 
Q 2306 3072 2169 3072 
Q 1681 3072 1420 2755 
Q 1159 2438 1159 1844 
L 1159 0 
L 581 0 
L 581 3500 
L 1159 3500 
L 1159 2956 
Q 1341 3275 1631 3429 
Q 1922 3584 2338 3584 
Q 2397 3584 2469 3576 
Q 2541 3569 2628 3553 
L 2631 2963 
z
" transform="scale(0.015625)"/>
      <path id="DejaVuSans-6b" d="M 581 4863 
L 1159 4863 
L 1159 1991 
L 2875 3500 
L 3609 3500 
L 1753 1863 
L 3688 0 
L 2938 0 
L 1159 1709 
L 1159 0 
L 581 0 
L 581 4863 
z
" transform="scale(0.015625)"/>
      <path id="DejaVuSans-3a" d="M 750 794 
L 1409 794 
L 1409 0 
L 750 0 
L 750 794 
z
M 750 3309 
L 1409 3309 
L 1409 2516 
L 750 2516 
L 750 3309 
z
" transform="scale(0.015625)"/>
      <path id="DejaVuSans-3c" d="M 4684 3150 
L 1459 2003 
L 4684 863 
L 4684 294 
L 678 1747 
L 678 2266 
L 4684 3719 
L 4684 3150 
z
" transform="scale(0.015625)"/>
      <path id="DejaVuSans-74" d="M 1172 4494 
L 1172 3500 
L 2356 3500 
L 2356 3053 
L 1172 3053 
L 1172 1153 
Q 1172 725 1289 603 
Q 1406 481 1766 481 
L 2356 481 
L 2356 0 
L 1766 0 
Q 1100 0 847 248 
Q 594 497 594 1153 
L 594 3053 
L 172 3053 
L 172 3500 
L 594 3500 
L 594 4494 
L 1172 4494 
z
" transform="scale(0.015625)"/>
      <path id="DejaVuSans-67" d="M 2906 1791 
Q 2906 2416 2648 2759 
Q 2391 3103 1925 3103 
Q 1463 3103 1205 2759 
Q 947 2416 947 1791 
Q 947 1169 1205 825 
Q 1463 481 1925 481 
Q 2391 481 2648 825 
Q 2906 1169 2906 1791 
z
M 3481 434 
Q 3481 -459 3084 -895 
Q 2688 -1331 1869 -1331 
Q 1566 -1331 1297 -1286 
Q 1028 -1241 775 -1147 
L 775 -588 
Q 1028 -725 1275 -790 
Q 1522 -856 1778 -856 
Q 2344 -856 2625 -561 
Q 2906 -266 2906 331 
L 2906 616 
Q 2728 306 2450 153 
Q 2172 0 1784 0 
Q 1141 0 747 490 
Q 353 981 353 1791 
Q 353 2603 747 3093 
Q 1141 3584 1784 3584 
Q 2172 3584 2450 3431 
Q 2728 3278 2906 2969 
L 2906 3500 
L 3481 3500 
L 3481 434 
z
" transform="scale(0.015625)"/>
      <path id="DejaVuSans-3e" d="M 678 3150 
L 678 3719 
L 4684 2266 
L 4684 1747 
L 678 294 
L 678 863 
L 3897 2003 
L 678 3150 
z
" transform="scale(0.015625)"/>
      <path id="DejaVuSans-b7" d="M 684 2619 
L 1344 2619 
L 1344 1825 
L 684 1825 
L 684 2619 
z
" transform="scale(0.015625)"/>
      <path id="DejaVuSans-70" d="M 1159 525 
L 1159 -1331 
L 581 -1331 
L 581 3500 
L 1159 3500 
L 1159 2969 
Q 1341 3281 1617 3432 
Q 1894 3584 2278 3584 
Q 2916 3584 3314 3078 
Q 3713 2572 3713 1747 
Q 3713 922 3314 415 
Q 2916 -91 2278 -91 
Q 1894 -91 1617 61 
Q 1341 213 1159 525 
z
M 3116 1747 
Q 3116 2381 2855 2742 
Q 2594 3103 2138 3103 
Q 1681 3103 1420 2742 
Q 1159 2381 1159 1747 
Q 1159 1113 1420 752 
Q 1681 391 2138 391 
Q 2594 391 2855 752 
Q 3116 1113 3116 1747 
z
" transform="scale(0.015625)"/>
      <path id="DejaVuSans-6e" d="M 3513 2113 
L 3513 0 
L 2938 0 
L 2938 2094 
Q 2938 2591 2744 2837 
Q 2550 3084 2163 3084 
Q 1697 3084 1428 2787 
Q 1159 2491 1159 1978 
L 1159 0 
L 581 0 
L 581 3500 
L 1159 3500 
L 1159 2956 
Q 1366 3272 1645 3428 
Q 1925 3584 2291 3584 
Q 2894 3584 3203 3211 
Q 3513 2838 3513 2113 
z
" transform="scale(0.015625)"/>
      <path id="DejaVuSans-28" d="M 1984 4856 
Q 1566 4138 1362 3434 
Q 1159 2731 1159 2009 
Q 1159 1288 1364 580 
Q 1569 -128 1984 -844 
L 1484 -844 
Q 1016 -109 783 600 
Q 550 1309 550 2009 
Q 550 2706 781 3412 
Q 1013 4119 1484 4856 
L 1984 4856 
z
" transform="scale(0.015625)"/>
      <path id="DejaVuSans-63" d="M 3122 3366 
L 3122 2828 
Q 2878 2963 2633 3030 
Q 2388 3097 2138 3097 
Q 1578 3097 1268 2742 
Q 959 2388 959 1747 
Q 959 1106 1268 751 
Q 1578 397 2138 397 
Q 2388 397 2633 464 
Q 2878 531 3122 666 
L 3122 134 
Q 2881 22 2623 -34 
Q 2366 -91 2075 -91 
Q 1284 -91 818 406 
Q 353 903 353 1747 
Q 353 2603 823 3093 
Q 1294 3584 2113 3584 
Q 2378 3584 2631 3529 
Q 2884 3475 3122 3366 
z
" transform="scale(0.015625)"/>
      <path id="DejaVuSans-69" d="M 603 3500 
L 1178 3500 
L 1178 0 
L 603 0 
L 603 3500 
z
M 603 4863 
L 1178 4863 
L 1178 4134 
L 603 4134 
L 603 4863 
z
" transform="scale(0.015625)"/>
      <path id="DejaVuSans-64" d="M 2906 2969 
L 2906 4863 
L 3481 4863 
L 3481 0 
L 2906 0 
L 2906 525 
Q 2725 213 2448 61 
Q 2172 -91 1784 -91 
Q 1150 -91 751 415 
Q 353 922 353 1747 
Q 353 2572 751 3078 
Q 1150 3584 1784 3584 
Q 2172 3584 2448 3432 
Q 2725 3281 2906 2969 
z
M 947 1747 
Q 947 1113 1208 752 
Q 1469 391 1925 391 
Q 2381 391 2643 752 
Q 2906 1113 2906 1747 
Q 2906 2381 2643 2742 
Q 2381 3103 1925 3103 
Q 1469 3103 1208 2742 
Q 947 2381 947 1747 
z
" transform="scale(0.015625)"/>
      <path id="DejaVuSans-79" d="M 2059 -325 
Q 1816 -950 1584 -1140 
Q 1353 -1331 966 -1331 
L 506 -1331 
L 506 -850 
L 844 -850 
Q 1081 -850 1212 -737 
Q 1344 -625 1503 -206 
L 1606 56 
L 191 3500 
L 800 3500 
L 1894 763 
L 2988 3500 
L 3597 3500 
L 2059 -325 
z
" transform="scale(0.015625)"/>
      <path id="DejaVuSans-29" d="M 513 4856 
L 1013 4856 
Q 1481 4119 1714 3412 
Q 1947 2706 1947 2009 
Q 1947 1309 1714 600 
Q 1481 -109 1013 -844 
L 513 -844 
Q 928 -128 1133 580 
Q 1338 1288 1338 2009 
Q 1338 2731 1133 3434 
Q 928 4138 513 4856 
z
" transform="scale(0.015625)"/>
     </defs>
     <use xlink:href="#DejaVuSans-65"/>
     <use xlink:href="#DejaVuSans-76" transform="translate(61.523438 0)"/>
     <use xlink:href="#DejaVuSans-6d" transform="translate(120.703125 0)"/>
     <use xlink:href="#DejaVuSans-6c" transform="translate(218.115234 0)"/>
     <use xlink:href="#DejaVuSans-2d" transform="translate(245.898438 0)"/>
     <use xlink:href="#DejaVuSans-62" transform="translate(281.982422 0)"/>
     <use xlink:href="#DejaVuSans-61" transform="translate(345.458984 0)"/>
     <use xlink:href="#DejaVuSans-73" transform="translate(406.738281 0)"/>
     <use xlink:href="#DejaVuSans-65" transform="translate(458.837891 0)"/>
     <use xlink:href="#DejaVuSans-20" transform="translate(520.361328 0)"/>
     <use xlink:href="#DejaVuSans-20" transform="translate(552.148438 0)"/>
     <use xlink:href="#DejaVuSans-2192" transform="translate(583.935547 0)"/>
     <use xlink:href="#DejaVuSans-20" transform="translate(667.724609 0)"/>
     <use xlink:href="#DejaVuSans-20" transform="translate(699.511719 0)"/>
     <use xlink:href="#DejaVuSans-65" transform="translate(731.298828 0)"/>
     <use xlink:href="#DejaVuSans-76" transform="translate(792.822266 0)"/>
     <use xlink:href="#DejaVuSans-6d" transform="translate(852.001953 0)"/>
     <use xlink:href="#DejaVuSans-6c" transform="translate(949.414062 0)"/>
     <use xlink:href="#DejaVuSans-2d" transform="translate(977.197266 0)"/>
     <use xlink:href="#DejaVuSans-77" transform="translate(1013.28125 0)"/>
     <use xlink:href="#DejaVuSans-6f" transform="translate(1095.068359 0)"/>
     <use xlink:href="#DejaVuSans-72" transform="translate(1156.25 0)"/>
     <use xlink:href="#DejaVuSans-6b" transform="translate(1197.363281 0)"/>
     <use xlink:href="#DejaVuSans-65" transform="translate(1251.648438 0)"/>
     <use xlink:href="#DejaVuSans-72" transform="translate(1313.171875 0)"/>
     <use xlink:href="#DejaVuSans-3a" transform="translate(1352.535156 0)"/>
     <use xlink:href="#DejaVuSans-3c" transform="translate(1386.226562 0)"/>
     <use xlink:href="#DejaVuSans-74" transform="translate(1470.015625 0)"/>
     <use xlink:href="#DejaVuSans-61" transform="translate(1509.224609 0)"/>
     <use xlink:href="#DejaVuSans-67" transform="translate(1570.503906 0)"/>
     <use xlink:href="#DejaVuSans-3e" transform="translate(1633.980469 0)"/>
     <use xlink:href="#DejaVuSans-20" transform="translate(1717.769531 0)"/>
     <use xlink:href="#DejaVuSans-20" transform="translate(1749.556641 0)"/>
     <use xlink:href="#DejaVuSans-20" transform="translate(1781.34375 0)"/>
     <use xlink:href="#DejaVuSans-b7" transform="translate(1813.130859 0)"/>
     <use xlink:href="#DejaVuSans-20" transform="translate(1844.917969 0)"/>
     <use xlink:href="#DejaVuSans-20" transform="translate(1876.705078 0)"/>
     <use xlink:href="#DejaVuSans-20" transform="translate(1908.492188 0)"/>
     <use xlink:href="#DejaVuSans-65" transform="translate(1940.279297 0)"/>
     <use xlink:href="#DejaVuSans-76" transform="translate(2001.802734 0)"/>
     <use xlink:href="#DejaVuSans-6d" transform="translate(2060.982422 0)"/>
     <use xlink:href="#DejaVuSans-6c" transform="translate(2158.394531 0)"/>
     <use xlink:href="#DejaVuSans-2d" transform="translate(2186.177734 0)"/>
     <use xlink:href="#DejaVuSans-70" transform="translate(2222.261719 0)"/>
     <use xlink:href="#DejaVuSans-6c" transform="translate(2285.738281 0)"/>
     <use xlink:href="#DejaVuSans-61" transform="translate(2313.521484 0)"/>
     <use xlink:href="#DejaVuSans-6e" transform="translate(2374.800781 0)"/>
     <use xlink:href="#DejaVuSans-6e" transform="translate(2438.179688 0)"/>
     <use xlink:href="#DejaVuSans-65" transform="translate(2501.558594 0)"/>
     <use xlink:href="#DejaVuSans-72" transform="translate(2563.082031 0)"/>
     <use xlink:href="#DejaVuSans-3a" transform="translate(2602.445312 0)"/>
     <use xlink:href="#DejaVuSans-3c" transform="translate(2636.136719 0)"/>
     <use xlink:href="#DejaVuSans-74" transform="translate(2719.925781 0)"/>
     <use xlink:href="#DejaVuSans-61" transform="translate(2759.134766 0)"/>
     <use xlink:href="#DejaVuSans-67" transform="translate(2820.414062 0)"/>
     <use xlink:href="#DejaVuSans-3e" transform="translate(2883.890625 0)"/>
     <use xlink:href="#DejaVuSans-20" transform="translate(2967.679688 0)"/>
     <use xlink:href="#DejaVuSans-20" transform="translate(2999.466797 0)"/>
     <use xlink:href="#DejaVuSans-20" transform="translate(3031.253906 0)"/>
     <use xlink:href="#DejaVuSans-20" transform="translate(3063.041016 0)"/>
     <use xlink:href="#DejaVuSans-20" transform="translate(3094.828125 0)"/>
     <use xlink:href="#DejaVuSans-20" transform="translate(3126.615234 0)"/>
     <use xlink:href="#DejaVuSans-28" transform="translate(3158.402344 0)"/>
     <use xlink:href="#DejaVuSans-63" transform="translate(3197.416016 0)"/>
     <use xlink:href="#DejaVuSans-6c" transform="translate(3252.396484 0)"/>
     <use xlink:href="#DejaVuSans-69" transform="translate(3280.179688 0)"/>
     <use xlink:href="#DejaVuSans-65" transform="translate(3307.962891 0)"/>
     <use xlink:href="#DejaVuSans-6e" transform="translate(3369.486328 0)"/>
     <use xlink:href="#DejaVuSans-74" transform="translate(3432.865234 0)"/>
     <use xlink:href="#DejaVuSans-20" transform="translate(3472.074219 0)"/>
     <use xlink:href="#DejaVuSans-76" transform="translate(3503.861328 0)"/>
     <use xlink:href="#DejaVuSans-65" transform="translate(3563.041016 0)"/>
     <use xlink:href="#DejaVuSans-72" transform="translate(3624.564453 0)"/>
     <use xlink:href="#DejaVuSans-73" transform="translate(3665.677734 0)"/>
     <use xlink:href="#DejaVuSans-69" transform="translate(3717.777344 0)"/>
     <use xlink:href="#DejaVuSans-6f" transform="translate(3745.560547 0)"/>
     <use xlink:href="#DejaVuSans-6e" transform="translate(3806.742188 0)"/>
     <use xlink:href="#DejaVuSans-73" transform="translate(3870.121094 0)"/>
     <use xlink:href="#DejaVuSans-20" transform="translate(3922.220703 0)"/>
     <use xlink:href="#DejaVuSans-70" transform="translate(3954.007812 0)"/>
     <use xlink:href="#DejaVuSans-69" transform="translate(4017.484375 0)"/>
     <use xlink:href="#DejaVuSans-6e" transform="translate(4045.267578 0)"/>
     <use xlink:href="#DejaVuSans-6e" transform="translate(4108.646484 0)"/>
     <use xlink:href="#DejaVuSans-65" transform="translate(4172.025391 0)"/>
     <use xlink:href="#DejaVuSans-64" transform="translate(4233.548828 0)"/>
     <use xlink:href="#DejaVuSans-20" transform="translate(4297.025391 0)"/>
     <use xlink:href="#DejaVuSans-62" transform="translate(4328.8125 0)"/>
     <use xlink:href="#DejaVuSans-79" transform="translate(4392.289062 0)"/>
     <use xlink:href="#DejaVuSans-20" transform="translate(4451.46875 0)"/>
     <use xlink:href="#DejaVuSans-74" transform="translate(4483.255859 0)"/>
     <use xlink:href="#DejaVuSans-61" transform="translate(4522.464844 0)"/>
     <use xlink:href="#DejaVuSans-67" transform="translate(4583.744141 0)"/>
     <use xlink:href="#DejaVuSans-29" transform="translate(4647.220703 0)"/>
    </g>
   </g>
   <g id="text_3">
    <!-- Coordinator host  (container optional) -->
    <g style="fill: #1c1c1c" transform="translate(44.503945 222.979806) scale(0.095 -0.095)">
     <defs>
      <path id="DejaVuSans-Bold-64" d="M 2919 2988 
L 2919 4863 
L 4044 4863 
L 4044 0 
L 2919 0 
L 2919 506 
Q 2688 197 2409 53 
Q 2131 -91 1766 -91 
Q 1119 -91 703 423 
Q 288 938 288 1747 
Q 288 2556 703 3070 
Q 1119 3584 1766 3584 
Q 2128 3584 2408 3439 
Q 2688 3294 2919 2988 
z
M 2181 722 
Q 2541 722 2730 984 
Q 2919 1247 2919 1747 
Q 2919 2247 2730 2509 
Q 2541 2772 2181 2772 
Q 1825 2772 1636 2509 
Q 1447 2247 1447 1747 
Q 1447 1247 1636 984 
Q 1825 722 2181 722 
z
" transform="scale(0.015625)"/>
      <path id="DejaVuSans-Bold-68" d="M 4056 2131 
L 4056 0 
L 2931 0 
L 2931 347 
L 2931 1625 
Q 2931 2084 2911 2256 
Q 2891 2428 2841 2509 
Q 2775 2619 2662 2680 
Q 2550 2741 2406 2741 
Q 2056 2741 1856 2470 
Q 1656 2200 1656 1722 
L 1656 0 
L 538 0 
L 538 4863 
L 1656 4863 
L 1656 2988 
Q 1909 3294 2193 3439 
Q 2478 3584 2822 3584 
Q 3428 3584 3742 3212 
Q 4056 2841 4056 2131 
z
" transform="scale(0.015625)"/>
      <path id="DejaVuSans-Bold-28" d="M 2413 -844 
L 1484 -844 
Q 1006 -72 778 623 
Q 550 1319 550 2003 
Q 550 2688 779 3389 
Q 1009 4091 1484 4856 
L 2413 4856 
Q 2013 4116 1813 3408 
Q 1613 2700 1613 2009 
Q 1613 1319 1811 609 
Q 2009 -100 2413 -844 
z
" transform="scale(0.015625)"/>
      <path id="DejaVuSans-Bold-63" d="M 3366 3391 
L 3366 2478 
Q 3138 2634 2908 2709 
Q 2678 2784 2431 2784 
Q 1963 2784 1702 2511 
Q 1441 2238 1441 1747 
Q 1441 1256 1702 982 
Q 1963 709 2431 709 
Q 2694 709 2930 787 
Q 3166 866 3366 1019 
L 3366 103 
Q 3103 6 2833 -42 
Q 2563 -91 2291 -91 
Q 1344 -91 809 395 
Q 275 881 275 1747 
Q 275 2613 809 3098 
Q 1344 3584 2291 3584 
Q 2566 3584 2833 3536 
Q 3100 3488 3366 3391 
z
" transform="scale(0.015625)"/>
      <path id="DejaVuSans-Bold-70" d="M 1656 506 
L 1656 -1331 
L 538 -1331 
L 538 3500 
L 1656 3500 
L 1656 2988 
Q 1888 3294 2169 3439 
Q 2450 3584 2816 3584 
Q 3463 3584 3878 3070 
Q 4294 2556 4294 1747 
Q 4294 938 3878 423 
Q 3463 -91 2816 -91 
Q 2450 -91 2169 54 
Q 1888 200 1656 506 
z
M 2400 2772 
Q 2041 2772 1848 2508 
Q 1656 2244 1656 1747 
Q 1656 1250 1848 986 
Q 2041 722 2400 722 
Q 2759 722 2948 984 
Q 3138 1247 3138 1747 
Q 3138 2247 2948 2509 
Q 2759 2772 2400 2772 
z
" transform="scale(0.015625)"/>
      <path id="DejaVuSans-Bold-6c" d="M 538 4863 
L 1656 4863 
L 1656 0 
L 538 0 
L 538 4863 
z
" transform="scale(0.015625)"/>
      <path id="DejaVuSans-Bold-29" d="M 513 -844 
Q 913 -100 1113 609 
Q 1313 1319 1313 2009 
Q 1313 2700 1113 3408 
Q 913 4116 513 4856 
L 1441 4856 
Q 1916 4091 2145 3389 
Q 2375 2688 2375 2003 
Q 2375 1319 2147 623 
Q 1919 -72 1441 -844 
L 513 -844 
z
" transform="scale(0.015625)"/>
     </defs>
     <use xlink:href="#DejaVuSans-Bold-43"/>
     <use xlink:href="#DejaVuSans-Bold-6f" transform="translate(73.388672 0)"/>
     <use xlink:href="#DejaVuSans-Bold-6f" transform="translate(142.089844 0)"/>
     <use xlink:href="#DejaVuSans-Bold-72" transform="translate(210.791016 0)"/>
     <use xlink:href="#DejaVuSans-Bold-64" transform="translate(260.107422 0)"/>
     <use xlink:href="#DejaVuSans-Bold-69" transform="translate(331.689453 0)"/>
     <use xlink:href="#DejaVuSans-Bold-6e" transform="translate(365.966797 0)"/>
     <use xlink:href="#DejaVuSans-Bold-61" transform="translate(437.158203 0)"/>
     <use xlink:href="#DejaVuSans-Bold-74" transform="translate(504.638672 0)"/>
     <use xlink:href="#DejaVuSans-Bold-6f" transform="translate(552.441406 0)"/>
     <use xlink:href="#DejaVuSans-Bold-72" transform="translate(621.142578 0)"/>
     <use xlink:href="#DejaVuSans-Bold-20" transform="translate(670.458984 0)"/>
     <use xlink:href="#DejaVuSans-Bold-68" transform="translate(705.273438 0)"/>
     <use xlink:href="#DejaVuSans-Bold-6f" transform="translate(776.464844 0)"/>
     <use xlink:href="#DejaVuSans-Bold-73" transform="translate(845.166016 0)"/>
     <use xlink:href="#DejaVuSans-Bold-74" transform="translate(904.6875 0)"/>
     <use xlink:href="#DejaVuSans-Bold-20" transform="translate(952.490234 0)"/>
     <use xlink:href="#DejaVuSans-Bold-20" transform="translate(987.304688 0)"/>
     <use xlink:href="#DejaVuSans-Bold-28" transform="translate(1022.119141 0)"/>
     <use xlink:href="#DejaVuSans-Bold-63" transform="translate(1067.822266 0)"/>
     <use xlink:href="#DejaVuSans-Bold-6f" transform="translate(1127.099609 0)"/>
     <use xlink:href="#DejaVuSans-Bold-6e" transform="translate(1195.800781 0)"/>
     <use xlink:href="#DejaVuSans-Bold-74" transform="translate(1266.992188 0)"/>
     <use xlink:href="#DejaVuSans-Bold-61" transform="translate(1314.794922 0)"/>
     <use xlink:href="#DejaVuSans-Bold-69" transform="translate(1382.275391 0)"/>
     <use xlink:href="#DejaVuSans-Bold-6e" transform="translate(1416.552734 0)"/>
     <use xlink:href="#DejaVuSans-Bold-65" transform="translate(1487.744141 0)"/>
     <use xlink:href="#DejaVuSans-Bold-72" transform="translate(1555.566406 0)"/>
     <use xlink:href="#DejaVuSans-Bold-20" transform="translate(1604.882812 0)"/>
     <use xlink:href="#DejaVuSans-Bold-6f" transform="translate(1639.697266 0)"/>
     <use xlink:href="#DejaVuSans-Bold-70" transform="translate(1708.398438 0)"/>
     <use xlink:href="#DejaVuSans-Bold-74" transform="translate(1779.980469 0)"/>
     <use xlink:href="#DejaVuSans-Bold-69" transform="translate(1827.783203 0)"/>
     <use xlink:href="#DejaVuSans-Bold-6f" transform="translate(1862.060547 0)"/>
     <use xlink:href="#DejaVuSans-Bold-6e" transform="translate(1930.761719 0)"/>
     <use xlink:href="#DejaVuSans-Bold-61" transform="translate(2001.953125 0)"/>
     <use xlink:href="#DejaVuSans-Bold-6c" transform="translate(2069.433594 0)"/>
     <use xlink:href="#DejaVuSans-Bold-29" transform="translate(2103.710938 0)"/>
    </g>
   </g>
   <g id="text_4">
    <!-- coordinator -->
    <g style="fill: #1c1c1c" transform="translate(119.033562 262.687155) scale(0.084 -0.084)">
     <use xlink:href="#DejaVuSans-Bold-63"/>
     <use xlink:href="#DejaVuSans-Bold-6f" transform="translate(59.277344 0)"/>
     <use xlink:href="#DejaVuSans-Bold-6f" transform="translate(127.978516 0)"/>
     <use xlink:href="#DejaVuSans-Bold-72" transform="translate(196.679688 0)"/>
     <use xlink:href="#DejaVuSans-Bold-64" transform="translate(245.996094 0)"/>
     <use xlink:href="#DejaVuSans-Bold-69" transform="translate(317.578125 0)"/>
     <use xlink:href="#DejaVuSans-Bold-6e" transform="translate(351.855469 0)"/>
     <use xlink:href="#DejaVuSans-Bold-61" transform="translate(423.046875 0)"/>
     <use xlink:href="#DejaVuSans-Bold-74" transform="translate(490.527344 0)"/>
     <use xlink:href="#DejaVuSans-Bold-6f" transform="translate(538.330078 0)"/>
     <use xlink:href="#DejaVuSans-Bold-72" transform="translate(607.03125 0)"/>
    </g>
   </g>
   <g id="text_5">
    <!-- process or container -->
    <g style="fill: #1c1c1c" transform="translate(110.762734 283.791402) scale(0.07 -0.07)">
     <use xlink:href="#DejaVuSans-70"/>
     <use xlink:href="#DejaVuSans-72" transform="translate(63.476562 0)"/>
     <use xlink:href="#DejaVuSans-6f" transform="translate(102.339844 0)"/>
     <use xlink:href="#DejaVuSans-63" transform="translate(163.521484 0)"/>
     <use xlink:href="#DejaVuSans-65" transform="translate(218.501953 0)"/>
     <use xlink:href="#DejaVuSans-73" transform="translate(280.025391 0)"/>
     <use xlink:href="#DejaVuSans-73" transform="translate(332.125 0)"/>
     <use xlink:href="#DejaVuSans-20" transform="translate(384.224609 0)"/>
     <use xlink:href="#DejaVuSans-6f" transform="translate(416.011719 0)"/>
     <use xlink:href="#DejaVuSans-72" transform="translate(477.193359 0)"/>
     <use xlink:href="#DejaVuSans-20" transform="translate(518.306641 0)"/>
     <use xlink:href="#DejaVuSans-63" transform="translate(550.09375 0)"/>
     <use xlink:href="#DejaVuSans-6f" transform="translate(605.074219 0)"/>
     <use xlink:href="#DejaVuSans-6e" transform="translate(666.255859 0)"/>
     <use xlink:href="#DejaVuSans-74" transform="translate(729.634766 0)"/>
     <use xlink:href="#DejaVuSans-61" transform="translate(768.84375 0)"/>
     <use xlink:href="#DejaVuSans-69" transform="translate(830.123047 0)"/>
     <use xlink:href="#DejaVuSans-6e" transform="translate(857.90625 0)"/>
     <use xlink:href="#DejaVuSans-65" transform="translate(921.285156 0)"/>
     <use xlink:href="#DejaVuSans-72" transform="translate(982.808594 0)"/>
    </g>
   </g>
   <g id="patch_20">
    <path d="M 146.6 367.58912 
C 163.997323 367.58912 180.68444 366.552046 192.986205 364.706301 
C 205.28797 362.860556 212.2 360.356837 212.2 357.74656 
C 212.2 355.136283 205.28797 352.632564 192.986205 350.786819 
C 180.68444 348.941074 163.997323 347.904 146.6 347.904 
C 129.202677 347.904 112.51556 348.941074 100.213795 350.786819 
C 87.91203 352.632564 81 355.136283 81 357.74656 
C 81 360.356837 87.91203 362.860556 100.213795 364.706301 
C 112.51556 366.552046 129.202677 367.58912 146.6 367.58912 
z
" clip-path="url(#p3450364e24)" style="fill: #e7d6f0; stroke: #8a5aa8; stroke-width: 1.4; stroke-linejoin: miter"/>
   </g>
   <g id="text_6">
    <!-- GPU host -->
    <g style="fill: #1c1c1c" transform="translate(408.966797 199.683806) scale(0.095 -0.095)">
     <defs>
      <path id="DejaVuSans-Bold-47" d="M 4781 347 
Q 4331 128 3847 18 
Q 3363 -91 2847 -91 
Q 1681 -91 1000 561 
Q 319 1213 319 2328 
Q 319 3456 1012 4103 
Q 1706 4750 2913 4750 
Q 3378 4750 3804 4662 
Q 4231 4575 4609 4403 
L 4609 3438 
Q 4219 3659 3833 3768 
Q 3447 3878 3059 3878 
Q 2341 3878 1952 3476 
Q 1563 3075 1563 2328 
Q 1563 1588 1938 1184 
Q 2313 781 3003 781 
Q 3191 781 3352 804 
Q 3513 828 3641 878 
L 3641 1784 
L 2906 1784 
L 2906 2591 
L 4781 2591 
L 4781 347 
z
" transform="scale(0.015625)"/>
      <path id="DejaVuSans-Bold-50" d="M 588 4666 
L 2584 4666 
Q 3475 4666 3951 4270 
Q 4428 3875 4428 3144 
Q 4428 2409 3951 2014 
Q 3475 1619 2584 1619 
L 1791 1619 
L 1791 0 
L 588 0 
L 588 4666 
z
M 1791 3794 
L 1791 2491 
L 2456 2491 
Q 2806 2491 2997 2661 
Q 3188 2831 3188 3144 
Q 3188 3456 2997 3625 
Q 2806 3794 2456 3794 
L 1791 3794 
z
" transform="scale(0.015625)"/>
      <path id="DejaVuSans-Bold-55" d="M 588 4666 
L 1791 4666 
L 1791 1869 
Q 1791 1291 1980 1042 
Q 2169 794 2597 794 
Q 3028 794 3217 1042 
Q 3406 1291 3406 1869 
L 3406 4666 
L 4609 4666 
L 4609 1869 
Q 4609 878 4112 393 
Q 3616 -91 2597 -91 
Q 1581 -91 1084 393 
Q 588 878 588 1869 
L 588 4666 
z
" transform="scale(0.015625)"/>
     </defs>
     <use xlink:href="#DejaVuSans-Bold-47"/>
     <use xlink:href="#DejaVuSans-Bold-50" transform="translate(82.080078 0)"/>
     <use xlink:href="#DejaVuSans-Bold-55" transform="translate(155.371094 0)"/>
     <use xlink:href="#DejaVuSans-Bold-20" transform="translate(236.572266 0)"/>
     <use xlink:href="#DejaVuSans-Bold-68" transform="translate(271.386719 0)"/>
     <use xlink:href="#DejaVuSans-Bold-6f" transform="translate(342.578125 0)"/>
     <use xlink:href="#DejaVuSans-Bold-73" transform="translate(411.279297 0)"/>
     <use xlink:href="#DejaVuSans-Bold-74" transform="translate(470.800781 0)"/>
    </g>
   </g>
   <g id="text_7">
    <!-- planner container -->
    <g style="fill: #1c1c1c" transform="translate(391.401156 227.743155) scale(0.084 -0.084)">
     <use xlink:href="#DejaVuSans-Bold-70"/>
     <use xlink:href="#DejaVuSans-Bold-6c" transform="translate(71.582031 0)"/>
     <use xlink:href="#DejaVuSans-Bold-61" transform="translate(105.859375 0)"/>
     <use xlink:href="#DejaVuSans-Bold-6e" transform="translate(173.339844 0)"/>
     <use xlink:href="#DejaVuSans-Bold-6e" transform="translate(244.53125 0)"/>
     <use xlink:href="#DejaVuSans-Bold-65" transform="translate(315.722656 0)"/>
     <use xlink:href="#DejaVuSans-Bold-72" transform="translate(383.544922 0)"/>
     <use xlink:href="#DejaVuSans-Bold-20" transform="translate(432.861328 0)"/>
     <use xlink:href="#DejaVuSans-Bold-63" transform="translate(467.675781 0)"/>
     <use xlink:href="#DejaVuSans-Bold-6f" transform="translate(526.953125 0)"/>
     <use xlink:href="#DejaVuSans-Bold-6e" transform="translate(595.654297 0)"/>
     <use xlink:href="#DejaVuSans-Bold-74" transform="translate(666.845703 0)"/>
     <use xlink:href="#DejaVuSans-Bold-61" transform="translate(714.648438 0)"/>
     <use xlink:href="#DejaVuSans-Bold-69" transform="translate(782.128906 0)"/>
     <use xlink:href="#DejaVuSans-Bold-6e" transform="translate(816.40625 0)"/>
     <use xlink:href="#DejaVuSans-Bold-65" transform="translate(887.597656 0)"/>
     <use xlink:href="#DejaVuSans-Bold-72" transform="translate(955.419922 0)"/>
    </g>
   </g>
   <g id="text_8">
    <!-- - -gpus all -->
    <g style="fill: #1c1c1c" transform="translate(417.387344 248.847402) scale(0.07 -0.07)">
     <defs>
      <path id="DejaVuSans-75" d="M 544 1381 
L 544 3500 
L 1119 3500 
L 1119 1403 
Q 1119 906 1312 657 
Q 1506 409 1894 409 
Q 2359 409 2629 706 
Q 2900 1003 2900 1516 
L 2900 3500 
L 3475 3500 
L 3475 0 
L 2900 0 
L 2900 538 
Q 2691 219 2414 64 
Q 2138 -91 1772 -91 
Q 1169 -91 856 284 
Q 544 659 544 1381 
z
M 1991 3584 
L 1991 3584 
z
" transform="scale(0.015625)"/>
     </defs>
     <use xlink:href="#DejaVuSans-2d"/>
     <use xlink:href="#DejaVuSans-2d" transform="translate(36.083984 0)"/>
     <use xlink:href="#DejaVuSans-67" transform="translate(72.167969 0)"/>
     <use xlink:href="#DejaVuSans-70" transform="translate(135.644531 0)"/>
     <use xlink:href="#DejaVuSans-75" transform="translate(199.121094 0)"/>
     <use xlink:href="#DejaVuSans-73" transform="translate(262.5 0)"/>
     <use xlink:href="#DejaVuSans-20" transform="translate(314.599609 0)"/>
     <use xlink:href="#DejaVuSans-61" transform="translate(346.386719 0)"/>
     <use xlink:href="#DejaVuSans-6c" transform="translate(407.666016 0)"/>
     <use xlink:href="#DejaVuSans-6c" transform="translate(435.449219 0)"/>
    </g>
   </g>
   <g id="text_9">
    <!-- worker container -->
    <g style="fill: #1c1c1c" transform="translate(393.141531 297.631155) scale(0.084 -0.084)">
     <defs>
      <path id="DejaVuSans-Bold-77" d="M 225 3500 
L 1313 3500 
L 1900 1088 
L 2491 3500 
L 3425 3500 
L 4013 1113 
L 4603 3500 
L 5691 3500 
L 4769 0 
L 3547 0 
L 2956 2406 
L 2369 0 
L 1147 0 
L 225 3500 
z
" transform="scale(0.015625)"/>
      <path id="DejaVuSans-Bold-6b" d="M 538 4863 
L 1656 4863 
L 1656 2216 
L 2944 3500 
L 4244 3500 
L 2534 1894 
L 4378 0 
L 3022 0 
L 1656 1459 
L 1656 0 
L 538 0 
L 538 4863 
z
" transform="scale(0.015625)"/>
     </defs>
     <use xlink:href="#DejaVuSans-Bold-77"/>
     <use xlink:href="#DejaVuSans-Bold-6f" transform="translate(92.382812 0)"/>
     <use xlink:href="#DejaVuSans-Bold-72" transform="translate(161.083984 0)"/>
     <use xlink:href="#DejaVuSans-Bold-6b" transform="translate(210.400391 0)"/>
     <use xlink:href="#DejaVuSans-Bold-65" transform="translate(274.279297 0)"/>
     <use xlink:href="#DejaVuSans-Bold-72" transform="translate(342.101562 0)"/>
     <use xlink:href="#DejaVuSans-Bold-20" transform="translate(391.417969 0)"/>
     <use xlink:href="#DejaVuSans-Bold-63" transform="translate(426.232422 0)"/>
     <use xlink:href="#DejaVuSans-Bold-6f" transform="translate(485.509766 0)"/>
     <use xlink:href="#DejaVuSans-Bold-6e" transform="translate(554.210938 0)"/>
     <use xlink:href="#DejaVuSans-Bold-74" transform="translate(625.402344 0)"/>
     <use xlink:href="#DejaVuSans-Bold-61" transform="translate(673.205078 0)"/>
     <use xlink:href="#DejaVuSans-Bold-69" transform="translate(740.685547 0)"/>
     <use xlink:href="#DejaVuSans-Bold-6e" transform="translate(774.962891 0)"/>
     <use xlink:href="#DejaVuSans-Bold-65" transform="translate(846.154297 0)"/>
     <use xlink:href="#DejaVuSans-Bold-72" transform="translate(913.976562 0)"/>
    </g>
   </g>
   <g id="text_10">
    <!-- stop to free CPU -->
    <g style="fill: #1c1c1c" transform="translate(405.175078 318.735402) scale(0.07 -0.07)">
     <defs>
      <path id="DejaVuSans-66" d="M 2375 4863 
L 2375 4384 
L 1825 4384 
Q 1516 4384 1395 4259 
Q 1275 4134 1275 3809 
L 1275 3500 
L 2222 3500 
L 2222 3053 
L 1275 3053 
L 1275 0 
L 697 0 
L 697 3053 
L 147 3053 
L 147 3500 
L 697 3500 
L 697 3744 
Q 697 4328 969 4595 
Q 1241 4863 1831 4863 
L 2375 4863 
z
" transform="scale(0.015625)"/>
      <path id="DejaVuSans-43" d="M 4122 4306 
L 4122 3641 
Q 3803 3938 3442 4084 
Q 3081 4231 2675 4231 
Q 1875 4231 1450 3742 
Q 1025 3253 1025 2328 
Q 1025 1406 1450 917 
Q 1875 428 2675 428 
Q 3081 428 3442 575 
Q 3803 722 4122 1019 
L 4122 359 
Q 3791 134 3420 21 
Q 3050 -91 2638 -91 
Q 1578 -91 968 557 
Q 359 1206 359 2328 
Q 359 3453 968 4101 
Q 1578 4750 2638 4750 
Q 3056 4750 3426 4639 
Q 3797 4528 4122 4306 
z
" transform="scale(0.015625)"/>
      <path id="DejaVuSans-50" d="M 1259 4147 
L 1259 2394 
L 2053 2394 
Q 2494 2394 2734 2622 
Q 2975 2850 2975 3272 
Q 2975 3691 2734 3919 
Q 2494 4147 2053 4147 
L 1259 4147 
z
M 628 4666 
L 2053 4666 
Q 2838 4666 3239 4311 
Q 3641 3956 3641 3272 
Q 3641 2581 3239 2228 
Q 2838 1875 2053 1875 
L 1259 1875 
L 1259 0 
L 628 0 
L 628 4666 
z
" transform="scale(0.015625)"/>
      <path id="DejaVuSans-55" d="M 556 4666 
L 1191 4666 
L 1191 1831 
Q 1191 1081 1462 751 
Q 1734 422 2344 422 
Q 2950 422 3222 751 
Q 3494 1081 3494 1831 
L 3494 4666 
L 4128 4666 
L 4128 1753 
Q 4128 841 3676 375 
Q 3225 -91 2344 -91 
Q 1459 -91 1007 375 
Q 556 841 556 1753 
L 556 4666 
z
" transform="scale(0.015625)"/>
     </defs>
     <use xlink:href="#DejaVuSans-73"/>
     <use xlink:href="#DejaVuSans-74" transform="translate(52.099609 0)"/>
     <use xlink:href="#DejaVuSans-6f" transform="translate(91.308594 0)"/>
     <use xlink:href="#DejaVuSans-70" transform="translate(152.490234 0)"/>
     <use xlink:href="#DejaVuSans-20" transform="translate(215.966797 0)"/>
     <use xlink:href="#DejaVuSans-74" transform="translate(247.753906 0)"/>
     <use xlink:href="#DejaVuSans-6f" transform="translate(286.962891 0)"/>
     <use xlink:href="#DejaVuSans-20" transform="translate(348.144531 0)"/>
     <use xlink:href="#DejaVuSans-66" transform="translate(379.931641 0)"/>
     <use xlink:href="#DejaVuSans-72" transform="translate(415.136719 0)"/>
     <use xlink:href="#DejaVuSans-65" transform="translate(454 0)"/>
     <use xlink:href="#DejaVuSans-65" transform="translate(515.523438 0)"/>
     <use xlink:href="#DejaVuSans-20" transform="translate(577.046875 0)"/>
     <use xlink:href="#DejaVuSans-43" transform="translate(608.833984 0)"/>
     <use xlink:href="#DejaVuSans-50" transform="translate(678.658203 0)"/>
     <use xlink:href="#DejaVuSans-55" transform="translate(738.960938 0)"/>
    </g>
   </g>
   <g id="patch_21">
    <path d="M 359.8 392.28288 
C 375.022658 392.28288 389.623885 391.325581 400.387929 389.621816 
C 411.151974 387.918052 417.2 385.606927 417.2 383.19744 
C 417.2 380.787953 411.151974 378.476828 400.387929 376.773064 
C 389.623885 375.069299 375.022658 374.112 359.8 374.112 
C 344.577342 374.112 329.976115 375.069299 319.212071 376.773064 
C 308.448026 378.476828 302.4 380.787953 302.4 383.19744 
C 302.4 385.606927 308.448026 387.918052 319.212071 389.621816 
C 329.976115 391.325581 344.577342 392.28288 359.8 392.28288 
z
" clip-path="url(#p3450364e24)" style="fill: #e7d6f0; stroke: #8a5aa8; stroke-width: 1.4; stroke-linejoin: miter"/>
   </g>
   <g id="patch_22">
    <path d="M 507.4 392.28288 
C 522.622658 392.28288 537.223885 391.325581 547.987929 389.621816 
C 558.751974 387.918052 564.8 385.606927 564.8 383.19744 
C 564.8 380.787953 558.751974 378.476828 547.987929 376.773064 
C 537.223885 375.069299 522.622658 374.112 507.4 374.112 
C 492.177342 374.112 477.576115 375.069299 466.812071 376.773064 
C 456.048026 378.476828 450 380.787953 450 383.19744 
C 450 385.606927 456.048026 387.918052 466.812071 389.621816 
C 477.576115 391.325581 492.177342 392.28288 507.4 392.28288 
z
" clip-path="url(#p3450364e24)" style="fill: #e7d6f0; stroke: #8a5aa8; stroke-width: 1.4; stroke-linejoin: miter"/>
   </g>
   <g id="text_11">
    <!-- CPU host -->
    <g style="fill: #1c1c1c" transform="translate(679.979453 222.979806) scale(0.095 -0.095)">
     <use xlink:href="#DejaVuSans-Bold-43"/>
     <use xlink:href="#DejaVuSans-Bold-50" transform="translate(73.388672 0)"/>
     <use xlink:href="#DejaVuSans-Bold-55" transform="translate(146.679688 0)"/>
     <use xlink:href="#DejaVuSans-Bold-20" transform="translate(227.880859 0)"/>
     <use xlink:href="#DejaVuSans-Bold-68" transform="translate(262.695312 0)"/>
     <use xlink:href="#DejaVuSans-Bold-6f" transform="translate(333.886719 0)"/>
     <use xlink:href="#DejaVuSans-Bold-73" transform="translate(402.587891 0)"/>
     <use xlink:href="#DejaVuSans-Bold-74" transform="translate(462.109375 0)"/>
    </g>
   </g>
   <g id="text_12">
    <!-- worker container -->
    <g style="fill: #1c1c1c" transform="translate(663.741531 271.597875) scale(0.084 -0.084)">
     <use xlink:href="#DejaVuSans-Bold-77"/>
     <use xlink:href="#DejaVuSans-Bold-6f" transform="translate(92.382812 0)"/>
     <use xlink:href="#DejaVuSans-Bold-72" transform="translate(161.083984 0)"/>
     <use xlink:href="#DejaVuSans-Bold-6b" transform="translate(210.400391 0)"/>
     <use xlink:href="#DejaVuSans-Bold-65" transform="translate(274.279297 0)"/>
     <use xlink:href="#DejaVuSans-Bold-72" transform="translate(342.101562 0)"/>
     <use xlink:href="#DejaVuSans-Bold-20" transform="translate(391.417969 0)"/>
     <use xlink:href="#DejaVuSans-Bold-63" transform="translate(426.232422 0)"/>
     <use xlink:href="#DejaVuSans-Bold-6f" transform="translate(485.509766 0)"/>
     <use xlink:href="#DejaVuSans-Bold-6e" transform="translate(554.210938 0)"/>
     <use xlink:href="#DejaVuSans-Bold-74" transform="translate(625.402344 0)"/>
     <use xlink:href="#DejaVuSans-Bold-61" transform="translate(673.205078 0)"/>
     <use xlink:href="#DejaVuSans-Bold-69" transform="translate(740.685547 0)"/>
     <use xlink:href="#DejaVuSans-Bold-6e" transform="translate(774.962891 0)"/>
     <use xlink:href="#DejaVuSans-Bold-65" transform="translate(846.154297 0)"/>
     <use xlink:href="#DejaVuSans-Bold-72" transform="translate(913.976562 0)"/>
    </g>
   </g>
   <g id="patch_23">
    <path d="M 704.2 368.98688 
C 721.597323 368.98688 738.28444 368.029581 750.586205 366.325816 
C 762.88797 364.622052 769.8 362.310927 769.8 359.90144 
C 769.8 357.491953 762.88797 355.180828 750.586205 353.477064 
C 738.28444 351.773299 721.597323 350.816 704.2 350.816 
C 686.802677 350.816 670.11556 351.773299 657.813795 353.477064 
C 645.51203 355.180828 638.6 357.491953 638.6 359.90144 
C 638.6 362.310927 645.51203 364.622052 657.813795 366.325816 
C 670.11556 368.029581 686.802677 368.98688 704.2 368.98688 
z
" clip-path="url(#p3450364e24)" style="fill: #e7d6f0; stroke: #8a5aa8; stroke-width: 1.4; stroke-linejoin: miter"/>
   </g>
   <g id="text_13">
    <!-- all hosts on the VPN   ·   containers use - -network host -->
    <g style="fill: #1c1c1c" transform="translate(333.041875 539.3915) scale(0.08 -0.08)">
     <defs>
      <path id="DejaVuSans-68" d="M 3513 2113 
L 3513 0 
L 2938 0 
L 2938 2094 
Q 2938 2591 2744 2837 
Q 2550 3084 2163 3084 
Q 1697 3084 1428 2787 
Q 1159 2491 1159 1978 
L 1159 0 
L 581 0 
L 581 4863 
L 1159 4863 
L 1159 2956 
Q 1366 3272 1645 3428 
Q 1925 3584 2291 3584 
Q 2894 3584 3203 3211 
Q 3513 2838 3513 2113 
z
" transform="scale(0.015625)"/>
      <path id="DejaVuSans-56" d="M 1831 0 
L 50 4666 
L 709 4666 
L 2188 738 
L 3669 4666 
L 4325 4666 
L 2547 0 
L 1831 0 
z
" transform="scale(0.015625)"/>
      <path id="DejaVuSans-4e" d="M 628 4666 
L 1478 4666 
L 3547 763 
L 3547 4666 
L 4159 4666 
L 4159 0 
L 3309 0 
L 1241 3903 
L 1241 0 
L 628 0 
L 628 4666 
z
" transform="scale(0.015625)"/>
     </defs>
     <use xlink:href="#DejaVuSans-61"/>
     <use xlink:href="#DejaVuSans-6c" transform="translate(61.279297 0)"/>
     <use xlink:href="#DejaVuSans-6c" transform="translate(89.0625 0)"/>
     <use xlink:href="#DejaVuSans-20" transform="translate(116.845703 0)"/>
     <use xlink:href="#DejaVuSans-68" transform="translate(148.632812 0)"/>
     <use xlink:href="#DejaVuSans-6f" transform="translate(212.011719 0)"/>
     <use xlink:href="#DejaVuSans-73" transform="translate(273.193359 0)"/>
     <use xlink:href="#DejaVuSans-74" transform="translate(325.292969 0)"/>
     <use xlink:href="#DejaVuSans-73" transform="translate(364.501953 0)"/>
     <use xlink:href="#DejaVuSans-20" transform="translate(416.601562 0)"/>
     <use xlink:href="#DejaVuSans-6f" transform="translate(448.388672 0)"/>
     <use xlink:href="#DejaVuSans-6e" transform="translate(509.570312 0)"/>
     <use xlink:href="#DejaVuSans-20" transform="translate(572.949219 0)"/>
     <use xlink:href="#DejaVuSans-74" transform="translate(604.736328 0)"/>
     <use xlink:href="#DejaVuSans-68" transform="translate(643.945312 0)"/>
     <use xlink:href="#DejaVuSans-65" transform="translate(707.324219 0)"/>
     <use xlink:href="#DejaVuSans-20" transform="translate(768.847656 0)"/>
     <use xlink:href="#DejaVuSans-56" transform="translate(800.634766 0)"/>
     <use xlink:href="#DejaVuSans-50" transform="translate(869.042969 0)"/>
     <use xlink:href="#DejaVuSans-4e" transform="translate(929.345703 0)"/>
     <use xlink:href="#DejaVuSans-20" transform="translate(1004.150391 0)"/>
     <use xlink:href="#DejaVuSans-20" transform="translate(1035.9375 0)"/>
     <use xlink:href="#DejaVuSans-20" transform="translate(1067.724609 0)"/>
     <use xlink:href="#DejaVuSans-b7" transform="translate(1099.511719 0)"/>
     <use xlink:href="#DejaVuSans-20" transform="translate(1131.298828 0)"/>
     <use xlink:href="#DejaVuSans-20" transform="translate(1163.085938 0)"/>
     <use xlink:href="#DejaVuSans-20" transform="translate(1194.873047 0)"/>
     <use xlink:href="#DejaVuSans-63" transform="translate(1226.660156 0)"/>
     <use xlink:href="#DejaVuSans-6f" transform="translate(1281.640625 0)"/>
     <use xlink:href="#DejaVuSans-6e" transform="translate(1342.822266 0)"/>
     <use xlink:href="#DejaVuSans-74" transform="translate(1406.201172 0)"/>
     <use xlink:href="#DejaVuSans-61" transform="translate(1445.410156 0)"/>
     <use xlink:href="#DejaVuSans-69" transform="translate(1506.689453 0)"/>
     <use xlink:href="#DejaVuSans-6e" transform="translate(1534.472656 0)"/>
     <use xlink:href="#DejaVuSans-65" transform="translate(1597.851562 0)"/>
     <use xlink:href="#DejaVuSans-72" transform="translate(1659.375 0)"/>
     <use xlink:href="#DejaVuSans-73" transform="translate(1700.488281 0)"/>
     <use xlink:href="#DejaVuSans-20" transform="translate(1752.587891 0)"/>
     <use xlink:href="#DejaVuSans-75" transform="translate(1784.375 0)"/>
     <use xlink:href="#DejaVuSans-73" transform="translate(1847.753906 0)"/>
     <use xlink:href="#DejaVuSans-65" transform="translate(1899.853516 0)"/>
     <use xlink:href="#DejaVuSans-20" transform="translate(1961.376953 0)"/>
     <use xlink:href="#DejaVuSans-2d" transform="translate(1993.164062 0)"/>
     <use xlink:href="#DejaVuSans-2d" transform="translate(2029.248047 0)"/>
     <use xlink:href="#DejaVuSans-6e" transform="translate(2065.332031 0)"/>
     <use xlink:href="#DejaVuSans-65" transform="translate(2128.710938 0)"/>
     <use xlink:href="#DejaVuSans-74" transform="translate(2190.234375 0)"/>
     <use xlink:href="#DejaVuSans-77" transform="translate(2229.443359 0)"/>
     <use xlink:href="#DejaVuSans-6f" transform="translate(2311.230469 0)"/>
     <use xlink:href="#DejaVuSans-72" transform="translate(2372.412109 0)"/>
     <use xlink:href="#DejaVuSans-6b" transform="translate(2413.525391 0)"/>
     <use xlink:href="#DejaVuSans-20" transform="translate(2471.435547 0)"/>
     <use xlink:href="#DejaVuSans-68" transform="translate(2503.222656 0)"/>
     <use xlink:href="#DejaVuSans-6f" transform="translate(2566.601562 0)"/>
     <use xlink:href="#DejaVuSans-73" transform="translate(2627.783203 0)"/>
     <use xlink:href="#DejaVuSans-74" transform="translate(2679.882812 0)"/>
    </g>
   </g>
   <g id="patch_24">
    <path d="M 61.32 566.304 
L 84.28 566.304 
Q 89.2 566.304 89.2 562.8096 
L 89.2 552.3264 
Q 89.2 548.832 84.28 548.832 
L 61.32 548.832 
Q 56.4 548.832 56.4 552.3264 
L 56.4 562.8096 
Q 56.4 566.304 61.32 566.304 
z
" clip-path="url(#p3450364e24)" style="fill: #cfe3f7; stroke: #4a86c5; stroke-width: 1.2; stroke-linejoin: miter"/>
   </g>
   <g id="text_14">
    <!-- = container (image) -->
    <g style="fill: #1c1c1c" transform="translate(97.4 559.55475) scale(0.072 -0.072)">
     <defs>
      <path id="DejaVuSans-3d" d="M 678 2906 
L 4684 2906 
L 4684 2381 
L 678 2381 
L 678 2906 
z
M 678 1631 
L 4684 1631 
L 4684 1100 
L 678 1100 
L 678 1631 
z
" transform="scale(0.015625)"/>
     </defs>
     <use xlink:href="#DejaVuSans-3d"/>
     <use xlink:href="#DejaVuSans-20" transform="translate(83.789062 0)"/>
     <use xlink:href="#DejaVuSans-63" transform="translate(115.576172 0)"/>
     <use xlink:href="#DejaVuSans-6f" transform="translate(170.556641 0)"/>
     <use xlink:href="#DejaVuSans-6e" transform="translate(231.738281 0)"/>
     <use xlink:href="#DejaVuSans-74" transform="translate(295.117188 0)"/>
     <use xlink:href="#DejaVuSans-61" transform="translate(334.326172 0)"/>
     <use xlink:href="#DejaVuSans-69" transform="translate(395.605469 0)"/>
     <use xlink:href="#DejaVuSans-6e" transform="translate(423.388672 0)"/>
     <use xlink:href="#DejaVuSans-65" transform="translate(486.767578 0)"/>
     <use xlink:href="#DejaVuSans-72" transform="translate(548.291016 0)"/>
     <use xlink:href="#DejaVuSans-20" transform="translate(589.404297 0)"/>
     <use xlink:href="#DejaVuSans-28" transform="translate(621.191406 0)"/>
     <use xlink:href="#DejaVuSans-69" transform="translate(660.205078 0)"/>
     <use xlink:href="#DejaVuSans-6d" transform="translate(687.988281 0)"/>
     <use xlink:href="#DejaVuSans-61" transform="translate(785.400391 0)"/>
     <use xlink:href="#DejaVuSans-67" transform="translate(846.679688 0)"/>
     <use xlink:href="#DejaVuSans-65" transform="translate(910.15625 0)"/>
     <use xlink:href="#DejaVuSans-29" transform="translate(971.679688 0)"/>
    </g>
   </g>
   <g id="patch_25">
    <path d="M 286 551.697408 
C 290.349331 551.697408 294.52111 551.362353 297.596551 550.766036 
C 300.671993 550.169718 302.4 549.360824 302.4 548.517504 
C 302.4 547.674184 300.671993 546.86529 297.596551 546.268972 
C 294.52111 545.672655 290.349331 545.3376 286 545.3376 
C 281.650669 545.3376 277.47889 545.672655 274.403449 546.268972 
C 271.328007 546.86529 269.6 547.674184 269.6 548.517504 
C 269.6 549.360824 271.328007 550.169718 274.403449 550.766036 
C 277.47889 551.362353 281.650669 551.697408 286 551.697408 
z
" clip-path="url(#p3450364e24)" style="fill: #e7d6f0; stroke: #8a5aa8; stroke-width: 1.4; stroke-linejoin: miter"/>
   </g>
   <g id="text_15">
    <!-- = persistent volume -->
    <g style="fill: #1c1c1c" transform="translate(310.6 559.55475) scale(0.072 -0.072)">
     <use xlink:href="#DejaVuSans-3d"/>
     <use xlink:href="#DejaVuSans-20" transform="translate(83.789062 0)"/>
     <use xlink:href="#DejaVuSans-70" transform="translate(115.576172 0)"/>
     <use xlink:href="#DejaVuSans-65" transform="translate(179.052734 0)"/>
     <use xlink:href="#DejaVuSans-72" transform="translate(240.576172 0)"/>
     <use xlink:href="#DejaVuSans-73" transform="translate(281.689453 0)"/>
     <use xlink:href="#DejaVuSans-69" transform="translate(333.789062 0)"/>
     <use xlink:href="#DejaVuSans-73" transform="translate(361.572266 0)"/>
     <use xlink:href="#DejaVuSans-74" transform="translate(413.671875 0)"/>
     <use xlink:href="#DejaVuSans-65" transform="translate(452.880859 0)"/>
     <use xlink:href="#DejaVuSans-6e" transform="translate(514.404297 0)"/>
     <use xlink:href="#DejaVuSans-74" transform="translate(577.783203 0)"/>
     <use xlink:href="#DejaVuSans-20" transform="translate(616.992188 0)"/>
     <use xlink:href="#DejaVuSans-76" transform="translate(648.779297 0)"/>
     <use xlink:href="#DejaVuSans-6f" transform="translate(707.958984 0)"/>
     <use xlink:href="#DejaVuSans-6c" transform="translate(769.140625 0)"/>
     <use xlink:href="#DejaVuSans-75" transform="translate(796.923828 0)"/>
     <use xlink:href="#DejaVuSans-6d" transform="translate(860.302734 0)"/>
     <use xlink:href="#DejaVuSans-65" transform="translate(957.714844 0)"/>
    </g>
   </g>
   <g id="text_16">
    <!-- corpus -->
    <g style="fill: #1c1c1c" transform="translate(134.495562 387.652561) scale(0.072 -0.072)">
     <use xlink:href="#DejaVuSans-63"/>
     <use xlink:href="#DejaVuSans-6f" transform="translate(54.980469 0)"/>
     <use xlink:href="#DejaVuSans-72" transform="translate(116.162109 0)"/>
     <use xlink:href="#DejaVuSans-70" transform="translate(157.275391 0)"/>
     <use xlink:href="#DejaVuSans-75" transform="translate(220.751953 0)"/>
     <use xlink:href="#DejaVuSans-73" transform="translate(284.130859 0)"/>
    </g>
    <!-- 4 TB -->
    <g style="fill: #1c1c1c" transform="translate(138.496625 395.714987) scale(0.072 -0.072)">
     <defs>
      <path id="DejaVuSans-34" d="M 2419 4116 
L 825 1625 
L 2419 1625 
L 2419 4116 
z
M 2253 4666 
L 3047 4666 
L 3047 1625 
L 3713 1625 
L 3713 1100 
L 3047 1100 
L 3047 0 
L 2419 0 
L 2419 1100 
L 313 1100 
L 313 1709 
L 2253 4666 
z
" transform="scale(0.015625)"/>
      <path id="DejaVuSans-54" d="M -19 4666 
L 3928 4666 
L 3928 4134 
L 2272 4134 
L 2272 0 
L 1638 0 
L 1638 4134 
L -19 4134 
L -19 4666 
z
" transform="scale(0.015625)"/>
      <path id="DejaVuSans-42" d="M 1259 2228 
L 1259 519 
L 2272 519 
Q 2781 519 3026 730 
Q 3272 941 3272 1375 
Q 3272 1813 3026 2020 
Q 2781 2228 2272 2228 
L 1259 2228 
z
M 1259 4147 
L 1259 2741 
L 2194 2741 
Q 2656 2741 2882 2914 
Q 3109 3088 3109 3444 
Q 3109 3797 2882 3972 
Q 2656 4147 2194 4147 
L 1259 4147 
z
M 628 4666 
L 2241 4666 
Q 2963 4666 3353 4366 
Q 3744 4066 3744 3513 
Q 3744 3084 3544 2831 
Q 3344 2578 2956 2516 
Q 3422 2416 3680 2098 
Q 3938 1781 3938 1306 
Q 3938 681 3513 340 
Q 3088 0 2303 0 
L 628 0 
L 628 4666 
z
" transform="scale(0.015625)"/>
     </defs>
     <use xlink:href="#DejaVuSans-34"/>
     <use xlink:href="#DejaVuSans-20" transform="translate(63.623047 0)"/>
     <use xlink:href="#DejaVuSans-54" transform="translate(95.410156 0)"/>
     <use xlink:href="#DejaVuSans-42" transform="translate(156.494141 0)"/>
    </g>
   </g>
   <g id="patch_26">
    <path d="M 146.6 299.164563 
Q 146.6 321.697212 146.6 344.22986 
" clip-path="url(#p3450364e24)" style="fill: none; stroke: #1c1c1c; stroke-width: 1.5; stroke-linecap: round"/>
    <path d="M 144.4 303.564563 
L 146.6 299.164563 
L 148.8 303.564563 
z
" clip-path="url(#p3450364e24)" style="fill: #1c1c1c; stroke: #1c1c1c; stroke-width: 1.5; stroke-linecap: round"/>
    <path d="M 148.8 339.82986 
L 146.6 344.22986 
L 144.4 339.82986 
z
" clip-path="url(#p3450364e24)" style="fill: #1c1c1c; stroke: #1c1c1c; stroke-width: 1.5; stroke-linecap: round"/>
   </g>
   <g id="text_17">
    <!-- model -->
    <g style="fill: #1c1c1c" transform="translate(348.589937 410.645713) scale(0.072 -0.072)">
     <use xlink:href="#DejaVuSans-6d"/>
     <use xlink:href="#DejaVuSans-6f" transform="translate(97.412109 0)"/>
     <use xlink:href="#DejaVuSans-64" transform="translate(158.59375 0)"/>
     <use xlink:href="#DejaVuSans-65" transform="translate(222.070312 0)"/>
     <use xlink:href="#DejaVuSans-6c" transform="translate(283.59375 0)"/>
    </g>
    <!-- 5 GB -->
    <g style="fill: #1c1c1c" transform="translate(351.106 418.708138) scale(0.072 -0.072)">
     <defs>
      <path id="DejaVuSans-35" d="M 691 4666 
L 3169 4666 
L 3169 4134 
L 1269 4134 
L 1269 2991 
Q 1406 3038 1543 3061 
Q 1681 3084 1819 3084 
Q 2600 3084 3056 2656 
Q 3513 2228 3513 1497 
Q 3513 744 3044 326 
Q 2575 -91 1722 -91 
Q 1428 -91 1123 -41 
Q 819 9 494 109 
L 494 744 
Q 775 591 1075 516 
Q 1375 441 1709 441 
Q 2250 441 2565 725 
Q 2881 1009 2881 1497 
Q 2881 1984 2565 2268 
Q 2250 2553 1709 2553 
Q 1456 2553 1204 2497 
Q 953 2441 691 2322 
L 691 4666 
z
" transform="scale(0.015625)"/>
      <path id="DejaVuSans-47" d="M 3809 666 
L 3809 1919 
L 2778 1919 
L 2778 2438 
L 4434 2438 
L 4434 434 
Q 4069 175 3628 42 
Q 3188 -91 2688 -91 
Q 1594 -91 976 548 
Q 359 1188 359 2328 
Q 359 3472 976 4111 
Q 1594 4750 2688 4750 
Q 3144 4750 3555 4637 
Q 3966 4525 4313 4306 
L 4313 3634 
Q 3963 3931 3569 4081 
Q 3175 4231 2741 4231 
Q 1884 4231 1454 3753 
Q 1025 3275 1025 2328 
Q 1025 1384 1454 906 
Q 1884 428 2741 428 
Q 3075 428 3337 486 
Q 3600 544 3809 666 
z
" transform="scale(0.015625)"/>
     </defs>
     <use xlink:href="#DejaVuSans-35"/>
     <use xlink:href="#DejaVuSans-20" transform="translate(63.623047 0)"/>
     <use xlink:href="#DejaVuSans-47" transform="translate(95.410156 0)"/>
     <use xlink:href="#DejaVuSans-42" transform="translate(172.900391 0)"/>
    </g>
   </g>
   <g id="text_18">
    <!-- fuzz cache -->
    <g style="fill: #1c1c1c" transform="translate(488.266562 414.676926) scale(0.072 -0.072)">
     <defs>
      <path id="DejaVuSans-7a" d="M 353 3500 
L 3084 3500 
L 3084 2975 
L 922 459 
L 3084 459 
L 3084 0 
L 275 0 
L 275 525 
L 2438 3041 
L 353 3041 
L 353 3500 
z
" transform="scale(0.015625)"/>
     </defs>
     <use xlink:href="#DejaVuSans-66"/>
     <use xlink:href="#DejaVuSans-75" transform="translate(35.205078 0)"/>
     <use xlink:href="#DejaVuSans-7a" transform="translate(98.583984 0)"/>
     <use xlink:href="#DejaVuSans-7a" transform="translate(151.074219 0)"/>
     <use xlink:href="#DejaVuSans-20" transform="translate(203.564453 0)"/>
     <use xlink:href="#DejaVuSans-63" transform="translate(235.351562 0)"/>
     <use xlink:href="#DejaVuSans-61" transform="translate(290.332031 0)"/>
     <use xlink:href="#DejaVuSans-63" transform="translate(351.611328 0)"/>
     <use xlink:href="#DejaVuSans-68" transform="translate(406.591797 0)"/>
     <use xlink:href="#DejaVuSans-65" transform="translate(469.970703 0)"/>
    </g>
   </g>
   <g id="patch_27">
    <path d="M 375.67453 264.182817 
Q 367.999969 317.328215 360.325408 370.473613 
" clip-path="url(#p3450364e24)" style="fill: none; stroke: #1c1c1c; stroke-width: 1.5; stroke-linecap: round"/>
    <path d="M 372.868249 268.223212 
L 375.67453 264.182817 
L 377.223077 268.852079 
z
" clip-path="url(#p3450364e24)" style="fill: #1c1c1c; stroke: #1c1c1c; stroke-width: 1.5; stroke-linecap: round"/>
    <path d="M 363.131689 366.433219 
L 360.325408 370.473613 
L 358.776861 365.804352 
z
" clip-path="url(#p3450364e24)" style="fill: #1c1c1c; stroke: #1c1c1c; stroke-width: 1.5; stroke-linecap: round"/>
   </g>
   <g id="patch_28">
    <path d="M 484.603412 333.634156 
Q 495.099356 352.270856 505.5953 370.907557 
" clip-path="url(#p3450364e24)" style="fill: none; stroke: #1c1c1c; stroke-width: 1.5; stroke-linecap: round"/>
    <path d="M 484.845658 338.547537 
L 484.603412 333.634156 
L 488.679465 336.388388 
z
" clip-path="url(#p3450364e24)" style="fill: #1c1c1c; stroke: #1c1c1c; stroke-width: 1.5; stroke-linecap: round"/>
    <path d="M 505.353054 365.994175 
L 505.5953 370.907557 
L 501.519247 368.153325 
z
" clip-path="url(#p3450364e24)" style="fill: #1c1c1c; stroke: #1c1c1c; stroke-width: 1.5; stroke-linecap: round"/>
   </g>
   <g id="text_19">
    <!-- fuzz cache -->
    <g style="fill: #1c1c1c" transform="translate(685.066562 391.380926) scale(0.072 -0.072)">
     <use xlink:href="#DejaVuSans-66"/>
     <use xlink:href="#DejaVuSans-75" transform="translate(35.205078 0)"/>
     <use xlink:href="#DejaVuSans-7a" transform="translate(98.583984 0)"/>
     <use xlink:href="#DejaVuSans-7a" transform="translate(151.074219 0)"/>
     <use xlink:href="#DejaVuSans-20" transform="translate(203.564453 0)"/>
     <use xlink:href="#DejaVuSans-63" transform="translate(235.351562 0)"/>
     <use xlink:href="#DejaVuSans-61" transform="translate(290.332031 0)"/>
     <use xlink:href="#DejaVuSans-63" transform="translate(351.611328 0)"/>
     <use xlink:href="#DejaVuSans-68" transform="translate(406.591797 0)"/>
     <use xlink:href="#DejaVuSans-65" transform="translate(469.970703 0)"/>
    </g>
   </g>
   <g id="patch_29">
    <path d="M 704.2 299.167584 
Q 704.2 323.152438 704.2 347.137291 
" clip-path="url(#p3450364e24)" style="fill: none; stroke: #1c1c1c; stroke-width: 1.5; stroke-linecap: round"/>
    <path d="M 702 303.567584 
L 704.2 299.167584 
L 706.4 303.567584 
z
" clip-path="url(#p3450364e24)" style="fill: #1c1c1c; stroke: #1c1c1c; stroke-width: 1.5; stroke-linecap: round"/>
    <path d="M 706.4 342.737291 
L 704.2 347.137291 
L 702 342.737291 
z
" clip-path="url(#p3450364e24)" style="fill: #1c1c1c; stroke: #1c1c1c; stroke-width: 1.5; stroke-linecap: round"/>
   </g>
   <g id="patch_30">
    <path d="M 336.602368 79.975784 
Q 384.401113 128.777136 431.026374 176.380391 
" clip-path="url(#p3450364e24)" style="fill: none; stroke: #1c1c1c; stroke-width: 1.5; stroke-linecap: round"/>
    <path d="M 429.519258 171.697592 
L 431.026374 176.380391 
L 426.375866 174.776405 
z
" clip-path="url(#p3450364e24)" style="fill: #1c1c1c; stroke: #1c1c1c; stroke-width: 1.5; stroke-linecap: round"/>
   </g>
   <g id="patch_31">
    <path d="M 549.966653 79.788474 
Q 626.300817 140.424649 701.321813 200.017707 
" clip-path="url(#p3450364e24)" style="fill: none; stroke: #1c1c1c; stroke-width: 1.5; stroke-linecap: round"/>
    <path d="M 699.244906 195.558283 
L 701.321813 200.017707 
L 696.50813 199.003578 
z
" clip-path="url(#p3450364e24)" style="fill: #1c1c1c; stroke: #1c1c1c; stroke-width: 1.5; stroke-linecap: round"/>
   </g>
   <g id="patch_32">
    <path d="M 284.504666 79.871565 
Q 216.300397 140.423648 149.099422 200.085001 
" clip-path="url(#p3450364e24)" style="fill: none; stroke-dasharray: 4.8,3.6; stroke-dashoffset: 0; stroke: #7a7a7a; stroke-width: 1.2; stroke-linecap: round"/>
    <path d="M 153.850398 198.808979 
L 149.099422 200.085001 
L 150.92919 195.518607 
z
" clip-path="url(#p3450364e24)" style="fill: #7a7a7a; stroke-dasharray: 4.8,3.6; stroke-dashoffset: 0; stroke: #7a7a7a; stroke-width: 1.2; stroke-linecap: round"/>
   </g>
   <g id="text_20">
    <g id="patch_33">
     <path d="M 580.770313 128.725687 
L 622.629688 128.725687 
Q 623.997687 128.725687 623.997687 127.357687 
L 623.997687 120.002313 
Q 623.997687 118.634312 622.629688 118.634312 
L 580.770313 118.634312 
Q 579.402312 118.634312 579.402312 120.002313 
L 579.402312 127.357687 
Q 579.402312 128.725687 580.770313 128.725687 
z
" style="fill: #ffffff"/>
    </g>
    <!-- docker pull -->
    <g style="fill: #1c1c1c" transform="translate(580.770313 125.777125) scale(0.076 -0.076)">
     <use xlink:href="#DejaVuSans-64"/>
     <use xlink:href="#DejaVuSans-6f" transform="translate(63.476562 0)"/>
     <use xlink:href="#DejaVuSans-63" transform="translate(124.658203 0)"/>
     <use xlink:href="#DejaVuSans-6b" transform="translate(179.638672 0)"/>
     <use xlink:href="#DejaVuSans-65" transform="translate(233.923828 0)"/>
     <use xlink:href="#DejaVuSans-72" transform="translate(295.447266 0)"/>
     <use xlink:href="#DejaVuSans-20" transform="translate(336.560547 0)"/>
     <use xlink:href="#DejaVuSans-70" transform="translate(368.347656 0)"/>
     <use xlink:href="#DejaVuSans-75" transform="translate(431.824219 0)"/>
     <use xlink:href="#DejaVuSans-6c" transform="translate(495.203125 0)"/>
     <use xlink:href="#DejaVuSans-6c" transform="translate(522.986328 0)"/>
    </g>
   </g>
  </g>
 </g>
 <defs>
  <clipPath id="p3450364e24">
   <rect x="7.2" y="7.2" width="820" height="582.4"/>
  </clipPath>
 </defs>
</svg>
